<?xml version="1.0" encoding="UTF-8" standalone="no"?>
<!-- Created with Inkscape (http://www.inkscape.org/) -->

<svg
   xmlns:dc="http://purl.org/dc/elements/1.1/"
   xmlns:cc="http://creativecommons.org/ns#"
   xmlns:rdf="http://www.w3.org/1999/02/22-rdf-syntax-ns#"
   xmlns:svg="http://www.w3.org/2000/svg"
   xmlns="http://www.w3.org/2000/svg"
   xmlns:inkscape="http://www.inkscape.org/namespaces/inkscape"
   version="1.1"
   width="600"
   height="510.36133"
   id="svg5925">
  <defs
     id="defs5927" />
  <metadata
     id="metadata5930">
    <rdf:RDF>
      <cc:Work
         rdf:about="">
        <dc:format>image/svg+xml</dc:format>
        <dc:type
           rdf:resource="http://purl.org/dc/dcmitype/StillImage" />
        <dc:title />
      </cc:Work>
    </rdf:RDF>
  </metadata>
  <path
     d="m 419.33782,0 -239.77289,0 -1.14828,0.15311 c -16.1907,1.74793 -38.56933,13.40931 -46.04589,37.9314 l -96.99109,27.01001 -0.94414,0.345 C 21.23035,70.53021 0,87.57574 0,118.77058 c 0,5.57552 0.65017,11.61035 2.19448,18.14277 l 91.50488,341.4464 2.48793,3.38104 c 10.37277,13.80484 35.53278,34.93312 64.29073,26.7676 0,0 128.93869,-35.48174 139.60491,-38.42899 10.61517,2.94725 139.74525,38.48003 139.74525,38.48003 28.55381,8.11448 53.72658,-13.0138 64.08659,-26.81864 l 2.48793,-3.34276 91.36454,-340.83399 C 599.31103,130.87852 600,124.65231 600,118.97472 600,87.5247 578.82067,70.53021 565.66653,65.43952 l -0.94414,-0.345 L 467.7313,38.08451 C 460.25474,13.56242 437.82507,1.90104 421.68541,0.15311 L 420.53713,0 419.33782,0 z"
     inkscape:connector-curvature="0"
     id="path812"
     style="fill:#ffffff;fill-opacity:1;fill-rule:nonzero;stroke:none" />
  <path
     d="m 180.7132,21.77898 c 0,0 -29.3576,3.13862 -29.3576,33.54243 L 42.25657,85.77626 c 0,0 -27.30346,10.46207 -18.88277,46.14796 l 90.2035,336.76398 c 0,0 18.89553,25.21105 40.91692,18.88277 l 145.58871,-40.02381 145.52491,40.02381 c 22.02139,6.32828 40.91692,-18.88277 40.91692,-18.88277 l 90.2035,-336.76398 C 585.14895,96.23833 557.89652,85.77626 557.89652,85.77626 L 448.74646,55.32141 c 0,-30.40381 -29.40864,-33.54243 -29.40864,-33.54243 l -238.62462,0 z"
     inkscape:connector-curvature="0"
     id="path814"
     style="fill:#000000;fill-opacity:1;fill-rule:nonzero;stroke:none" />
  <path
     d="m 181.70837,34.34623 c -1.39069,0.2419 -5.57552,1.18655 -9.56897,3.84035 -5.57552,3.72552 -8.21655,9.16069 -8.21655,17.13483 l 0,9.56898 c 0,0 -115.78455,32.30484 -117.46869,32.75139 -2.99828,1.44173 -12.1207,6.8769 -12.1207,21.37071 0,2.94724 0.40828,6.23896 1.25035,9.97724 0.20414,0.60017 88.02177,328.48364 89.4635,333.76571 3.84035,4.38897 15.24656,15.79518 26.01484,12.70759 l 149.02078,-40.96795 148.95698,40.96795 c 10.76828,3.08759 22.13622,-8.31862 26.01484,-12.70759 1.45448,-5.28207 89.3104,-333.16605 89.4635,-333.76571 0.84207,-3.73828 1.25035,-7.03 1.25035,-9.97724 0,-14.49381 -9.12242,-19.92898 -12.10794,-21.37071 -1.6969,-0.44604 -117.51972,-32.75139 -117.51972,-32.75139 l 0,-9.56898 c 0,-7.97414 -2.60276,-13.40931 -8.17829,-17.13483 -3.94241,-2.6538 -8.17828,-3.59794 -9.56897,-3.84035 l -236.68531,0 z"
     inkscape:connector-curvature="0"
     id="path816"
     style="fill:#ffffff;fill-opacity:1;fill-rule:nonzero;stroke:none" />
  <path
     d="m 438.73094,81.54039 0,323.85226 c 0,0 -2.84518,20.97518 -19.5845,20.97518 l -90.95626,0 121.70456,33.59347 c 0,0 6.97897,3.49587 10.46207,-4.18483 l 89.56557,-332.27295 c 0,0 3.48311,-10.46207 -4.88655,-13.25621 L 438.73094,81.54039 z M 55.06623,110.94903 c -8.36966,2.78138 -4.87379,13.30725 -4.87379,13.30725 l 89.50177,332.22192 c 3.5469,7.66793 10.51311,4.18483 10.51311,4.18483 l 121.70456,-33.54244 -90.89247,0 c -16.85415,0 -19.59725,-21.03897 -19.59725,-21.03897 l 0,-323.8395 -106.35593,28.70691 z m 128.04559,-60.85865 234.28669,0 c 4.93759,0 5.57552,6.27724 5.57552,6.27724 l 0,348.32331 c 0,5.63931 -5.57552,7.03 -5.57552,7.03 l -234.28669,0 c -4.93759,0 -4.93759,-7.03 -4.93759,-7.03 l 0,-348.32331 c 0,-4.18483 4.93759,-6.27724 4.93759,-6.27724"
     inkscape:connector-curvature="0"
     id="path818"
     style="fill:#000000;fill-opacity:1;fill-rule:nonzero;stroke:none" />
  <g
     transform="scale(10.206902,10.206902)"
     id="text5170"
     style="font-size:29.30051804px;font-style:normal;font-variant:normal;font-weight:100;font-stretch:normal;text-align:start;line-height:125%;letter-spacing:0px;word-spacing:0px;writing-mode:lr-tb;text-anchor:start;fill:#ffffff;fill-opacity:1;stroke:#8d742f;stroke-width:0.91564119;stroke-opacity:0;font-family:GoudyMedieval;-inkscape-font-specification:GoudyMedieval Thin">
    <path
       d="m 39.974497,31.766902 c -0.05844,0.253949 -0.258586,0.498209 -0.600443,0.732782 -0.341893,0.234573 -0.747105,0.35186 -1.215638,0.35186 -0.273637,0 -0.522815,-0.03428 -0.747536,-0.102831 -0.224753,-0.06855 -0.552023,-0.249327 -0.98181,-0.542321 -0.429818,-0.292992 -0.776462,-0.73725 -1.039933,-1.332776 -0.263499,-0.595522 -0.541887,-0.864074 -0.835164,-0.805657 -0.664092,0.605661 -1.391656,1.21117 -2.182696,1.816528 -0.791063,0.605361 -1.645601,0.966759 -2.563616,1.084195 -0.918034,0.117435 -1.923987,0.254245 -3.017861,0.410429 -0.703427,-1e-6 -1.362736,-0.131892 -1.977928,-0.395675 -0.6152,-0.263783 -1.245149,-0.708191 -1.889851,-1.333224 -0.644706,-0.62503 -1.113554,-1.562727 -1.406546,-2.813093 -0.292994,-1.250357 -0.439491,-3.242739 -0.43949,-5.977152 l 0,-1.934113 0,-1.318023 c -1e-6,-1.367485 -0.0098,-2.192814 -0.02951,-2.475986 -0.01967,-0.283141 -0.08808,-0.683585 -0.205215,-1.201332 -0.117137,-0.517713 -0.483304,-0.942598 -1.098501,-1.274655 -0.615195,-0.332021 -0.922793,-0.703105 -0.922795,-1.113255 0.956775,1.9e-5 1.767349,-0.05855 2.431725,-0.175707 0.664375,-0.117118 1.30893,-0.24424 1.933666,-0.381368 0.156181,2e-5 0.317283,0.03907 0.483305,0.117138 0.166017,0.07811 0.249026,0.41015 0.249029,0.996117 -3e-6,0.586005 -0.0097,1.181827 -0.02906,1.787468 -0.01938,0.605675 -0.0389,1.181825 -0.05857,1.728451 -3e-6,0.605674 -0.0049,1.201495 -0.01475,1.787468 -0.0098,0.585999 -0.01476,1.171985 -0.01475,1.757959 -3e-6,3.223233 0.288221,5.626043 0.864673,7.208439 0.576444,1.582405 1.40669,2.437092 2.49074,2.564064 1.084038,0.126975 1.76287,0.190462 2.036497,0.19046 0.956764,2e-6 1.884476,-0.180771 2.783138,-0.54232 0.89864,-0.361545 1.58224,-0.962285 2.050804,-1.802222 0.234858,-0.56631 0.410862,-1.201028 0.528014,-1.904158 0.117124,-0.703117 0.175692,-1.592081 0.175706,-2.666894 -1.4e-5,-0.898344 -0.04398,-1.806533 -0.131891,-2.724569 -0.08794,-0.918014 -0.146511,-1.684773 -0.175707,-2.300281 -0.02922,-0.61548 -0.04383,-1.147666 -0.04382,-1.59656 l 0,-0.615196 c -1.3e-5,-0.351695 -0.0098,-0.625314 -0.02951,-0.820858 -0.01968,-0.19551 -0.07348,-0.454376 -0.161399,-0.776596 -0.08794,-0.322185 -0.341889,-0.683434 -0.761843,-1.083747 -0.419979,-0.400276 -0.629962,-0.659141 -0.62995,-0.776596 -1.2e-5,-0.09774 0.06347,-0.175836 0.190461,-0.234276 0.126961,-0.0584 0.625019,-0.151096 1.494176,-0.27809 0.869129,-0.126953 1.528438,-0.19044 1.977928,-0.19046 0.195511,2e-5 0.356762,0.04383 0.483752,0.131444 0.126957,0.08765 0.190444,0.766332 0.19046,2.03605 l 0,1.553192 0,8.878322 c -1.6e-5,1.99224 0.166003,3.452287 0.498059,4.380145 0.332022,0.927864 1.113237,1.587023 2.343648,1.97748 z"
       inkscape:connector-curvature="0"
       id="path2989" />
  </g>
</svg>
