<?xml version="1.0" encoding="UTF-8" standalone="no"?>
<!-- Created with Inkscape (http://www.inkscape.org/) -->

<svg
   xmlns:dc="http://purl.org/dc/elements/1.1/"
   xmlns:cc="http://creativecommons.org/ns#"
   xmlns:rdf="http://www.w3.org/1999/02/22-rdf-syntax-ns#"
   xmlns:svg="http://www.w3.org/2000/svg"
   xmlns="http://www.w3.org/2000/svg"
   xmlns:inkscape="http://www.inkscape.org/namespaces/inkscape"
   version="1.1"
   width="600"
   height="600"
   id="svg4332">
  <defs
     id="defs4334" />
  <metadata
     id="metadata4337">
    <rdf:RDF>
      <cc:Work
         rdf:about="">
        <dc:format>image/svg+xml</dc:format>
        <dc:type
           rdf:resource="http://purl.org/dc/dcmitype/StillImage" />
        <dc:title />
      </cc:Work>
    </rdf:RDF>
  </metadata>
  <g
     transform="translate(-142.0055,126.78621)"
     id="layer1">
    <g
       transform="matrix(6,0,0,6,2662.0055,-126.78621)"
       id="g147">
      <circle
         cx="-370"
         cy="50"
         r="50"
         id="circle149"
         style="fill:#c1d7e9" />
    </g>
    <path
       d="m 546.93368,375.52782 c -28.72196,29.226 -64.10398,43.84196 -106.12802,43.84196 -47.166,0 -84.58803,-16.14 -112.266,-48.43795 -26.154,-30.76204 -39.22197,-69.97207 -39.22197,-117.63603 0,-51.258 22.302,-109.71598 66.89994,-175.344003 36.38405,-53.814017 79.19405,-100.980016 128.41207,-141.480014 -7.182,32.813992 -10.75803,56.1299969 -10.75803,69.9720001 0,31.7939869 9.98404,62.8020029 29.976,93.0479999 24.61201,35.880017 43.31404,62.556027 56.14201,79.967977 19.99203,30.25801 29.98804,59.73001 29.98804,88.42201 0.0101,42.55803 -14.346,78.44402 -43.04404,107.64605 z m -0.774,-164.17205 c -7.68597,-17.16598 -16.66198,-28.572 -26.91601,-34.21796 1.53601,3.08394 2.31001,7.43996 2.31001,13.07995 0,10.77001 -3.072,26.14202 -9.23397,46.13402 l -9.984,30.762 c 0,17.93998 8.95199,26.91599 26.90397,26.91599 18.96002,0 28.45207,-12.56998 28.45207,-37.68599 0,-12.80402 -3.84005,-27.792 -11.53207,-44.98801 z"
       inkscape:connector-curvature="0"
       id="path151"
       style="fill:#0d0f0f" />
  </g>
</svg>
