<?xml version="1.0" encoding="utf-8"?>
<!-- Generator: Adobe Illustrator 13.0.0, SVG Export Plug-In . SVG Version: 6.00 Build 14948)  -->
<!DOCTYPE svg PUBLIC "-//W3C//DTD SVG 1.1//EN" "http://www.w3.org/Graphics/SVG/1.1/DTD/svg11.dtd">
<svg version="1.1"
	 id="svg7319" xmlns:dc="http://purl.org/dc/elements/1.1/" xmlns:cc="http://creativecommons.org/ns#" xmlns:svg="http://www.w3.org/2000/svg" xmlns:inkscape="http://www.inkscape.org/namespaces/inkscape" xmlns:rdf="http://www.w3.org/1999/02/22-rdf-syntax-ns#"
	 xmlns="http://www.w3.org/2000/svg" xmlns:xlink="http://www.w3.org/1999/xlink" x="0px" y="0px" width="600px" height="503.197px"
	 viewBox="0 0 600 503.197" enable-background="new 0 0 600 503.197" xml:space="preserve">
<path fill="#FFFFFF" d="M577.459,68.985L459.857,36.157C459.857,3.342,428.156,0,428.156,0H170.876c0,0-31.646,3.342-31.646,36.157
	L21.642,68.985c0,0-29.445,11.278-20.424,49.745l97.29,363.014c0,0,20.368,27.176,44.105,20.354l156.937-43.144l156.868,43.144
	c23.738,6.821,44.106-20.354,44.106-20.354l97.234-363.014C606.836,80.263,577.459,68.985,577.459,68.985z"/>
<path d="M577.959,68.985L460.357,36.157C460.357,3.342,428.656,0,428.656,0H171.376c0,0-31.646,3.342-31.646,36.157L22.142,68.985
	c0,0-29.445,11.278-20.424,49.745l97.29,363.014c0,0,20.368,27.176,44.105,20.354l156.937-43.144l156.868,43.144
	c23.738,6.821,44.106-20.354,44.106-20.354l97.234-363.014C607.336,80.263,577.959,68.985,577.959,68.985z M585.097,115.512
	c-0.165,0.702-94.868,354.143-96.437,359.836c-4.126,4.731-16.435,16.972-27.987,13.698L300.05,444.83l-160.636,44.217
	c-11.553,3.273-23.903-8.967-28.043-13.698c-1.567-5.693-96.217-359.135-96.382-359.836c-0.962-3.975-1.402-7.523-1.402-10.7
	c0-15.624,9.833-21.538,13.065-23.037c1.815-0.495,126.625-35.304,126.625-35.304V36.157c0-8.596,2.847-14.455,8.856-18.484
	c4.305-2.847,8.816-3.865,10.26-4.126h255.244c1.444,0.261,6.01,1.279,10.314,4.126c5.955,4.029,8.803,9.888,8.803,18.484v10.315
	c0,0,124.81,34.809,126.639,35.304c3.272,1.499,13.052,7.413,13.052,23.037C586.446,107.989,586.02,111.538,585.097,115.512z
	 M432.575,412.759V37.285c0,0-0.798-6.767-6.065-6.767H173.962c0,0-5.322,2.255-5.322,6.767v375.474c0,0,0,7.578,5.322,7.578H426.51
	C426.51,420.337,432.575,418.782,432.575,412.759z M384.233,177.607c-9.462,10.26-26.914,21.221-52.44,32.829
	c28.8,29.28,43.199,53.83,43.199,73.758c0,19.667-7.854,37.175-23.587,52.551c-15.692,15.307-37.285,22.995-64.626,22.995
	c-26.818,0-47.765-7.207-62.755-21.606c-14.991-14.399-22.514-29.816-22.514-46.252c0-16.063,7.468-31.055,22.349-45.014
	c14.895-13.918,35.524-25.416,61.792-34.438c-24.452-23.972-36.692-45.509-36.692-64.585c0-17.989,7.839-33.351,23.477-45.977
	c15.678-12.68,34.107-19.021,55.383-19.021c20.74,0,37.711,5.584,50.873,16.655c13.106,11.167,19.722,25.195,19.722,42.277
	C398.412,155.424,393.682,167.348,384.233,177.607z M342.479,297.687c0,12.734-5.157,23.793-15.417,33.145
	s-23.146,14.028-38.619,14.028c-15.747,0-29.225-4.731-40.406-14.138c-11.168-9.504-16.751-21.373-16.751-35.772
	c0-13.437,5.583-25.843,16.751-37.229c11.126-11.347,27.836-21.923,50.13-31.646C327.708,255.188,342.479,279.092,342.479,297.687z
	 M171.693,436.937h98.005l-131.205,36.156c0,0-7.509,3.755-11.332-4.511L30.724,110.41c0,0-3.81-11.292,5.212-14.29l114.646-30.945
	v349.081C150.582,414.257,153.538,436.937,171.693,436.937z M564.096,95.364L449.505,64.419v349.095c0,0-3.012,22.61-21.11,22.61
	h-98.046l131.19,36.212c0,0,7.578,3.755,11.277-4.511l96.547-358.173C569.364,109.653,573.118,98.376,564.096,95.364z
	 M356.451,109.378c-8.596-7.784-19.075-11.649-31.426-11.649c-12.845,0-23.586,4.085-32.071,12.24
	c-8.596,8.169-12.791,17.356-12.791,27.506c0,7.042,1.994,13.808,6.024,20.313c4.084,6.45,13.697,18.002,28.895,34.493l4.36,4.772
	c33.255-16.972,49.909-36.309,49.909-57.915C369.352,127.065,365.047,117.122,356.451,109.378z"/>
</svg>
