<?xml version="1.0" encoding="utf-8"?>
<!-- Generator: Adobe Illustrator 13.0.0, SVG Export Plug-In . SVG Version: 6.00 Build 14948)  -->
<!DOCTYPE svg PUBLIC "-//W3C//DTD SVG 1.1//EN" "http://www.w3.org/Graphics/SVG/1.1/DTD/svg11.dtd">
<svg version="1.1"
	 id="svg7523" xmlns:dc="http://purl.org/dc/elements/1.1/" xmlns:cc="http://creativecommons.org/ns#" xmlns:svg="http://www.w3.org/2000/svg" xmlns:inkscape="http://www.inkscape.org/namespaces/inkscape" xmlns:rdf="http://www.w3.org/1999/02/22-rdf-syntax-ns#"
	 xmlns="http://www.w3.org/2000/svg" xmlns:xlink="http://www.w3.org/1999/xlink" x="0px" y="0px" width="600px" height="503.25px"
	 viewBox="0 0 600 503.25" enable-background="new 0 0 600 503.25" xml:space="preserve">
<path fill="#FFFFFF" d="M578.424,68.987l-117.607-32.83C460.817,3.383,429.115,0,429.115,0H171.885c0,0-31.646,3.383-31.646,36.158
	L22.591,68.987c0,0-29.392,11.278-20.369,49.747l97.292,363.023c0,0,20.369,27.177,44.107,20.41l156.942-43.199l156.871,43.199
	c23.738,6.767,44.107-20.41,44.107-20.41l97.238-363.023C607.801,80.266,578.424,68.987,578.424,68.987z"/>
<path d="M577.923,68.987l-117.606-32.83C460.317,3.383,428.615,0,428.615,0H171.384c0,0-31.646,3.383-31.646,36.158L22.09,68.987
	c0,0-29.392,11.278-20.369,49.747l97.292,363.023c0,0,20.369,27.177,44.107,20.41l156.941-43.199l156.872,43.199
	c23.738,6.767,44.107-20.41,44.107-20.41l97.237-363.023C607.3,80.266,577.923,68.987,577.923,68.987z M585.116,115.516
	c-0.207,0.701-94.872,354.152-96.426,359.846c-4.195,4.731-16.449,16.973-28.002,13.699l-160.683-44.218l-160.641,44.218
	c-11.553,3.273-23.849-8.968-28.043-13.699c-1.499-5.693-96.22-359.144-96.385-359.846c-0.908-3.975-1.334-7.523-1.334-10.7
	c0-15.569,9.766-21.538,13.052-23.037c1.83-0.495,126.629-35.305,126.629-35.305V36.158c0-8.596,2.792-14.455,8.857-18.484
	c4.25-2.847,8.815-3.864,10.26-4.126h255.196c1.499,0.261,6.023,1.279,10.314,4.126c6.024,4.03,8.816,9.889,8.816,18.484v10.315
	c0,0,124.854,34.81,126.684,35.305c3.218,1.499,13.052,7.468,13.052,23.037C586.464,107.992,586.038,111.541,585.116,115.516z
	 M171.659,436.948h97.993l-131.14,36.158c0,0-7.578,3.755-11.347-4.512l-96.48-358.127c0,0-3.769-11.346,5.268-14.345l114.594-30.89
	v349.036C150.547,414.269,153.545,436.948,171.659,436.948z M569.382,109.657l-96.55,358.182
	c-3.754,8.266-11.277,4.511-11.277,4.511l-131.194-36.213h97.993c18.1,0,21.111-22.611,21.111-22.611V64.477l114.595,30.89
	C573.137,98.379,569.382,109.657,569.382,109.657z M426.525,420.348h-252.61c-5.268,0-5.268-7.578-5.268-7.578V37.286
	c0-4.511,5.268-6.767,5.268-6.767h252.61c5.268,0,6.011,6.767,6.011,6.767V412.77C432.535,418.835,426.525,420.348,426.525,420.348z
	 M316.18,82.095c-26.818,0-49.223,11.017-67.322,33.036c-18.1,21.978-27.136,45.827-27.136,71.518
	c0,18.265,5.487,33.889,16.545,47.106c11.017,13.162,26.38,19.722,46.212,19.722c9.298,0,18.636-1.774,27.988-5.322
	c9.407-3.59,18.801-8.857,28.264-15.899c-27.026,58.935-72.151,97.292-135.279,115.186l10.906,11.498
	c46.68-4.993,88.05-26.971,124.098-65.921c36.048-38.895,54.051-78.807,54.051-119.916c0-25.843-7.097-47.546-21.166-64.903
	C359.201,90.8,340.139,82.095,316.18,82.095z M349.478,207.705c-7.729,7.468-15.734,13.052-24.068,16.82
	c-8.321,3.7-16.973,5.584-25.885,5.584c-11.071,0-20.424-3.864-28.098-11.608c-7.634-7.688-11.498-19.392-11.498-34.975
	c0-22.61,5.309-42.705,16.009-60.281c10.632-17.508,23.959-26.27,39.968-26.27c12.516,0,22.831,5.639,31,16.931
	c8.114,11.223,12.199,25.568,12.199,43.076C359.105,171.767,355.873,188.684,349.478,207.705z"/>
</svg>
