<?xml version="1.0" encoding="UTF-8" standalone="no"?>
<!-- Created with Inkscape (http://www.inkscape.org/) -->

<svg
   xmlns:dc="http://purl.org/dc/elements/1.1/"
   xmlns:cc="http://creativecommons.org/ns#"
   xmlns:rdf="http://www.w3.org/1999/02/22-rdf-syntax-ns#"
   xmlns:svg="http://www.w3.org/2000/svg"
   xmlns="http://www.w3.org/2000/svg"
   xmlns:inkscape="http://www.inkscape.org/namespaces/inkscape"
   version="1.1"
   width="600"
   height="600"
   id="svg4364">
  <defs
     id="defs4366" />
  <metadata
     id="metadata4369">
    <rdf:RDF>
      <cc:Work
         rdf:about="">
        <dc:format>image/svg+xml</dc:format>
        <dc:type
           rdf:resource="http://purl.org/dc/dcmitype/StillImage" />
        <dc:title />
      </cc:Work>
    </rdf:RDF>
  </metadata>
  <g
     transform="translate(-184.8627,46.786205)"
     id="layer1">
    <g
       transform="matrix(6,0,0,6,2074.8627,-46.774212)"
       id="g141">
      <circle
         cx="-265"
         cy="49.998001"
         r="50"
         id="circle143"
         style="fill:#bab1ab" />
    </g>
    <path
       d="m 729.03281,244.93977 c 0,33.10801 -12.04797,55.68598 -36.11999,67.72198 -7.03197,3.51597 -29.10001,8.274 -66.22199,14.29802 -24.07202,4.01994 -36.10801,13.30198 -36.10801,27.83397 v 60.94798 c 0,2.53204 0.75001,10.29004 2.25003,23.33406 l 2.262,24.08396 c 0,7.52997 -1.75804,19.83599 -5.27401,36.87603 -9.52802,2.00395 -20.56802,4.25401 -33.10801,6.79198 -4.01998,-15.06599 -6.02396,-25.34401 -6.02396,-30.87601 0,-2.496 0.62998,-6.26999 1.87801,-11.29202 1.24193,-5.00398 1.89595,-8.76596 1.89595,-11.29796 0,-3.48001 -3.12,-13.27802 -9.35399,-29.32201 h -11.67002 c -1.54795,2.50801 -2.06399,5.76597 -1.55996,9.77399 2.00398,8.53203 2.75398,15.79801 2.262,21.822 -8.53203,6.02402 -20.32205,14.04601 -35.37001,24.07799 -3.51601,-0.99595 -4.75801,-1.49995 -3.774,-1.49995 v -53.42402 c -0.98401,-2.49603 -3.50403,-3.48605 -7.524,-3.01201 h -9.02402 l -9.02398,70.72201 c -7.04402,0.504 -15.55203,0.504 -25.58404,0 -3.52799,-16.54802 -9.78597,-41.11799 -18.80995,-73.73398 h -6.02402 c -5.532,17.57396 -8.532,27.11395 -9.036,28.61396 0,2.00398 0.62401,5.886 1.88398,11.652 1.24203,5.772 1.87801,9.65402 1.87801,11.65797 0,1.50005 -0.504,5.26203 -1.50002,11.28602 l -2.26197,18.06004 c -1.00802,0.99599 -2.26196,1.49998 -3.76201,1.49998 -15.04797,0 -25.09196,-3.76201 -30.09597,-11.27404 -5.01602,-7.53594 -7.03201,-18.07195 -6.02402,-31.62597 l 6.02402,-90.28197 c 0,-1.51199 0.49199,-3.51597 1.49998,-6.02399 0.98398,-2.50801 1.50002,-4.26601 1.50002,-5.26203 0,-4.01997 -4.26605,-12.04803 -12.78604,-24.08399 -1.488,-0.49199 -9.29398,-2.262 -23.32201,-5.27405 -8.54397,-2.00398 -25.34997,-5.50797 -50.41194,-10.53597 -34.62607,-6.504 -51.92403,-34.34998 -51.92403,-83.51995 0,-73.242 30.10798,-134.189985 90.30599,-182.850028 2.48402,13.548018 6.76201,31.596051 12.77399,54.174058 4.52403,1.01994 14.31,3.26996 29.34599,6.77396 3.02402,1.00803 18.31807,6.52798 45.91203,16.55999 -14.06399,-8.53196 -32.35797,-22.31401 -54.93601,-41.387988 -8.532,-10.031979 -12.79798,-26.825973 -12.79798,-50.399998 0,-5.519987 9.53999,-12.048002 28.608,-19.58398 17.04,-7.0200025 29.84999,-11.0160196 38.37601,-12.0360252 27.084,-3.4919859 47.90397,-5.2740099 62.45998,-5.2740099 62.69401,0 113.34599,16.0680401 151.96798,48.1739941 -12.52798,14.556047 -34.10399,30.084059 -64.69799,46.638014 12.04804,0.504031 29.60402,-4.241994 52.67401,-14.297959 23.06399,-10.020035 32.84999,-15.048069 29.346,-15.048069 4.00799,0 12.048,8.040009 24.08399,24.084028 9.02402,12.035993 16.29,22.842003 21.82199,32.345993 16.04402,28.608 26.82601,59.44804 32.35801,92.55601 0,11.55602 0.24591,19.83003 0.75,24.83404 v 6.02395 h 0.0101 z m -288.18596,13.54805 c 0,-21.56407 -9.40798,-42.01202 -28.218,-61.33805 -18.82203,-19.31398 -39.01203,-28.95599 -60.576,-28.95599 -19.06804,0 -35.86203,8.08801 -50.41201,24.23402 -14.55598,16.15802 -21.82199,34.09199 -21.82199,53.77799 0,17.154 8.27398,28.27798 24.83397,33.31802 10.53601,3.03596 25.31401,4.80598 44.38802,5.29796 h 41.38799 c 33.58799,0.50403 50.41802,-8.27397 50.41802,-26.33395 z m 82.00799,93.31793 V 328.4718 c -3.50403,-6.51604 -7.02,-13.29007 -10.52403,-20.32205 -3.01198,-10.04398 -8.53197,-24.08396 -16.55996,-42.14997 l -8.28602,88.04399 c 0,7.03198 -1.49998,10.53601 -4.51199,10.53601 -2.00402,0 -3.504,-0.49203 -4.512,-1.48801 -3.516,-53.17801 -5.27401,-76.25397 -5.27401,-69.24605 v -26.32194 c -1.00799,-1.524 -2.24999,-2.27398 -3.75004,-2.27398 -17.06395,17.58 -25.58394,45.91193 -25.58394,85.03195 0,21.57598 1.97999,34.86601 6.01198,39.88797 4.02,-0.99598 8.53199,-2.75398 13.54798,-5.262 2.00401,-1.00796 7.77004,-1.51199 17.32205,-1.51199 9.50399,0 21.05997,3.01204 34.59598,9.02402 5.01599,0 7.524,-13.53601 7.524,-40.614 z M 692.91883,246.95579 c 0,-20.202 -7.524,-38.25 -22.572,-54.15 -15.05998,-15.88802 -32.36998,-23.85003 -51.91199,-23.85003 -21.07202,0 -40.76996,9.64201 -59.07599,28.956 -18.31803,19.31401 -27.46798,39.50401 -27.46798,60.57606 0,17.56799 8.51995,26.33395 25.58394,26.33395 h 86.53203 c 32.59801,-0.49198 48.91199,-13.11598 48.91199,-37.86598 z"
       inkscape:connector-curvature="0"
       id="path145"
       style="fill:#0d0f0f" />
  </g>
</svg>
