<?xml version="1.0" encoding="utf-8"?>
<!-- Generator: Adobe Illustrator 13.0.0, SVG Export Plug-In . SVG Version: 6.00 Build 14948)  -->
<!DOCTYPE svg PUBLIC "-//W3C//DTD SVG 1.1//EN" "http://www.w3.org/Graphics/SVG/1.1/DTD/svg11.dtd">
<svg version="1.1"
	 id="Layer_1" xmlns:dc="http://purl.org/dc/elements/1.1/" xmlns:cc="http://creativecommons.org/ns#" xmlns:svg="http://www.w3.org/2000/svg" xmlns:inkscape="http://www.inkscape.org/namespaces/inkscape" xmlns:rdf="http://www.w3.org/1999/02/22-rdf-syntax-ns#"
	 xmlns="http://www.w3.org/2000/svg" xmlns:xlink="http://www.w3.org/1999/xlink" x="0px" y="0px" width="600px" height="320.004px"
	 viewBox="0 0 600 320.004" enable-background="new 0 0 600 320.004" xml:space="preserve">
<g id="g3" transform="matrix(6.4000683,0,0,6.4000683,0,-2.4512262)">
	<g id="g5">
		<path id="path7" inkscape:connector-curvature="0" d="M6.229,0.383C2.267,7.742,0,16.279,0,25.383s2.267,17.641,6.229,25H87.52
			c3.962-7.359,6.229-15.896,6.229-25s-2.268-17.641-6.229-25H6.229z"/>
	</g>
	<path id="path9" inkscape:connector-curvature="0" fill="#FFFFFF" d="M83.742,6.32c2.607,5.764,4.07,12.23,4.07,19.063
		c0,6.957-1.519,13.533-4.216,19.375H10.153C7.456,38.916,5.938,32.34,5.938,25.383c0-6.832,1.463-13.299,4.07-19.063H83.742
		 M85.657,3.352h-1.915H10.008H8.093l-0.79,1.745c-2.876,6.356-4.334,13.182-4.334,20.286c0,7.23,1.511,14.168,4.489,20.619
		l0.796,1.725h1.899h73.443h1.899l0.796-1.725c2.979-6.451,4.489-13.389,4.489-20.619c0-7.104-1.458-13.93-4.334-20.287
		L85.657,3.352L85.657,3.352z"/>
	<path fill="#FFFFFF" d="M6.563,38.508c1.957-1.534,3.268-3.605,4.367-6.656c1.021-2.83,1.714-5.56,3-8.164
		c0.325-0.658,1.114-1.177,1.969-0.766c0.603,0.29,1.202,0.622,1.862,0.924c0.694,0.318,0.838,0.92,0.521,1.662
		c-0.916,2.139-2.053,4.186-2.786,6.385c-0.729,2.188-0.834,4.74,1.744,5.418v2.031c-4.81-0.582-7.691,0.107-9.516,1.666
		L6.563,38.508z"/>
	<path fill="#FFFFFF" d="M13.698,12.467c2.513,0.313,4.361,0.611,3.463,2.941c-0.489,1.271-1.018,2.46-1.563,3.621
		c-0.31,0.66-0.241,1.393,0.521,1.9c0.511,0.341,1.615,0.896,2.188,1.119c0.768,0.3,1.242-0.012,1.484-0.572
		c0.178-0.412,0.58-1.214,0.781-1.615c0.378-0.752,1.04-0.59,1.51,0.078c2.987,4.255,5.812,10.195,7.578,17.293
		c0.489,1.965,0.469,3.568-0.13,4.557c0.862,0.641,1.828,1.088,2.891,1.354c1.253-2.354,3.429-4.211,6.38-5.65
		c-0.605-2.418-1.382-4.801-2.396-7.135c-1.021-3.287-0.403-5.002,0.625-6.303c0.281-0.355,0.287-0.826,0-1.279
		c-0.55-0.867-1.15-1.557-1.771-2.08c-0.437-0.369-1.01-0.446-1.484,0.025c-0.28,0.279-0.524,0.594-0.859,0.834
		c-3.386-4.01-6.276-8.307-7.344-11.328L15.156,9.836C14.453,10.578,13.906,11.477,13.698,12.467z"/>
	<path fill="#FFFFFF" d="M39.022,13.551c0.613,0.529,0.626,1.104,0.224,1.742c-0.782,1.244-1.538,2.238-2.397,2.98
		c-0.448,0.387-0.379,1.041-0.104,1.563c0.603,1.141,1.534,1.859,2.474,2.344c0.777-0.777,1.555-1.043,2.005-0.182
		c1.659,3.17,2.899,6.384,4.401,9.348c1.313,2.592,0.973,4.377-0.495,5.574c-1.025,0.836-2.014,1.528-2.813,2.344
		c0.672,0.698,1.382,1.367,2.136,2.004c3.446-2.811,8.671-2.659,15.026-0.625c0.246-0.754,0.577-1.483,0.989-2.188
		c-2.227-1.998-4.55-2.482-5.364-4.426c-0.431-1.028-0.645-3.108-1.17-4.433c-1.721-4.345-3.336-7.599-6.018-13.12
		c-1.203-2.477-0.932-4.885-0.313-6.225c-0.898-0.383-1.595-0.844-2.109-1.373c-1.198,1.191-5.964,1.217-8.444,0
		c-0.576,0.988-1.156,1.755-1.738,2.461C36.864,11.996,38.104,12.758,39.022,13.551L39.022,13.551z"/>
</g>
<g id="Layer_2">
	<path fill="#FFFFFF" d="M423.75,54.658l-5.25-0.031L367,83.752l0.042,4.75h22.208v109l-22,7.25v5.5h78.25v-5.583
		c0,0-18.708-2.084-21.75-21.667"/>
</g>
<g id="Layer_3">
	<path fill="#FFFFFF" d="M462.5,57.168H524l9.554-11.167l3.446-0.25l-0.25,37.417h-58.917c0,0-0.166,24.667,0,22.667
		c70.834,6.833,68.167,58.167,67.667,57.333c-5.5,57.166-52.833,49.333-55.667,49.333c-9,0.333-34.583-4.751-41.083-15.584
		c2.5-3.5,12.583-18.083,19.75-28.416c1.5,29.667,29.25,27.25,29.25,27.25s18.75,2.917,20.25-25.583
		c-0.667-15-25.833-32.5-44.833-32.5c-10.5,0.167-18.667,0.167-18.667,0.167L462.5,57.168z"/>
</g>
</svg>
