<?xml version="1.0" encoding="UTF-8" standalone="no"?>
<!-- Created with Inkscape (http://www.inkscape.org/) -->

<svg
   xmlns:dc="http://purl.org/dc/elements/1.1/"
   xmlns:cc="http://creativecommons.org/ns#"
   xmlns:rdf="http://www.w3.org/1999/02/22-rdf-syntax-ns#"
   xmlns:svg="http://www.w3.org/2000/svg"
   xmlns="http://www.w3.org/2000/svg"
   xmlns:inkscape="http://www.inkscape.org/namespaces/inkscape"
   version="1.1"
   width="600"
   height="600"
   id="svg4396">
  <defs
     id="defs4398" />
  <metadata
     id="metadata4401">
    <rdf:RDF>
      <cc:Work
         rdf:about="">
        <dc:format>image/svg+xml</dc:format>
        <dc:type
           rdf:resource="http://purl.org/dc/dcmitype/StillImage" />
        <dc:title />
      </cc:Work>
    </rdf:RDF>
  </metadata>
  <g
     transform="translate(-464.8627,181.07192)"
     id="layer1">
    <g
       transform="matrix(6,0,0,6,1724.8627,-181.07192)"
       id="g135">
      <circle
         cx="-160"
         cy="50"
         r="50"
         id="circle137"
         style="fill:#e49977" />
    </g>
    <path
       d="m 1016.6528,218.63007 c -22.41596,53.47202 -66.95998,80.20201 -133.64998,80.20201 -12.22202,0 -25.47602,1.52397 -39.72603,4.57201 -21.38399,4.58399 -32.07593,10.96798 -32.07593,19.11595 0,2.54404 1.76994,5.46004 5.34594,8.77801 3.552,3.31803 6.62403,4.95603 9.162,4.95603 -12.738,0 -4.07999,0.3842 25.95603,1.14602 30.04799,0.76198 48.888,1.14598 56.53197,1.14598 -44.29798,25.95599 -118.39201,37.91402 -222.25799,35.88598 -34.12798,-0.50399 -63.39601,-15.52801 -87.83397,-45.05999 -23.95202,-28.01399 -35.90401,-59.328 -35.90401,-93.94801 0,-36.648 12.34203,-67.84798 37.05599,-93.57001 24.678,-25.69197 55.37399,-38.56197 92.02803,-38.56197 8.14196,0 18.95998,1.78199 32.45999,5.346 13.48797,3.56398 22.536,5.34601 27.10798,5.34601 18.834,0 42.26998,-7.75797 70.27799,-23.298027 27.99601,-15.527978 41.24998,-23.297989 39.72601,-23.297989 -5.10003,53.472026 -22.92003,89.376026 -53.484,107.687986 -21.88799,12.73803 -32.83802,25.20602 -32.83802,37.41603 0,7.638 4.58399,13.75796 13.74599,18.34202 7.12803,3.56998 15.012,5.35194 23.67001,5.35194 13.24199,0 26.22602,-8.13599 38.96402,-24.42595 12.71397,-16.30805 18.32997,-31.06203 16.80597,-44.316 -1.52397,-15.27002 -0.50397,-33.61801 3.06001,-54.98402 1.008,-6.12003 4.69802,-13.620011 11.064,-22.523991 6.36601,-8.916025 12.09601,-14.388004 17.19003,-16.428015 0,4.571976 -1.65004,12.222018 -4.96805,22.907989 -3.318,10.686007 -4.956,18.600007 -4.956,23.682047 0,11.20198 3.04804,19.85395 9.16207,25.956 9.14995,-3.55204 17.29795,-15.01204 24.44397,-34.37403 6.09597,-14.754014 9.65398,-29.01601 10.68597,-42.761997 C 912.00682,67.898077 891.5108,58.232078 871.91481,39.89006 852.30681,21.548076 842.5148,1.7001039 842.5148,-19.677944 c 0,-3.563981 0.49202,-7.127961 1.53598,-10.697947 3.04807,4.583953 7.62602,11.717953 13.73401,21.3839517 8.65804,12.7260156 15.282,19.0919923 19.878,19.0919923 6.09605,0 9.15002,-6.3659767 9.15002,-19.0919923 0,-16.2899627 -4.33801,-31.0559897 -12.984,-44.2980127 -9.67801,-15.785966 -22.15801,-23.681951 -37.428,-23.681951 -7.134,0 -17.82598,3.822002 -32.06399,11.46 -14.274,7.625954 -27.25804,11.459966 -38.95201,11.459966 -3.57602,0 -19.374,-4.595997 -47.37,-13.757965 49.37999,-8.130018 74.08798,-15.516034 74.08798,-22.146037 0,-17.310001 -33.86999,-29.027951 -101.57993,-35.130011 -6.63007,-0.50396 -18.84604,-1.52397 -36.66602,-3.05995 2.028,-2.544 16.54795,-5.346 43.54798,-8.40001 22.90798,-2.532 38.95197,-3.822 48.108,-3.822 121.18199,0 198.07194,58.829969 230.658,176.448013 5.604,-4.638033 8.412,-12.396034 8.412,-23.226028 0,-13.9440239 -4.08002,-31.500003 -12.22202,-52.662032 -3.07199,-8.249988 -7.908,-20.645988 -14.51998,-37.157974 41.74196,53.202027 62.63398,103.620006 62.63398,151.194021 0,25.068003 -5.874,47.83797 -17.58,68.28599 -7.62001,13.81798 -21.89998,31.46397 -42.76202,52.95602 -20.87999,21.47997 -35.14195,38.11196 -42.78596,49.87802 28.00799,-7.62602 46.35,-13.488 55.00797,-17.56806 19.33804,-8.63995 36.90001,-21.63597 52.69801,-38.95197 0,6.636 -2.802,16.572 -8.4,29.80198 z M 683.64085,-81.519925 c 0,9.149991 -5.10003,15.012003 -15.27003,17.555979 l -19.86599,3.060016 c -7.134,3.564015 -17.56802,17.568023 -31.31404,42.000015 -1.53598,-7.626021 -3.82197,-18.317964 -6.87598,-32.076029 -4.58395,0.516042 -12.20997,4.58402 -22.90802,12.222018 -4.58395,3.564015 -11.97598,8.903981 -22.15798,16.032009 3.07202,-18.330007 13.24202,-36.88801 30.56403,-55.758012 18.32998,-20.862006 36.14998,-31.302001 53.45998,-31.302001 22.90803,0 34.36803,9.43203 34.36803,28.266005 z m 132.89997,70.254042 c 0,8.6579696 -4.70999,15.9239494 -14.13001,21.773985 -9.42002,5.86198 -18.71401,8.78995 -27.87601,8.78995 -12.22195,0 -23.17795,-6.87598 -32.83794,-20.6279726 -11.73003,-16.8060044 -23.68205,-27.7499964 -35.904,-32.8620344 2.54397,-2.531965 5.60395,-3.809958 9.17394,-3.809958 4.58402,0 12.33004,3.563981 23.28605,10.686005 10.94395,7.134 17.93994,10.697981 21.01193,10.697981 2.54401,0 6.73806,-3.563981 12.60004,-10.697981 5.85,-7.128029 12.34199,-10.686005 19.47599,-10.686005 16.8,0.0067 25.20001,8.921996 25.20001,26.73603 z"
       inkscape:connector-curvature="0"
       id="path139"
       style="fill:#0d0f0f" />
  </g>
</svg>
