<?xml version="1.0" encoding="UTF-8" standalone="no"?>
<!-- Created with Inkscape (http://www.inkscape.org/) -->

<svg
   xmlns:dc="http://purl.org/dc/elements/1.1/"
   xmlns:cc="http://creativecommons.org/ns#"
   xmlns:rdf="http://www.w3.org/1999/02/22-rdf-syntax-ns#"
   xmlns:svg="http://www.w3.org/2000/svg"
   xmlns="http://www.w3.org/2000/svg"
   xmlns:inkscape="http://www.inkscape.org/namespaces/inkscape"
   version="1.1"
   width="600"
   height="600"
   id="svg4415">
  <defs
     id="defs4417" />
  <metadata
     id="metadata4420">
    <rdf:RDF>
      <cc:Work
         rdf:about="">
        <dc:format>image/svg+xml</dc:format>
        <dc:type
           rdf:resource="http://purl.org/dc/dcmitype/StillImage" />
        <dc:title />
      </cc:Work>
    </rdf:RDF>
  </metadata>
  <g
     transform="translate(-616.2912,183.92906)"
     id="layer1">
    <g
       transform="matrix(6,0,0,6,1246.2912,-183.92906)"
       id="g129">
      <path
         d="M -5,49.998 C -5,77.613 -27.385,100 -55.002,100 -82.615,100 -105,77.613 -105,49.998 -105,22.385 -82.615,0 -55.002,0 -27.385,0 -5,22.385 -5,49.998 z"
         inkscape:connector-curvature="0"
         id="path131"
         style="fill:#a3c095" />
    </g>
    <path
       d="m 1178.8634,153.42091 c 0,10.00803 -3.87,18.98404 -11.616,26.98805 -7.734,7.992 -16.62,11.98795 -26.616,11.98795 -15.972,0 -27.738,-7.49998 -35.214,-22.48797 l -35.226,-1.49998 c -7.512,0 -22.254,3.25795 -44.226,9.75001 -23.484,6.49198 -36.98402,11.74197 -40.476,15.73799 -5.496,5.98795 -9.98401,19.99199 -13.488,41.97596 -3.01201,17.98801 -4.48801,31.23004 -4.48801,39.726 0,13.47602 2.11201,23.35801 6.36598,29.60398 4.25404,6.24608 12.99601,11.49603 26.22603,15.73803 13.23,4.24202 21.366,6.62399 24.366,7.12199 1.992,0 5.238,-0.24591 9.75,-0.74998 h 8.988 c 6.48,0 13.23,1.02001 20.238,2.99997 9.996,3.00003 14.25,6.99601 12.75,12.00003 -7.008,-0.99599 -19.242,0.50399 -36.726,4.49998 l 20.976,10.48803 c 0,6 -8.496,8.98795 -25.476,8.98795 -4.512,0 -10.626,-0.99595 -18.378,-2.98795 -7.746,-2.01602 -12.87,-3.00003 -15.354,-3.00003 h -9.75 c -0.49202,4.99203 -2.00398,12.48004 -4.50002,22.47602 -8.50801,-0.504 -18.47997,-5.50805 -29.97596,-14.98802 -11.50805,-9.48001 -18.73806,-14.23797 -21.72605,-14.23797 -3.01201,0 -7.26598,4.75796 -12.75,14.23797 -5.50798,9.47997 -8.24999,15.98404 -8.24999,19.488 -6.49202,-3.50396 -11.97601,-10.00803 -16.50001,-19.488 -1.992,-6.50399 -4.24199,-12.99598 -6.72602,-19.488 -4.99197,0.50397 -14.24998,11.00401 -27.72597,31.48799 h -3.76202 c -0.99599,-1.51195 -4.76998,-11.99999 -11.23798,-31.48799 -15.49198,-4.99197 -29.976,-7.488 -43.47601,-7.488 -6.49201,0 -16.48796,1.50002 -29.97596,4.48804 l -20.97601,-1.48801 c 2.98799,-3.00003 11.73,-8.74204 26.22596,-17.23801 16.97999,-9.99601 29.97604,-14.99999 38.976,-14.99999 1.47603,0 3.46803,0.25799 6,0.75001 2.48402,0.51597 4.50001,0.74994 5.99999,0.74994 3.46804,0 9.10803,-1.872 16.85402,-5.62795 7.74599,-3.73799 12.23402,-7.11601 13.47602,-10.10404 1.26598,-3.02398 1.89599,-10.75796 1.89599,-23.24994 0,-28.47605 -7.50002,-49.71004 -22.50001,-63.70204 -13.00799,-12.49195 -34.47601,-21.48 -64.46399,-26.98801 -7.992,28.47601 -30.48,42.73804 -67.44,42.73804 -12,0 -23.98801,-7.24202 -35.976,-21.73802 -11.97601,-14.496 -17.976,-27.73799 -17.976,-39.726 0,-18.49202 7.722,-33.72604 23.21401,-45.73798 -12.48,-12.97203 -18.72601,-26.214017 -18.72601,-39.702017 0,-12.504026 3.85803,-23.484015 11.616,-32.999985 7.74599,-9.46803 17.86197,-14.976007 30.35399,-16.488033 -0.99599,-15.971991 4.24199,-26.9760008 15.73799,-32.9759981 -5.496,-5.4839894 -8.23798,-15.2219829 -8.23798,-29.2139809 0,-16.487999 5.49597,-30.23402 16.488,-41.22602 10.97999,-10.991966 24.72598,-16.499976 41.21401,-16.499976 17.99999,0 32.742,6.269995 44.22599,18.749967 14.49599,-49.463967 45.726,-74.202017 93.678,-74.202017 24.984,0 46.96803,9.99605 65.96401,29.98804 6.99601,7.48801 10.488,11.49597 10.488,11.97601 -6,0 -2.98802,-1.128 9,-3.36605 11.97601,-2.24995 20.71801,-3.37795 26.23801,-3.37795 19.476,0 36.714,7.24199 51.714,21.737988 12.984,12.99598 21.984,29.472002 26.988,49.464031 3.48,0.503964 8.988,1.99197 16.488,4.487937 10.98,5.520054 16.488,14.988017 16.488,28.4880609 0,2.5079443 -2.016,7.2539695 -6,14.2379414 31.968,17.9880147 47.964,42.9720127 47.964,74.9520257 0,8.987986 -3.492,21.503986 -10.488,37.481986 12.996,7.482 19.476,18.48601 19.476,32.96999 z m -308.802,32.976 v -9.73796 c 0,-11.48402 -5.61601,-21.984 -16.85402,-31.47598 -11.25002,-9.49205 -22.61997,-14.23801 -34.10399,-14.23801 -14.00401,0 -26.976,3.24597 -38.976,9.72595 26.47798,-1.48794 56.46599,13.75806 89.93401,45.726 z M 856.58537,93.462941 c -7.49998,-8.508009 -13.992,-17.250017 -19.49997,-26.238037 -20.98805,5.496034 -31.47602,11.742008 -31.47602,18.726013 6,-0.479943 14.74201,0.630006 26.22599,3.384027 11.48402,2.753989 19.74599,4.127997 24.75,4.127997 z m 45.726,-23.237971 V 37.248938 C 890.31138,35.256935 883.0454,34.248906 880.57338,34.248906 v 11.23801 l 21.73799,24.738054 z m 97.42801,-20.988047 c -5.99999,-2.495968 -17.25001,-7.500014 -33.726,-14.988017 V 98.70092 c 23.47204,-13.499944 34.71002,-29.98801 33.726,-49.463997 z m 41.20202,88.445997 -16.476,-20.23797 c -9.984,7.00199 -20.112,14.12398 -30.36604,21.366 -10.25397,7.24196 -19.11598,15.37799 -26.59197,24.36 22.48199,-12.01204 46.97401,-20.48402 73.43401,-25.48803 z"
       inkscape:connector-curvature="0"
       id="path133"
       style="fill:#0d0f0f" />
  </g>
</svg>
