<?xml version="1.0" encoding="UTF-8" standalone="no"?>
<!-- Created with Inkscape (http://www.inkscape.org/) -->

<svg
   xmlns:dc="http://purl.org/dc/elements/1.1/"
   xmlns:cc="http://creativecommons.org/ns#"
   xmlns:rdf="http://www.w3.org/1999/02/22-rdf-syntax-ns#"
   xmlns:svg="http://www.w3.org/2000/svg"
   xmlns="http://www.w3.org/2000/svg"
   xmlns:inkscape="http://www.inkscape.org/namespaces/inkscape"
   version="1.1"
   width="600"
   height="600"
   id="svg5461">
  <defs
     id="defs5463" />
  <metadata
     id="metadata5466">
    <rdf:RDF>
      <cc:Work
         rdf:about="">
        <dc:format>image/svg+xml</dc:format>
        <dc:type
           rdf:resource="http://purl.org/dc/dcmitype/StillImage" />
        <dc:title />
      </cc:Work>
    </rdf:RDF>
  </metadata>
  <g
     transform="translate(55.1373,192.50054)"
     id="layer1">
    <circle
       cx="-265"
       cy="365.06799"
       r="50"
       transform="matrix(6,0,0,6,1834.8627,-2082.9085)"
       id="circle437"
       style="fill:#f7f4d8" />
    <path
       d="m 152.24682,274.37755 c 10.04398,-11.778 36.43799,-10.89601 39.93598,12.83401 2.12401,14.46 6,60.654 10.84801,80.07598 2.56199,10.27802 7.54198,18.93602 14.034,19.36202 11.53199,0.738 39.684,-22.50001 45.684,-33.39602 10.63799,-19.37401 18.34798,-41.26199 25.62,-64.71001 2.85,-9.13798 12.59997,-9.58799 17.96399,-0.73799 9.99001,16.52399 29.346,44.58002 45.74999,64.77002 4.332,5.32198 9.546,4.722 10.758,-3.774 4.38602,-30.73802 11.04001,-67.06802 23.154,-99.912 4.00799,-10.85402 15.318,-12.07202 24.18601,-6.666 5.01599,3.04797 21.17401,11.12398 27.282,13.00799 10.482,3.24601 19.39198,3.94801 32.85601,-6.06002 10.332,-7.69798 11.12401,-15.19799 5.72399,-23.43597 -11.08199,-16.92 -26.19001,-29.96402 -38.24998,-47.46002 -6.64802,-9.63 -5.98803,-16.51198 2.44198,-21.50399 21.666,-12.834 40.57802,-27.50398 57.87601,-41.72998 6.36,-5.226 10.962,-13.00799 12.42002,-26.273999 2.106,-19.043985 3.35997,-28.536002 -4.99801,-30.88798 -8.20201,-2.346006 -13.18801,3.539994 -47.89804,12.52798 -8.24398,2.124016 -17.82597,3.420024 -21.06598,-1.007996 -3.32401,-4.547989 -1.12199,-13.229979 5.98799,-21.071985 10.65001,-11.742007 24.53403,-25.662011 35.37603,-41.9039992 5.19598,-7.7820213 11.62798,-20.4599958 6.52798,-28.0680018 -5.574,-8.310006 -19.788,-3.714009 -26.48399,-0.762018 -9.32401,4.10401 -27.65402,8.027998 -38.81403,9.642012 -14.52598,2.112006 -25.39197,1.54799 -29.82597,-3.107991 -3.94801,-4.146012 -5.17202,-14.064027 -0.88802,-24.948 6.32401,-16.080017 17.742,-30.822023 27.16202,-38.694021 8.376,-6.995982 7.64998,-11.087982 1.22398,-16.523997 -5.148,-4.349984 -20.87398,-7.302014 -32.83798,-3.677978 -17.622,5.345971 -34.36802,14.111967 -49.99802,25.865985 -8.82001,6.623997 -20.67001,9.923986 -30.04799,8.310006 -7.69802,-1.326001 -16.02,-7.608006 -18.18599,-20.178021 -4.80601,-27.959976 -11.10001,-56.141976 -18.18,-71.951996 -4.326,-9.64198 -7.62002,-13.14601 -13.524,-13.09199 -5.766,0.0721 -9.42599,4.66198 -14.41799,14.19 -7.93202,15.162 -16.08002,45.71399 -22.17003,70.853986 -3.55197,14.634013 -10.07398,20.423998 -21.62399,27.384016 -6.432,3.875981 -12.52798,1.338011 -15.85799,-6.876013 -3.31801,-8.165983 -14.79002,-35.591999 -18.516,-46.793979 -2.44199,-7.31402 -5.43602,-7.758 -10.206,-0.774 -10.86599,15.923986 -28.932,46.241978 -36.81001,62.874001 -4.65001,9.821999 -5.64599,18.984 0.43801,25.169989 8.13599,8.261999 11.304,12.377985 6.65399,17.1779895 -3.21598,3.3300143 -17.47798,1.1160211 -33.113983,-2.4359829 -10.356022,-2.3460066 -27.983996,-5.0999946 -44.064013,0 C 31.100822,-5.7744065 22.598818,1.0115963 21.308815,9.6695663 20.276799,16.617574 33.944821,36.249595 41.966814,43.011577 c 5.934007,5.004013 8.675985,9.071991 9.282003,13.416006 1.217975,8.873988 0,20.29799 -4.992002,27.713999 -2.628014,3.900001 -10.980022,3.995983 -27.720003,4.992002 -37.518016,2.23798 -53.909999,9.377985 -55.775995,36.035976 -1.338011,19.134 12.594003,30.53999 33.7079907,25.49998 9.3899961,-2.23798 17.8560023,-3.10799 28.3860063,-0.888 10.313986,2.178 28.932007,7.65001 29.051976,17.63402 0.132181,12.40797 -19.301972,15.30598 -38.063982,22.27798 -7.4880031,2.77801 -5.519987,9.99601 0.809993,11.09999 6.21001,1.092 76.530008,19.54802 89.670009,35.69402 7.27799,8.93998 -1.03201,28.69801 -5.856,40.146 -4.728016,11.23801 -2.327995,44.13 1.998,45.23398 4.512,1.15802 14.74798,-9.198 21.77999,-16.57197 8.97601,-9.39003 18.75601,-20.08801 28.00202,-30.91801 z"
       inkscape:connector-curvature="0"
       id="path439"
       style="fill:#0d0f0f" />
    <path
       d="m 364.19081,107.49959 c 0,65.89194 -53.41801,119.30995 -119.30401,119.30995 -65.92801,0 -119.34599,-53.39999 -119.34599,-119.30995 0,-65.880003 53.41201,-119.298015 119.34599,-119.298015 65.87999,0.0067 119.30401,53.418012 119.30401,119.298015 z"
       inkscape:connector-curvature="0"
       id="path441"
       style="fill:none;stroke:#f7f4d8;stroke-width:14.99999905;stroke-miterlimit:10" />
  </g>
</svg>
