<?xml version="1.0" encoding="utf-8"?>
<!-- Generator: Adobe Illustrator 13.0.0, SVG Export Plug-In . SVG Version: 6.00 Build 14948)  -->
<!DOCTYPE svg PUBLIC "-//W3C//DTD SVG 1.1//EN" "http://www.w3.org/Graphics/SVG/1.1/DTD/svg11.dtd">
<svg version="1.1"
	 id="svg4241" xmlns:dc="http://purl.org/dc/elements/1.1/" xmlns:cc="http://creativecommons.org/ns#" xmlns:svg="http://www.w3.org/2000/svg" xmlns:inkscape="http://www.inkscape.org/namespaces/inkscape" xmlns:rdf="http://www.w3.org/1999/02/22-rdf-syntax-ns#"
	 xmlns="http://www.w3.org/2000/svg" xmlns:xlink="http://www.w3.org/1999/xlink" x="0px" y="0px" width="600px" height="317.955px"
	 viewBox="0 0 600 317.955" enable-background="new 0 0 600 317.955" xml:space="preserve">
<path id="path284" inkscape:connector-curvature="0" fill="#FFFFFF" d="M576.637,28.303l-10.172,12.369
	c-2.917,3.425-71.649,82.966-162.406,82.966c-92.732,0-144.804-31.652-147-32.991c0,0-2.243-1.477-3.462-2.271
	c-2.308,0-71.142,0-71.142,0V71.355c0-6.277-2.271-11.75-6.388-15.508c-4.689-4.246-10.099-4.828-12.867-4.828h-12.729l-1.228-1.625
	c-5.372-7.062-12.692-10.818-21.166-10.818c-18.462,0-29.493,17.095-29.493,33.646c0,3.896,1.007,8.003,1.985,11.501l1.439,5.16
	H83.364v-8.981c-1.652-1.44-4.754-4.145-4.754-4.145c-8.151-7.182-22.717-10.385-35.373-0.508c0,0-3.498,2.705-5.372,4.145v6.711
	l-2.566,1.006c-10.126,4.08-18.175,10.496-23.252,18.609c-2.631,4.219-4.727,9.046-6.064,14.059
	c-2.16,7.938-2.557,15.794-2.668,23.077c0-0.037-0.037,1.698-0.037,1.698c0,9.48,1.413,17.271,4.366,24.342l2.529,5.335
	l-2.455,5.077c-3.351,8.114-5.123,17.704-5.123,28.311c0,11.898,2.594,22.93,7.717,32.815l1.117,2.197l-1.44,2.021
	c-6.203,8.649-9.554,18.064-9.95,27.904l0,0L0,274.616c0,13.81,5.732,24.554,17.021,31.874c13.19,8.548,28.624,10.855,37.818,11.465
	c-4.828-6.739-11.751-17.778-16.043-31.515l-0.868-6.378c0-5.521,2.133-10.569,6.314-15.037v0.103
	c0.646-0.859,1.477-1.727,2.455-2.77c0.102-0.074,5.907-5.99,5.907-5.99c3.102-2.742,7.938-6.961,11.216-13.127
	c3.286-6.166,4.468-12.729,5.225-18.313l0.868-14.964c-0.037-7.79-0.97-14.963-2.954-21.637c-1.698-5.584-4.329-10.818-8.077-16.043
	c0,0,0.176,0.102,0.213,0.139c-0.359-0.396-0.684-0.72-1.117-1.255l-1.588-1.985l0.692-2.777l1.477-3.213l9.406,1.338
	c0,0,15.397,0,21.129-0.036v-15.572h51.997v19.976c0,3.821,0.941,7.319,2.742,10.385c3.425,5.769,9.479,9.082,16.588,9.082h17.843
	l-2.557,17.087c0,6.276,1.477,11.575,4.402,15.692c3.96,5.621,10.163,8.723,17.483,8.723c7.394,0,13.671-3.139,17.594-8.797
	c2.853-4.08,4.256-9.156,4.256-15.185c0-4.791-0.896-10.237-2.631-15.72l-0.213-0.609l0.11-20.16c0-5.262-2.455-9.988-7.319-14.021
	l-8.622-7.219h14.788l1.043,0.656c57.406,37.754,128.003,49.717,177.147,53.113c14.898,1.006,27.914,0.97,39.775-0.11
	c1.08-0.037,90.72-5.262,139.329-87.692C597.876,71.716,600,17.347,600,0.066V0C594.701,6.452,576.637,28.302,576.637,28.303"/>
<path d="M35.225,182.198c0,0-9.369,2.594-9.369,20.77c0,18.139,5.188,33.711,10.92,33.711c5.704,0,10.348-10.884,10.348-21.268
	C47.123,205.026,44.53,182.198,35.225,182.198 M33.646,119.42c0,0-8.298,4.689-8.298,19.726c0,15.037,3.102,25.421,7.791,25.421
	c4.652,0,6.738-18.139,6.738-26.465C39.877,129.804,38.834,119.42,33.646,119.42 M128.077,59.244c0,0-8.29,1.043-8.29,13.486
	c0,12.471,8.29,14.021,8.29,14.021s7.79-2.086,7.79-14.021S128.077,59.244,128.077,59.244 M156.092,110.623v17.631l7.791,4.689
	v-27.009L156.092,110.623z M27.766,296.503c0,0-14.565-4.439-13.809-23.4c0.757-18.793,15.535-29.178,15.535-29.178
	s-12.979-11.391-12.979-36.305c0-7.865,1.117-15.868,4.182-23.151c1.117-2.704,2.492-5.188,4.292-7.532
	c0.831-1.117,1.698-2.455,1.478-3.896c-0.249-1.551-1.764-2.528-2.705-3.683c-1.403-1.727-2.382-3.748-3.277-5.834
	c-2.667-6.461-3.359-13.486-3.249-20.409c0.111-6.563,0.471-13.348,2.197-19.689c0.941-3.572,2.455-7.145,4.439-10.311
	c5.013-7.976,13.237-13.163,22.283-15.295c0.249-0.037,5.659-1.006,5.659-0.683V86.244c9.341-7.283,17.63,0,17.63,0V99.73
	l2.604,3.102h79.901l3.609-4.652V78.961c0-2.345-1.984-2.594-1.984-2.594h-10.966c0,0-1.044,17.631-14.022,17.631
	c-12.987,0-16.079-15.037-16.079-21.775c0-6.748,4.145-19.726,15.572-19.726c11.391,0,13.661,12.48,13.661,12.48h21.425
	c0,0,5.372-0.544,5.372,6.378v30.942h80.944c0,0,53.944,35.298,154.579,35.298c100.643,0,173.262-88.2,173.262-88.2
	s-6.563,42.729-36.997,70.385l12.12-0.36c-28.385,30.979-47.059,25.098-47.059,25.098c6.239,6.203,15.212,4.828,15.212,4.828
	c-21.415,18.36-53.252,18-53.252,18c5.52,3.462,15.212,5.511,15.212,5.511c-23.936,10.744-40.2,13.199-50.474,12.877
	c-30.618-0.941-44.963-13.561-44.963-13.561c4.145,9.702,11.75,16.266,11.75,16.266c-124.504-12.48-178.993-54.231-178.993-54.231
	H170.88l-2.853,2.843v25.025c0,0-0.286,1.984,1.8,1.984h27.951c0,0,5.013,0.147,5.013,5.335v22.644c0,0,8.797,23.871-5.197,23.871
	c-14.021,0-5.188-24.877-5.188-24.877v-14.641c0-2.234-1.911-1.947-1.911-1.947h-30.073c-5.807,0-5.373-5.658-5.373-5.658v-30.148
	l-3.102-3.637h-76.8v15.572h-7.791c-11.936,0-13.993-16.08-13.993-16.08h-5.188c0.323,0-0.396,8.04-0.434,8.622
	c-0.434,4.68-0.471,9.406-1.874,13.948c-1.339,4.44-4.366,8.114-5.991,12.442c-0.969,2.558,0.435,3.536,2.382,4.828
	c1.375,0.941,2.594,2.308,3.684,3.535c3.6,4.145,6.092,9.194,7.643,14.428c1.727,5.807,2.372,11.898,2.372,17.918
	c0,4.255-0.176,8.621-0.72,12.877c-0.609,4.615-1.514,9.442-3.711,13.587c-2.021,3.821-5.16,6.638-8.363,9.452
	c-3.249,2.844-6.092,6.203-9.055,9.332C16.043,274.616,27.766,296.503,27.766,296.503 M225.434,128.18
	c6.056,3.72,55.136,36.313,155.483,49.579c0,0-4.329-6.592-2.096-17.77c0,0,11.326,6.701,20.917,10.385
	c6.701,2.557,17.271,6.738,32.594,7.246c5.88,0.175,15.212-0.905,28.089-5.013c-4.218-2.594-12.691-12.618-12.691-12.618
	s19.688-0.794,19.726-0.794c0.72,0,17.732-0.185,33.997-7.505l-0.249-0.535c-5.77-4.08-4.403-13.745-4.403-13.745
	c7.616,0.508,16.302-1.218,16.302-1.218c3.933-0.794,9.775-2.889,17.096-7.975c-5.807,0.185-11.649,0.36-11.649,0.36l16.292-14.815
	c11.29-10.274,18.933-22.865,24.231-34.33c-18.028,16.191-45.176,36.6-78.96,50.52l-0.582,0.25
	c-22.532,9.193-47.88,15.544-75.471,15.544c-13.413,0-25.884-0.656-37.644-1.735l-0.858-0.074
	c-69.701-6.452-109.763-28.302-118.348-33.462H201.6v7.828h10.708C212.308,118.304,218.687,124.036,225.434,128.18"/>
</svg>
