<?xml version="1.0" encoding="utf-8"?>
<!-- Generator: Adobe Illustrator 13.0.0, SVG Export Plug-In . SVG Version: 6.00 Build 14948)  -->
<!DOCTYPE svg PUBLIC "-//W3C//DTD SVG 1.1//EN" "http://www.w3.org/Graphics/SVG/1.1/DTD/svg11.dtd">
<svg version="1.1"
	 id="svg4637" xmlns:dc="http://purl.org/dc/elements/1.1/" xmlns:cc="http://creativecommons.org/ns#" xmlns:svg="http://www.w3.org/2000/svg" xmlns:inkscape="http://www.inkscape.org/namespaces/inkscape" xmlns:rdf="http://www.w3.org/1999/02/22-rdf-syntax-ns#"
	 xmlns="http://www.w3.org/2000/svg" xmlns:xlink="http://www.w3.org/1999/xlink" x="0px" y="0px" width="600px" height="509.122px"
	 viewBox="0 0 600 509.122" enable-background="new 0 0 600 509.122" xml:space="preserve">
<path id="path372" inkscape:connector-curvature="0" fill="#FFFFFF" d="M147.556,509.122H100.08v-274.2l22.618-63.385l18.85-19.894
	H97l-18.596-24.311L44.79,103.619L0,0h600l-44.842,103.721l-33.806,23.865l-19.041,24.056h-43.911l18.952,19.945l22.566,59.605
	v94.621l-47.832,24.857h-9.444l-41.812,26.652l-48.125,25.062h-18.799l-42.41,31.872l-48.621,25.303h-18.952l-42.447,31.922
	L147.556,509.122L147.556,509.122z"/>
<path id="path374" inkscape:connector-curvature="0" d="M486.949,122.316h-64.786c-2.291-4.977-3.933-8.604-3.933-8.604H181.769
	c0,0-1.743,3.78-3.933,8.604h-64.734l-11.532-14.472l22.821-23.369h351.218l22.821,23.369L486.949,122.316L486.949,122.316z
	 M433.249,167.705l19.194,20.238H147.556l19.144-20.238H433.249L433.249,167.705z M385.813,352.108v-84.717l9.597-12.83h29.083
	l9.598,12.83l0.051,53.992L385.813,352.108z M275.791,409.346V267.391l9.597-12.83h29.084l9.597,12.83l0.051,105.655
	L275.791,409.346L275.791,409.346z M165.808,466.573V267.391l9.598-12.83h29.032l9.648,12.83l0.051,162.83L165.808,466.573
	L165.808,466.573z M31.515,20.734l29.987,69.317l31.464,22.274l14.268,18.583h66.683l-14.472,31.922l-18.838,19.945l-19.792,52.146
	v253.517h21.676l27.887-14.51l46.636-35.053h20.836l42.563-22.172l46.585-35.002h20.632l42.805-22.325l46.189-29.39h10.399
	l32.163-16.75v-78.264l-19.741-52.147l-18.888-19.945l-14.473-31.973h66.225l14.727-18.583l31.464-22.185l29.986-69.406H31.515
	L31.515,20.734z"/>
</svg>
