<?xml version="1.0" encoding="UTF-8" standalone="no"?>
<!-- Created with Inkscape (http://www.inkscape.org/) -->

<svg
   xmlns:dc="http://purl.org/dc/elements/1.1/"
   xmlns:cc="http://creativecommons.org/ns#"
   xmlns:rdf="http://www.w3.org/1999/02/22-rdf-syntax-ns#"
   xmlns:svg="http://www.w3.org/2000/svg"
   xmlns="http://www.w3.org/2000/svg"
   xmlns:inkscape="http://www.inkscape.org/namespaces/inkscape"
   version="1.1"
   width="600"
   height="470.98535"
   id="svg5037">
  <defs
     id="defs5039" />
  <metadata
     id="metadata5042">
    <rdf:RDF>
      <cc:Work
         rdf:about="">
        <dc:format>image/svg+xml</dc:format>
        <dc:type
           rdf:resource="http://purl.org/dc/dcmitype/StillImage" />
        <dc:title />
      </cc:Work>
    </rdf:RDF>
  </metadata>
  <path
     d="m 442.05507,470.98534 -284.14546,0 L 129.52097,376.78827 0,99.16596 192.1267,159.97017 299.98234,0 407.83798,159.97017 600,99.16596 470.44371,376.78827 442.05507,470.98534 z"
     inkscape:connector-curvature="0"
     id="path474"
     style="fill:#ffffff;fill-opacity:1;fill-rule:nonzero;stroke:none" />
  <path
     d="m 333.13971,261.8914 c 0,35.70069 -14.84782,64.67806 -33.15737,64.67806 -18.30956,0 -33.11027,-28.97737 -33.11027,-64.67806 0,-35.68892 14.80071,-64.61919 33.11027,-64.61919 18.30955,0 33.15737,28.93027 33.15737,64.61919 m -180.7053,116.05079 295.09586,0 -20.87642,72.67303 -253.34302,0 -20.87642,-72.67303 z M 200.49846,184.02575 38.090939,132.60592 142.49661,356.37106 l 314.97145,0 L 561.87374,132.60592 399.46622,184.02575 300.02944,36.47781 200.49846,184.02575 z"
     inkscape:connector-curvature="0"
     id="path476"
     style="fill:#000000;fill-opacity:1;fill-rule:nonzero;stroke:none" />
</svg>
