<?xml version="1.0" encoding="UTF-8" standalone="no"?>
<!-- Created with Inkscape (http://www.inkscape.org/) -->

<svg
   xmlns:dc="http://purl.org/dc/elements/1.1/"
   xmlns:cc="http://creativecommons.org/ns#"
   xmlns:rdf="http://www.w3.org/1999/02/22-rdf-syntax-ns#"
   xmlns:svg="http://www.w3.org/2000/svg"
   xmlns="http://www.w3.org/2000/svg"
   xmlns:inkscape="http://www.inkscape.org/namespaces/inkscape"
   version="1.1"
   width="600"
   height="600"
   id="svg3382">
  <defs
     id="defs3384" />
  <metadata
     id="metadata3387">
    <rdf:RDF>
      <cc:Work
         rdf:about="">
        <dc:format>image/svg+xml</dc:format>
        <dc:type
           rdf:resource="http://purl.org/dc/dcmitype/StillImage" />
        <dc:title />
      </cc:Work>
    </rdf:RDF>
  </metadata>
  <g
     transform="translate(-147.7198,-44.642407)"
     id="layer1">
    <g
       transform="matrix(6,0,0,6,3927.7198,1304.6544)"
       id="g21">
      <circle
         cx="-580"
         cy="-160.002"
         r="50"
         id="circle23"
         style="fill:#cac5c0" />
    </g>
    <path
       d="m 385.08605,360.0264 -12.10795,-22.62602 8.02199,-4.842 c 31.04398,-18.87001 59.41798,-37.98001 85.134,-57.378 25.70395,-19.39202 38.56194,-41.49001 38.56194,-66.28802 0,-16.66802 -6.17394,-30.67199 -18.50996,-41.988 -12.36601,-11.35198 -26.83201,-17.00398 -43.464,-17.00398 -38.634,0 -79.404,24.006 -122.35202,71.94599 l -20.12398,-15.35399 c 44.71801,-67.896 99.39603,-101.84399 164.04601,-101.84399 28.54194,0 52.76996,7.00799 72.732,21.018 22.62598,15.64198 33.92994,36.91797 33.92994,63.85201 0,19.37396 -8.09398,38.24396 -24.23395,56.55596 -9.16801,10.78802 -25.35602,24.79203 -48.49804,42.024 l -9.69596,7.27799 c 4.30795,-0.53396 9.43197,-0.80399 15.35997,-0.80399 29.622,0 53.98796,11.32202 73.12796,33.94199 19.12803,22.62602 28.69804,49.02002 28.69804,79.17601 0,51.19204 -21.57001,94.00201 -64.64401,128.49601 -39.88197,32.322 -85.94996,48.46201 -138.19197,48.46201 -47.94596,0 -85.65597,-10.48801 -113.14802,-31.494 l 14.57403,-20.226 c 32.32201,15.64798 61.67401,23.44198 88.08599,23.44198 38.23803,0 72.306,-12.65399 102.19199,-37.97998 29.92802,-25.32001 44.85002,-56.81398 44.85002,-94.53 0,-24.79203 -7.53004,-45.93 -22.62001,-63.45599 -15.09598,-17.49002 -34.75796,-26.24401 -58.99201,-26.24401 -22.10397,0.0101 -46.33793,8.62197 -72.732,25.86602 z"
       inkscape:connector-curvature="0"
       id="path25"
       style="fill:#0d0f0f" />
  </g>
</svg>
