<?xml version="1.0" encoding="utf-8"?>
<!-- Generator: Adobe Illustrator 13.0.0, SVG Export Plug-In . SVG Version: 6.00 Build 14948)  -->
<!DOCTYPE svg PUBLIC "-//W3C//DTD SVG 1.1//EN" "http://www.w3.org/Graphics/SVG/1.1/DTD/svg11.dtd">
<svg version="1.1"
	 id="svg5016" xmlns:dc="http://purl.org/dc/elements/1.1/" xmlns:cc="http://creativecommons.org/ns#" xmlns:svg="http://www.w3.org/2000/svg" xmlns:inkscape="http://www.inkscape.org/namespaces/inkscape" xmlns:rdf="http://www.w3.org/1999/02/22-rdf-syntax-ns#"
	 xmlns="http://www.w3.org/2000/svg" xmlns:xlink="http://www.w3.org/1999/xlink" x="0px" y="0px" width="600px" height="650.583px"
	 viewBox="0 0 600 650.583" enable-background="new 0 0 600 650.583" xml:space="preserve">
<path id="path414" inkscape:connector-curvature="0" fill="#FFFFFF" d="M542.066,0H0C0,0,241.48,533.495,242.44,535.592
	c-9.092,12.199-14.671,26.934-14.671,42.955c0,19.24,7.498,37.344,21.145,50.939c13.597,13.598,31.716,21.096,50.956,21.096
	c19.258,0,37.36-7.498,50.893-21.096c13.662-13.596,21.16-31.699,21.16-50.939c0-16.965-6.359-32.416-16.525-44.988
	C355.787,532.665,600,0,600,0H542.066z"/>
<path d="M286.842,546.198c-12.833,5.154-21.844,17.662-21.844,32.35c0,19.24,15.565,34.871,34.871,34.871
	c19.258,0,34.822-15.631,34.822-34.871c0-14.623-9.026-27.195-21.794-32.35v-31.439h10.165L542.066,37.165h-69.45H57.691
	l216.14,477.594h13.012V546.198L286.842,546.198z M300,327.455c0,0,84.055-190.084,84.12-190.214
	c4.196-10.295,12.394-21.534,11.108-33.229c-1.203-11.255-12.768-13.922-22.363-14.231v-7.937h99.75L309.661,439.274H290.16
	L127.059,81.843h99.881v7.937c-6.864,0.195-17.794,1.139-21.096,8.263c-4.635,9.775,5.205,29.731,9.093,39.197
	C214.937,137.306,300,327.455,300,327.455"/>
</svg>
