<?xml version="1.0" encoding="UTF-8" standalone="no"?>
<!-- Created with Inkscape (http://www.inkscape.org/) -->

<svg
   xmlns:dc="http://purl.org/dc/elements/1.1/"
   xmlns:cc="http://creativecommons.org/ns#"
   xmlns:rdf="http://www.w3.org/1999/02/22-rdf-syntax-ns#"
   xmlns:svg="http://www.w3.org/2000/svg"
   xmlns="http://www.w3.org/2000/svg"
   xmlns:inkscape="http://www.inkscape.org/namespaces/inkscape"
   version="1.1"
   width="600"
   height="600"
   id="svg3401">
  <defs
     id="defs3403" />
  <metadata
     id="metadata3406">
    <rdf:RDF>
      <cc:Work
         rdf:about="">
        <dc:format>image/svg+xml</dc:format>
        <dc:type
           rdf:resource="http://purl.org/dc/dcmitype/StillImage" />
        <dc:title />
      </cc:Work>
    </rdf:RDF>
  </metadata>
  <g
     transform="translate(-364.8627,226.78619)"
     id="layer1">
    <g
       transform="matrix(6,0,0,6,3514.8627,1033.2258)"
       id="g27">
      <circle
         cx="-475"
         cy="-160.002"
         r="50"
         id="circle29"
         style="fill:#cac5c0" />
    </g>
    <path
       d="m 750.48283,177.37978 v 40.33803 c 0,46.10399 16.16999,69.14999 48.56403,69.14999 h 13.97998 v 26.36398 H 617.07882 V 286.8678 h 15.64201 c 31.81797,0 47.76594,-22.78798 47.76594,-68.35201 V 177.37978 H 483.71685 v -41.166 L 691.18482,-166.7682 h 59.29801 v 309.552 h 4.92001 c 20.29799,0 35.11195,-15.64798 44.44797,-46.896004 h 24.68998 l -11.51998,81.498024 -62.53798,-0.007 0,0 z M 680.48677,142.7838 V -105.96418 L 513.1288,142.7838 h 167.35797 z"
       inkscape:connector-curvature="0"
       id="path31"
       style="fill:#0d0f0f" />
  </g>
</svg>
