<?xml version="1.0" encoding="utf-8"?>
<!-- Generator: Adobe Illustrator 13.0.0, SVG Export Plug-In . SVG Version: 6.00 Build 14948)  -->
<!DOCTYPE svg PUBLIC "-//W3C//DTD SVG 1.1//EN" "http://www.w3.org/Graphics/SVG/1.1/DTD/svg11.dtd">
<svg version="1.1"
	 id="svg5391" xmlns:dc="http://purl.org/dc/elements/1.1/" xmlns:cc="http://creativecommons.org/ns#" xmlns:svg="http://www.w3.org/2000/svg" xmlns:inkscape="http://www.inkscape.org/namespaces/inkscape" xmlns:rdf="http://www.w3.org/1999/02/22-rdf-syntax-ns#"
	 xmlns="http://www.w3.org/2000/svg" xmlns:xlink="http://www.w3.org/1999/xlink" x="0px" y="0px" width="600px" height="569.4px"
	 viewBox="0 0 600 569.4" enable-background="new 0 0 600 569.4" xml:space="preserve">
<path id="path532" inkscape:connector-curvature="0" fill="#FFFFFF" d="M242.232,59.389c-12.612-9.011-30.748-17.566-54.648-17.566
	c-28.257,0-57.51,17.295-74.521,44.043c-8.611,13.623-12.896,28.47-13.338,43.36c-16.911-3.659-37.766-4.057-56.997,7.345
	c-21.182,12.513-43.545,42.15-42.705,77.68c0.442,18.791,8.556,54.221,57.88,80.243l4.114,2.164h67.559
	C150.871,309,600,569.4,600,569.4S473.721,436.232,442.646,403.421c6.448,0.954,76.001,10.904,76.001,10.904
	s-91.133-85.524-125.325-117.667H504.64l1.608-0.271c19.303-3.46,55.772-22.919,55.772-71.731c0-25.979-11.231-46.99-31.573-59.232
	c-14.463-8.669-32.199-11.445-47.716-8.341c-9.623-8.897-23.687-16.84-40.043-19.175c2.349-8.285,4.114-17.409,4.114-26.975
	C446.803,79.36,413.834,0,335.926,0C285.449,0,256.695,34.307,242.232,59.389"/>
<path d="M497.195,488.162L392.098,377.343l70.563,10.006L345.99,277.925h156.983c0,0,40.313-7.174,40.313-53.268
	c0-46.107-44.655-57.552-66.221-46.107c0,0-27.36-37.424-64.841-17.239c0,0,15.844-24.456,15.844-50.377
	c0-24.684-27.36-92.186-92.144-92.186c-64.826,0-87.844,72-87.844,72S227.897,60.5,187.583,60.5s-86.363,48.997-63.346,97.922
	c0,0-40.313-24.47-72.001-5.723c-31.644,18.677-61.894,84.912,14.392,125.226H225.05l51.829,38.918l-95.032-11.502L497.195,488.162
	L497.195,488.162z M322.972,277.925l95.36,88.969l-66.392-9.182l65.339,67.503L252.58,328.573l66.449,5.893l-65.894-56.712
	L322.972,277.925L322.972,277.925z"/>
</svg>
