<?xml version="1.0" encoding="UTF-8" standalone="no"?>
<!-- Created with Inkscape (http://www.inkscape.org/) -->

<svg
   xmlns:dc="http://purl.org/dc/elements/1.1/"
   xmlns:cc="http://creativecommons.org/ns#"
   xmlns:rdf="http://www.w3.org/1999/02/22-rdf-syntax-ns#"
   xmlns:svg="http://www.w3.org/2000/svg"
   xmlns="http://www.w3.org/2000/svg"
   xmlns:inkscape="http://www.inkscape.org/namespaces/inkscape"
   version="1.1"
   width="600"
   height="600"
   id="svg3656">
  <defs
     id="defs3658" />
  <metadata
     id="metadata3661">
    <rdf:RDF>
      <cc:Work
         rdf:about="">
        <dc:format>image/svg+xml</dc:format>
        <dc:type
           rdf:resource="http://purl.org/dc/dcmitype/StillImage" />
        <dc:title />
      </cc:Work>
    </rdf:RDF>
  </metadata>
  <g
     transform="translate(-104.8627,-7.4995066)"
     id="layer1">
    <g
       transform="matrix(6,0,0,6,1994.8627,1267.5115)"
       id="g39">
      <circle
         cx="-265"
         cy="-160.002"
         r="50"
         id="circle41"
         style="fill:#cac5c0" />
    </g>
    <path
       d="m 324.34283,275.56151 c 35.60401,-33.46198 71.46001,-50.18398 107.63401,-50.18398 39.38398,0 70.96798,15.636 94.722,46.92599 22.09199,28.61997 33.174,63.12601 33.174,103.62001 0,44.25597 -12.94801,83.09399 -38.85002,116.54996 -28.608,36.684 -64.21798,55.044 -106.842,55.044 -51.28202,0 -92.28598,-22.13996 -123.02397,-66.37796 -27.54001,-38.86203 -41.29798,-85.00198 -41.29798,-138.426 0,-56.64 15.64198,-108.84604 46.94395,-156.60602 31.27801,-47.74799 73.10404,-81.61202 125.43606,-101.568015 29.68195,-11.327953 61.00797,-17.033966 93.89996,-17.033966 v 25.104 c -70.14602,3.786004 -122.48401,31.848001 -157.04399,84.186021 -17.74801,27.00599 -29.37005,59.89799 -34.75202,98.76596 z m -4.872,48.55201 c -0.51601,9.70801 -0.79798,19.42798 -0.79798,29.14199 0,37.21799 6.468,71.76003 19.416,103.61397 16.70999,41.53205 41.29798,62.31005 73.67397,62.31005 28.04405,0 49.08,-14.28602 63.12001,-42.90599 10.78202,-22.10404 16.18203,-48.81004 16.18203,-80.13002 0,-33.42602 -5.14206,-62.052 -15.37805,-85.79403 -14.04,-32.37599 -35.61598,-48.55195 -64.75797,-48.55195 -35.59801,-0.007 -66.10199,20.78397 -91.45801,62.31598 z"
       inkscape:connector-curvature="0"
       id="path43"
       style="fill:#0d0f0f" />
  </g>
</svg>
