<?xml version="1.0" encoding="UTF-8" standalone="no"?>
<!-- Created with Inkscape (http://www.inkscape.org/) -->

<svg
   xmlns:dc="http://purl.org/dc/elements/1.1/"
   xmlns:cc="http://creativecommons.org/ns#"
   xmlns:rdf="http://www.w3.org/1999/02/22-rdf-syntax-ns#"
   xmlns:svg="http://www.w3.org/2000/svg"
   xmlns="http://www.w3.org/2000/svg"
   xmlns:inkscape="http://www.inkscape.org/namespaces/inkscape"
   version="1.1"
   width="600"
   height="600"
   id="svg3733">
  <defs
     id="defs3735" />
  <metadata
     id="metadata3738">
    <rdf:RDF>
      <cc:Work
         rdf:about="">
        <dc:format>image/svg+xml</dc:format>
        <dc:type
           rdf:resource="http://purl.org/dc/dcmitype/StillImage" />
        <dc:title />
      </cc:Work>
    </rdf:RDF>
  </metadata>
  <g
     transform="translate(-38.29125,238.21479)"
     id="layer1">
    <g
       transform="matrix(6,0,0,6,668.29125,1021.7972)"
       id="g51">
      <circle
         cx="-55"
         cy="-160.002"
         r="50"
         id="circle53"
         style="fill:#cac5c0" />
    </g>
    <path
       d="M 284.08137,58.575225 273.60538,51.309246 C 242.8914,30.297211 222.65339,13.329235 212.96337,0.37522451 200.56737,-15.770782 194.38739,-34.604787 194.38739,-56.18077 c 0,-36.62999 15.34202,-66.52202 46.06802,-89.694 28.54797,-21.53998 61.68597,-32.32798 99.40799,-32.32798 35.53199,0 67.07997,9.43801 94.53601,28.27798 31.21799,21.01801 46.87799,48.76204 46.87799,83.256031 0,42.023969 -29.388,75.9599878 -88.092,101.801986 66.78601,32.327943 100.19398,77.303973 100.19398,134.952003 0,41.48397 -15.87598,74.33396 -47.69399,98.60398 -28.51798,22.09199 -64.37401,33.10804 -107.45401,33.10804 -40.40399,0 -75.15,-10.21803 -104.26201,-30.71406 -33.408,-23.13598 -50.088,-53.85599 -50.088,-92.09398 0,-38.238 17.77803,-69.77997 53.33401,-94.566035 9.69601,-6.443977 25.33798,-15.060012 46.86599,-25.84797 z m 27.43203,11.471943 c -48.47999,22.061999 -72.666,56.796072 -72.666,104.166072 0,30.67797 9.80998,55.30796 29.49598,73.88398 19.66198,18.58199 44.84999,27.85799 75.56402,27.85799 27.444,0 50.76601,-7.39195 69.87598,-22.16999 19.11598,-14.78398 28.68603,-35.34599 28.68603,-61.68001 0,-39.756 -26.20204,-72.00597 -78.58807,-96.732019 L 311.5134,70.047168 z m 54.186,-47.83794 c 42.52796,-18.8459816 63.84599,-47.123996 63.84599,-84.833975 0,-25.878029 -9.03599,-46.596013 -27.06,-62.250033 -18.07202,-15.61799 -40.29002,-23.43597 -66.67802,-23.43597 -22.104,0 -41.21401,5.94598 -57.378,17.78401 -17.78998,12.92398 -26.65799,30.17994 -26.65799,51.719989 0,26.400008 12.37801,47.688012 37.16998,63.857972 4.83,3.221988 26.37602,13.7160287 64.65002,31.500036 l 12.10802,5.657971 z"
       inkscape:connector-curvature="0"
       id="path55"
       style="fill:#0d0f0f" />
  </g>
</svg>
