<?xml version="1.0" encoding="UTF-8" standalone="no"?>
<!-- Created with Inkscape (http://www.inkscape.org/) -->

<svg
   xmlns:dc="http://purl.org/dc/elements/1.1/"
   xmlns:cc="http://creativecommons.org/ns#"
   xmlns:rdf="http://www.w3.org/1999/02/22-rdf-syntax-ns#"
   xmlns:svg="http://www.w3.org/2000/svg"
   xmlns="http://www.w3.org/2000/svg"
   xmlns:inkscape="http://www.inkscape.org/namespaces/inkscape"
   version="1.1"
   width="600"
   height="600"
   id="svg3765">
  <defs
     id="defs3767" />
  <metadata
     id="metadata3770">
    <rdf:RDF>
      <cc:Work
         rdf:about="">
        <dc:format>image/svg+xml</dc:format>
        <dc:type
           rdf:resource="http://purl.org/dc/dcmitype/StillImage" />
        <dc:title />
      </cc:Work>
    </rdf:RDF>
  </metadata>
  <g
     transform="translate(-30.57696,21.071893)"
     id="layer1">
    <g
       transform="matrix(6,0,0,6,30.57696,1238.9401)"
       id="g57">
      <circle
         cx="50"
         cy="-160.002"
         r="50"
         id="circle59"
         style="fill:#cac5c0" />
    </g>
    <path
       d="m 410.98909,312.08407 c -35.53202,33.40203 -71.38801,50.11799 -107.45999,50.11799 -39.33003,0 -70.85402,-15.62399 -94.54802,-46.88396 -22.104,-28.54801 -33.138,-63.04197 -33.138,-103.44599 0,-43.63197 12.91201,-82.66198 38.76602,-117.156011 28.032,-37.193972 63.33002,-55.775961 105.88797,-55.775961 51.73201,0 92.93404,22.367993 123.63002,67.086002 27.49201,39.32396 41.20203,85.914 41.20203,139.81198 0,76.47593 -25.34403,140.98797 -75.93002,193.54197 -50.64601,52.51197 -113.95802,79.04399 -189.91801,79.56597 v -25.04998 c 23.154,-1.05601 41.71801,-3.75598 55.782,-8.064 77.532,-23.70597 122.81402,-81.60598 135.726,-173.74801 z m 4.878,-48.49193 c 0.51601,-10.23602 0.774,-19.93201 0.774,-29.07603 0,-37.70998 -6.44398,-72.20398 -19.37997,-103.43999 C 380.0111,89.580107 355.2611,68.832132 322.9451,68.832132 c -28.05599,0 -48.74999,14.30997 -62.25,42.845968 -10.78202,22.09803 -16.146,48.75603 -16.146,80.00402 0,33.39599 5.112,61.944 15.35399,85.64997 13.99203,32.32197 35.55601,48.498 64.66203,48.498 35.51997,0 65.93995,-20.74804 91.30197,-62.23795 z"
       inkscape:connector-curvature="0"
       id="path61"
       style="fill:#0d0f0f" />
  </g>
</svg>
