<?xml version="1.0" encoding="UTF-8" standalone="no"?>
<!-- Created with Inkscape (http://www.inkscape.org/) -->

<svg
   xmlns:dc="http://purl.org/dc/elements/1.1/"
   xmlns:cc="http://creativecommons.org/ns#"
   xmlns:rdf="http://www.w3.org/1999/02/22-rdf-syntax-ns#"
   xmlns:svg="http://www.w3.org/2000/svg"
   xmlns="http://www.w3.org/2000/svg"
   xmlns:inkscape="http://www.inkscape.org/namespaces/inkscape"
   version="1.1"
   width="600"
   height="488.69885"
   id="svg4746">
  <defs
     id="defs4748" />
  <metadata
     id="metadata4751">
    <rdf:RDF>
      <cc:Work
         rdf:about="">
        <dc:format>image/svg+xml</dc:format>
        <dc:type
           rdf:resource="http://purl.org/dc/dcmitype/StillImage" />
        <dc:title />
      </cc:Work>
    </rdf:RDF>
  </metadata>
  <path
     d="m 561.47831,17.75199 c -0.57373,0.29322 -58.03298,25.72999 -243.62858,25.72999 l -35.65059,0 C 96.554673,43.48198 39.095907,18.04521 38.521686,17.75199 L 0.39095907,0.19548 0,42.05254 0,67.96579 c 0,19.42578 13.646915,31.82651 27.831399,36.65241 0.904093,3.53085 2.101405,6.73183 3.762981,9.68846 l 0,88.33231 76.02932,0 c -4.15394,44.76482 -19.572387,212.13195 -20.855221,225.79109 -5.778864,8.68662 -8.161271,18.3262 -8.161271,27.09835 0,5.02138 0.67245,9.68845 1.857056,13.69578 l 5.583384,19.47465 96.737932,0 16.09041,-58.88821 c 0,0 -5.92547,-2.95663 -11.50885,-5.77886 2.43127,-28.34454 15.79718,-183.2132 18.99816,-220.57423 l 22.13806,0 c -0.0391,1.85706 -0.80635,26.76848 -0.80635,26.76848 l 144.60598,0 c 0,0 -0.76921,-24.96029 -0.80635,-26.76848 l 22.13806,0 c 3.20098,37.36103 16.56689,192.22969 18.99816,220.57423 -5.58338,2.82223 -11.45998,5.77886 -11.45998,5.77886 l 16.04154,58.88821 96.59132,0 5.68113,-19.27917 c 1.0507,-3.57972 1.80818,-8.30788 1.80818,-13.59804 0,-8.45449 -2.05253,-18.37508 -8.06353,-27.39157 -1.23396,-13.65914 -16.70128,-181.02627 -20.85522,-225.79109 l 76.02932,0 0,-88.28344 c 1.66158,-3.0055 2.90776,-6.20648 3.81185,-9.73733 C 586.35308,99.7923 600,87.39157 600,67.96579 L 600,0 561.47831,17.75199 z"
     inkscape:connector-curvature="0"
     id="path330"
     style="fill:#ffffff;fill-opacity:1;fill-rule:nonzero;stroke:none" />
  <path
     d="m 415.06414,108.47893 -74.55101,0 2.4435,31.64325 74.53879,0 -2.43128,-31.64325 z m -232.55956,31.64325 74.53879,0 2.4435,-31.64325 -74.55101,0 -2.43128,31.64325 z m 72.92609,63.18876 0.80635,-26.7807 -74.55101,0 -22.71228,263.39646 8.1124,4.0562 -4.81368,17.84972 -55.9438,0 c 0,0 -4.0562,-13.79352 6.49969,-22.71228 l 24.28834,-263.34758 -78.607211,0 0,-34.88088 81.857051,0 3.23763,-31.59438 -78.594987,0 c 0,0 -12.168601,-3.24985 -12.168601,-14.6121 l 0,-14.55101 -14.612095,0 c 0,0 -11.313378,-2.43127 -11.313378,-12.1686 l 0,-25.91325 c 0,0 56.701282,28.34453 255.235181,28.34453 l 35.65059,0 c 198.58277,0 255.3207,-28.34453 255.3207,-28.34453 l 0,25.91325 c 0,9.73733 -11.35003,12.1686 -11.35003,12.1686 l -14.61209,0 0,14.55101 c 0,11.36225 -12.1686,14.6121 -12.1686,14.6121 l -78.59499,0 3.23763,31.59438 81.85705,0 0,34.88088 -78.60721,0 24.28834,263.34758 c 10.55589,8.91876 6.49969,22.71228 6.49969,22.71228 l -55.9438,0 -4.81368,-17.84972 8.06353,-4.0562 -22.66341,-263.39646 -74.55101,0 0.80635,26.7807 -89.13866,0 z"
     inkscape:connector-curvature="0"
     id="path332"
     style="fill:#000000;fill-opacity:1;fill-rule:nonzero;stroke:none" />
</svg>
