<?xml version="1.0" encoding="UTF-8" standalone="no"?>
<!-- Created with Inkscape (http://www.inkscape.org/) -->

<svg
   xmlns:dc="http://purl.org/dc/elements/1.1/"
   xmlns:cc="http://creativecommons.org/ns#"
   xmlns:rdf="http://www.w3.org/1999/02/22-rdf-syntax-ns#"
   xmlns:svg="http://www.w3.org/2000/svg"
   xmlns="http://www.w3.org/2000/svg"
   xmlns:inkscape="http://www.inkscape.org/namespaces/inkscape"
   version="1.1"
   width="600"
   height="927.82312"
   id="svg3820">
  <defs
     id="defs3822" />
  <metadata
     id="metadata3825">
    <rdf:RDF>
      <cc:Work
         rdf:about="">
        <dc:format>image/svg+xml</dc:format>
        <dc:type
           rdf:resource="http://purl.org/dc/dcmitype/StillImage" />
        <dc:title />
      </cc:Work>
    </rdf:RDF>
  </metadata>
  <g
     transform="matrix(18.556462,0,0,18.556462,-6658.6733,-9414.847)"
     id="layer1">
    <path
       d="m 370.82063,557.36218 0,-11.495 c -3.08125,-0.7175 -5.87375,-2.22125 -7.99375,-4.33 -2.5725,-2.55875 -3.99375,-5.85 -3.99375,-9.2675 0,-3.41375 1.42125,-6.705 3.99375,-9.26375 2.12,-2.10875 4.9125,-3.6175 7.99375,-4.335 l 0,-4.11625 8.36,-7.1925 0,11.30875 c 3.08,0.7175 5.87875,2.22625 7.9975,4.335 2.57375,2.55875 3.98875,5.85 3.98875,9.26375 0,3.4175 -1.415,6.70875 -3.98875,9.2675 -2.11875,2.10875 -4.9175,3.6125 -7.9975,4.33 l 0,4.3075 -8.36,7.1875 z"
       inkscape:connector-curvature="0"
       id="path464"
       style="fill:#ffffff;fill-opacity:1;fill-rule:nonzero;stroke:none" />
    <path
       d="m 377.32438,538.62218 0,-12.70125 c 3.2225,0.835 5.56625,3.365 5.56625,6.34875 0,2.9875 -2.34375,5.5175 -5.56625,6.3525 m -10.215,-6.3525 c 0,-2.98375 2.34375,-5.51375 5.56625,-6.34875 l 0,12.70125 c -3.2225,-0.835 -5.56625,-3.365 -5.56625,-6.3525 m 22.2025,0 c 0,-6.07 -5.19,-11.10375 -11.9875,-12.05125 l 0,-8.80375 -4.64875,3.99375 0,4.81 c -6.79125,0.9475 -11.9825,5.98125 -11.9825,12.05125 0,6.07375 5.19125,11.1075 11.9825,12.055 l 0,8.98875 4.64875,-3.99375 0,-4.995 c 6.7975,-0.9475 11.9875,-5.98125 11.9875,-12.055"
       inkscape:connector-curvature="0"
       id="path466"
       style="fill:#000000;fill-opacity:1;fill-rule:nonzero;stroke:none" />
  </g>
</svg>
