<?xml version="1.0" encoding="utf-8"?>
<!-- Generator: Adobe Illustrator 13.0.0, SVG Export Plug-In . SVG Version: 6.00 Build 14948)  -->
<!DOCTYPE svg PUBLIC "-//W3C//DTD SVG 1.1//EN" "http://www.w3.org/Graphics/SVG/1.1/DTD/svg11.dtd">
<svg version="1.1"
	 id="svg3039" xmlns:dc="http://purl.org/dc/elements/1.1/" xmlns:cc="http://creativecommons.org/ns#" xmlns:svg="http://www.w3.org/2000/svg" xmlns:inkscape="http://www.inkscape.org/namespaces/inkscape" xmlns:rdf="http://www.w3.org/1999/02/22-rdf-syntax-ns#"
	 xmlns="http://www.w3.org/2000/svg" xmlns:xlink="http://www.w3.org/1999/xlink" x="0px" y="0px" width="618.438px"
	 height="465.625px" viewBox="0 0 618.438 465.625" enable-background="new 0 0 618.438 465.625" xml:space="preserve">
<path id="path3049" inkscape:connector-curvature="0" fill="#FFFFFF" stroke="#FFFFFF" stroke-width="14.8894" stroke-miterlimit="100" d="
	M309.219,51.449L276.174,167.11l-70.953-11.664C218.828,74.774,272.285,12.57,272.285,12.57
	C156.623,32.98,123.577,117.54,123.577,117.54s-57.347-13.606-106.914,6.805c85.76,61.386,111.987,131.994,187.712,244.532
	c5.806,8.629,11.901,17.505,18.341,26.643l-17.495-172.036l56.373,43.739l47.625,171.063l48.598-169.119l55.399-45.682
	L395.721,395.52c101.083-155.513,142.876-235.211,206.053-271.175c-35.962-15.551-106.913-6.805-106.913-6.805
	s-29.159-79.7-148.709-104.97c44.71,43.738,67.064,142.876,67.064,142.876l-70.953,11.664L309.219,51.449z"/>
<path id="path3819" inkscape:connector-curvature="0" d="M309.219,78.729l27.75,96.75l85.333-13.917
	c-18.833-86.25-55.166-135.917-55.166-135.917c100.833,30.167,122.833,100.083,122.833,100.083s53.334-7.75,94.25,1
	c-83.75,73.833-119,152.583-178,238.834l16.25-159.333l-71.167,58.583l-42,146.166l-41.083-148.083l-72.25-55.833l16.417,160.167
	c-6.021-9.264-8.549-12.518-14.167-21.25C109.531,208.115,97.969,178.563,32.385,126.813c45.083-13.5,95.833-0.417,95.833-0.417
	s27.25-76.583,125.833-102.25c-50.833,71.417-57.417,137.5-57.417,137.5l84.833,14L309.219,78.729z"/>
</svg>
