<?xml version="1.0" encoding="utf-8"?>
<!-- Generator: Adobe Illustrator 13.0.0, SVG Export Plug-In . SVG Version: 6.00 Build 14948)  -->
<!DOCTYPE svg PUBLIC "-//W3C//DTD SVG 1.1//EN" "http://www.w3.org/Graphics/SVG/1.1/DTD/svg11.dtd">
<svg version="1.1"
	 id="svg2" xmlns:dc="http://purl.org/dc/elements/1.1/" xmlns:cc="http://creativecommons.org/ns#" xmlns:svg="http://www.w3.org/2000/svg" xmlns:inkscape="http://www.inkscape.org/namespaces/inkscape" xmlns:rdf="http://www.w3.org/1999/02/22-rdf-syntax-ns#"
	 xmlns="http://www.w3.org/2000/svg" xmlns:xlink="http://www.w3.org/1999/xlink" x="0px" y="0px" width="600px" height="608px"
	 viewBox="0 0 600 608" enable-background="new 0 0 600 608" xml:space="preserve">
<path fill="#FFFFFF" d="M71.174,603.838c0,0,111.865-55.39,145.532-87.431c0.543,1.63,80.37,82,80.37,82l81.456-82.541
	c0,0,104.805,74.938,144.988,88.514c-58.646-85.8-55.932-111.05-56.477-123.811c-0.541-12.763,2.174-34.211,5.433-48.331
	l-16.835-13.031c36.656-47.788,70.595-198.208,70.595-198.208l-19.551-21.722c0,0,25.524-27.695,35.841-40.185
	c10.318-12.489,1.088-42.899,1.088-42.899l-19.008-17.376c0,0-15.747-3.259-29.323,3.257c-13.576,6.517-48.872,48.331-48.872,48.331
	s-80.37-44.529-110.236-53.76L297.076,6.5l-40.729,89.602c-43.985,16.291-108.606,53.217-108.606,53.217
	s-35.568-46.158-48.33-49.416c-12.762-3.258-20.092-3.258-29.324-1.086c-9.231,2.171-21.178,11.947-23.893,21.721
	c-2.715,9.774-3.802,19.006,0,29.324c3.801,10.318,41.271,48.873,41.271,48.873l-19.55,23.894c0,0,39.098,169.428,71.137,196.579
	l-17.377,11.945c7.603,32.037,4.888,49.417,4.888,49.417C127.649,532.7,71.174,603.838,71.174,603.838z"/>
<path fill="#231F20" d="M142.582,442.827c122.726-71.68,277.22-247.351,277.22-247.351l-29.324-24.437l23.077-18.282l37.199,20.726
	c0,0,44.618-52.131,48.33-54.032c3.71-1.9,11.674-3.802,19.55-0.543c0,0,4.886,1.086,8.145,9.774
	c3.258,8.689,2.352,15.024,1.086,17.377c-1.27,2.354-46.158,52.131-46.158,52.131l23.895,28.238l-8.146,30.41l-32.038-22.808
	c0,0-179.201,237.849-340.482,320.39C156.43,515.321,146.655,465.363,142.582,442.827z M158.873,410.247
	c25.522-18.465,58.376-43.173,58.376-43.173l-91.772-108.063l-21.54,16.291C103.937,275.302,125.749,370.605,158.873,410.247z
	 M297.619,572.612l64.847-69.19c-29.37-22.943-64.847-55.797-64.847-55.797s-49.733,45.298-64.44,55.751L297.619,572.612z
	 M111.901,198.554l-23.532,28.237l10.499,32.22l30.41-23.894l101.886,121.167c21.111-16.226,54.191-47.268,54.191-47.268
	L176.342,196.019l27.875-25.341l-22.083-17.377l-37.65,19.55L95.61,118.908c-8.417-4.887-15.838-3.891-22.446,0.361
	c-2.805,2.354-4.797,4.163-7.964,7.603c-6.607,9.593,0.362,22.446,0.362,22.446L111.901,198.554z M321.408,109.858l-24.515-47.787
	l-24.254,47.787c-20.092,7.241-74.577,34.936-74.577,34.936l35.478,21.901l-32.944,30.409l96.297,98.471l98.47-98.108
	l-33.306-26.065l34.757-25.885C396.815,145.517,360.145,124.311,321.408,109.858z M375.816,366.17l62.269,45.253
	c0,0,35.206-46.7,52.583-137.931L469.218,257.2L375.816,366.17z M308.479,435.316c0,0,67.697,65.163,160.013,119.466
	c0,0-28.599-51.042-15.564-111.141l-91.592-65.162L308.479,435.316z"/>
</svg>
