<?xml version="1.0" encoding="utf-8"?>
<!-- Generator: Adobe Illustrator 13.0.0, SVG Export Plug-In . SVG Version: 6.00 Build 14948)  -->
<!DOCTYPE svg PUBLIC "-//W3C//DTD SVG 1.1//EN" "http://www.w3.org/Graphics/SVG/1.1/DTD/svg11.dtd">
<svg version="1.1"
	 id="svg3776" sodipodi:docname="drawing.svg" inkscape:version="0.48.4 r9939" xmlns:sodipodi="http://sodipodi.sourceforge.net/DTD/sodipodi-0.dtd" xmlns:dc="http://purl.org/dc/elements/1.1/" xmlns:cc="http://creativecommons.org/ns#" xmlns:rdf="http://www.w3.org/1999/02/22-rdf-syntax-ns#" xmlns:inkscape="http://www.inkscape.org/namespaces/inkscape" xmlns:svg="http://www.w3.org/2000/svg"
	 xmlns="http://www.w3.org/2000/svg" xmlns:xlink="http://www.w3.org/1999/xlink" x="0px" y="0px" width="600px" height="548.18px"
	 viewBox="0 0 600 548.18" enable-background="new 0 0 600 548.18" xml:space="preserve">
<path fill="#FFFFFF" d="M292.516,517.777L228.75,449.34c0,0-28,46.75-118.25,67.5c0,0,41-48.25,37.25-121.75
	c0,0,12.25-12,23.25-14.75c-33.25-46.25-37-80.75-37-80.75s25,2,28.5-0.5s-43.75-45.75-43.75-45.75L88,133.34
	c1-41.75,51.5-33.25,51.5-33.25s-19.25,26.5,24,45.75c0,0,83.75-45.5,95.25-47.5l33.766-72.719V517.777z M292.516,517.777
	l63.793-68.553c0,0,28,46.75,118.25,67.5c0,0-41-48.25-37.25-121.75c0,0-12.25-12-23.25-14.75c33.25-46.25,37-80.75,37-80.75
	s-25,2-28.5-0.5s43.75-45.75,43.75-45.75l30.75-120c-1-41.75-51.5-33.25-51.5-33.25s19.25,26.5-24,45.75c0,0-83.75-45.5-95.25-47.5
	l-33.793-72.604V517.777z"/>
<path fill="#231F20" d="M292.75,491.84l-53-58.75c0,0,24-63.5-53-62.5c-7-2.75-29-52.75-29-52.75s18,9,28-7.75c2.5-6.5,1-6.5,0-11
	s-48-50.25-51-56s-30-101.25-29.5-111.25s13.5-12.25,13.5-12.25v8.5c0,0,16.25,32,46.25,36c16.25-3.25,72.25-38.5,103.75-50.25
	c4.25-1.25,23.75-46.25,23.75-46.25L292.75,491.84z M196.917,210.444l-0.021,34.854l61.792,85.958l-0.063-68.292L196.917,210.444z
	 M145,487.09c0,0,76.75-32.75,73-63.25c-5.75-46.75-52.25-26-52.5-20.5C166.75,454.59,145,487.09,145,487.09z M292.492,67.59
	c0,0,19.499,45,23.749,46.25c31.5,11.75,87.5,47,103.75,50.25c30-4,46.25-36,46.25-36v-8.5c0,0,13,2.25,13.5,12.25
	s-26.5,105.5-29.5,111.25s-50,51.5-51,56s-2.5,4.5,0,11c10,16.75,28,7.75,28,7.75s-22,50-29,52.75c-77-1-53,62.5-53,62.5
	l-52.999,58.75L292.492,67.59z M326.366,262.965l-0.063,68.292l61.791-85.958l-0.021-34.854L326.366,262.965z M419.491,403.34
	c-0.25-5.5-46.75-26.25-52.5,20.5c-3.75,30.5,73,63.25,73,63.25S418.241,454.59,419.491,403.34z"/>
</svg>
