<?xml version="1.0" encoding="UTF-8" standalone="no"?>
<!-- Created with Inkscape (http://www.inkscape.org/) -->

<svg
   xmlns:dc="http://purl.org/dc/elements/1.1/"
   xmlns:cc="http://creativecommons.org/ns#"
   xmlns:rdf="http://www.w3.org/1999/02/22-rdf-syntax-ns#"
   xmlns:svg="http://www.w3.org/2000/svg"
   xmlns="http://www.w3.org/2000/svg"
   xmlns:inkscape="http://www.inkscape.org/namespaces/inkscape"
   version="1.1"
   width="600"
   height="600"
   id="svg4509">
  <defs
     id="defs4511" />
  <metadata
     id="metadata4514">
    <rdf:RDF>
      <cc:Work
         rdf:about="">
        <dc:format>image/svg+xml</dc:format>
        <dc:type
           rdf:resource="http://purl.org/dc/dcmitype/StillImage" />
        <dc:title />
      </cc:Work>
    </rdf:RDF>
  </metadata>
  <g
     transform="translate(-156.29125,92.50139)"
     id="layer1">
    <path
       d="m 668.38525,-4.6845185 c 54.31201,54.3065475 87.906,129.3072985 87.906,212.1621485 0,165.69765 -134.32199,300.02098 -300.00597,300.02098 -82.836,0 -157.83003,-33.57632 -212.12402,-87.87686"
       inkscape:connector-curvature="0"
       id="path169"
       style="fill:#c1d7e9" />
    <path
       d="M 244.16726,419.62175 C 189.87327,365.3392 156.29125,290.32647 156.29125,207.48363 c 0,-165.679664 134.31602,-299.98502 299.99403,-299.98502 82.82399,0 157.81198,33.564337 212.09997,87.8228767"
       inkscape:connector-curvature="0"
       id="path171"
       style="fill:#f8f6d8" />
    <path
       d="m 616.62332,409.54761 c -16.15792,16.43417 -36.04172,24.65426 -59.67623,24.65426 -26.53779,0 -47.57969,-9.0901 -63.14983,-27.24628 -14.71199,-17.30416 -22.05573,-39.3484 -22.05573,-66.16867 0,-28.82427 12.54006,-61.6866 37.62587,-98.60498 20.46017,-30.28229 44.53785,-56.80256 72.22199,-79.58477 -4.03218,18.45616 -6.05414,31.5723 -6.05414,39.36638 0,17.88017 5.60996,35.31636 16.87216,52.32654 13.82999,20.1902 24.36017,35.18434 31.56603,44.97645 11.24374,17.01015 16.87786,33.60029 16.87786,49.73445 0,23.94024 -8.08818,44.12448 -24.22798,60.54662 z m -0.42607,-92.32891 c -4.33177,-9.65409 -9.37778,-16.08015 -15.14408,-19.24819 0.87025,1.72803 1.29631,4.18805 1.29631,7.35607 0,6.06007 -1.72204,14.71812 -5.1839,25.94424 l -5.62841,17.31018 c 0,10.08012 5.03997,15.13215 15.14408,15.13215 10.65631,0 16.00225,-7.06207 16.00225,-21.1922 0,-7.20606 -2.16622,-15.64817 -6.48625,-25.30225 z"
       inkscape:connector-curvature="0"
       id="path173"
       style="fill:#0d0f0f" />
    <path
       d="m 484.29299,137.07889 c -14.61536,-13.58412 -24.32359,-20.9522 -29.0878,-22.09221 -3.46153,-0.83403 -6.80966,1.18202 -10.03198,6.03008 -3.22232,4.84803 -7.75203,6.57005 -13.60757,5.14805 -2.38261,-0.56402 -7.05053,-2.60405 -13.9984,-6.09607 -5.62775,5.31003 -8.6461,8.8261 -9.06579,10.54809 -0.56999,2.38203 0.53376,5.62807 3.29982,9.72612 2.76003,4.11002 5.36406,6.43206 7.80604,7.02007 1.54189,0.37799 3.73193,0.55201 6.53993,0.54 2.808,-0.0101 4.66189,0.0902 5.55595,0.3063 2.66408,0.62397 2.81404,5.82604 0.47404,15.58215 -2.2199,9.31208 -7.81175,23.11823 -16.7638,41.3524 -0.34857,-23.44821 -3.65409,-35.92835 -9.92999,-37.42834 -0.86991,-0.21035 -2.81438,0.0168 -5.83206,0.66598 -3.03009,0.63601 -5.18423,0.82804 -6.47987,0.51601 -6.28831,-1.51204 -10.54829,-8.60407 -12.78597,-21.28221 -10.33223,-0.86999 -16.54204,3.03602 -18.61835,11.69412 -1.03765,4.35006 0.14426,8.29807 3.53432,11.85011 3.38403,3.56405 4.94369,5.88005 4.69778,6.96005 -1.39192,5.86808 -12.12573,12.79814 -32.12963,20.84424 -10.66202,4.32605 -18.04233,7.36808 -22.12819,9.1321 3.95401,-3.16204 8.21399,-7.54209 12.75577,-13.09814 5.17216,-6.33607 8.23244,-11.43011 9.16844,-15.34817 0.5153,-2.15399 -1.24833,-5.80205 -5.2983,-10.89009 -4.056,-5.09404 -5.55595,-9.79811 -4.5183,-14.12415 0.87595,-3.68402 3.25789,-7.91408 7.15823,-12.72614 -2.03975,-3.91803 -5.00408,-6.36004 -8.90409,-7.29004 -8.66387,-2.07606 -13.67365,-0.29389 -15.02364,5.35202 0.936,-3.89403 0.23484,-0.972 -2.09409,8.77213 -1.50029,7.20003 -7.77619,9.48006 -18.82804,6.84606 -8.45419,-2.03406 -22.17649,-7.37409 -41.18401,-16.03818 23.89183,-0.2402 36.71369,-4.05003 38.47196,-11.41811 -0.20129,0.87599 0,-1.84203 0.57603,-8.11809 0.73773,-6.91809 6.95995,-11.85609 18.64788,-14.78416 0.43814,-10.428119 -3.55781,-16.650136 -12.01805,-18.684162 -1.29564,-0.312003 -4.23582,1.392005 -8.77794,5.118028 -4.55956,3.726056 -8.35791,5.226055 -11.388,4.488083 -5.20202,-1.230031 -10.57211,-8.472097 -16.1039,-21.714252 -2.55606,-6.576056 -6.52215,-16.338168 -11.89191,-29.310291 4.36163,3.786042 8.71789,7.596105 13.08556,11.376142 5.77837,4.596043 10.62042,7.350059 14.51438,8.292074 3.03613,0.719989 6.64795,-1.224026 10.84787,-5.838084 4.18819,-4.614058 8.67629,-6.348059 13.43983,-5.196028 0.66627,0.149962 4.68,2.484015 12.07206,7.014034 5.62204,-5.304022 8.79639,-9.462053 9.52808,-12.504117 0.61192,-2.609991 -0.24155,-5.946045 -2.58591,-10.068077 -2.33397,-4.110022 -4.81185,-6.468063 -7.40984,-7.110084 -1.0863,-0.257991 -2.83216,-0.342063 -5.26207,-0.222093 -2.43595,0.108027 -4.19388,0.02684 -5.27414,-0.233835 -3.89967,-0.930004 -4.68604,-6.270091 -2.35241,-16.032169 0.61225,-2.60402 6.66673,-16.848176 18.13224,-42.738441 -0.99606,3.186023 -1.03766,9.606077 -0.12749,19.2182265 1.0863,11.718104 4.12209,18.1561737 9.10873,19.3681545 0.86353,0.203977 2.75365,-0.03019 5.66968,-0.7139833 2.90965,-0.6720148 5.11814,-0.8400268 6.63017,-0.4680049 4.97992,1.1879942 8.424,4.9980572 10.3319,11.4061012 l 2.77781,9.936095 c 4.54245,1.092012 8.7303,0.377994 12.53401,-2.148024 3.81614,-2.520014 6.27624,-6.066082 7.36187,-10.614117 1.13427,-4.770059 0,-8.8740764 -3.40751,-12.3361047 -3.42026,-3.4500514 -4.97423,-5.82607362 -4.64981,-7.1280665 1.08562,-4.5480346 10.07961,-10.5241048 26.96956,-17.9341818 13.55992,-5.91008 22.25399,-9.222111 26.09394,-9.906103 -12.32367,10.350121 -19.19404,18.420168 -20.58597,24.2822734 -0.72598,3.035993 0.32542,6.738029 3.18643,11.0880924 3.56955,5.2020672 5.47141,8.7540732 5.69954,10.6260922 0.97189,5.520043 -0.87595,12.282126 -5.54421,20.334192 4.86619,5.520075 8.81451,8.634102 11.86238,9.372108 6.26382,1.500031 10.19402,-1.002034 11.74798,-7.500088 0.16103,-0.647995 0.37976,-2.772032 0.67197,-6.372046 0.2751,-3.600015 0.58777,-5.586066 0.90581,-5.976071 1.60193,-2.826011 7.9201,-2.916022 18.97229,-0.269732 6.9358,1.662005 20.87382,7.056072 41.83184,16.194143 -5.07621,0.156002 -12.6964,0.390004 -22.85385,0.71999 -9.29424,0.522019 -14.32818,2.412054 -15.11456,5.658061 -0.35192,1.524052 -0.44317,4.248076 -0.23819,8.184114 0.20465,3.936039 0.0973,6.798048 -0.31535,8.520071 -0.72029,3.042032 -3.34814,5.376051 -7.86643,7.056071 l -12.93627,5.154059 c 1.47647,5.382022 2.52016,8.628097 3.18643,9.690083 1.55396,3.120066 4.15799,5.124066 7.84194,6.012068 2.60436,0.624006 5.53179,-1.086007 8.79002,-5.124067 3.25218,-4.032021 7.27195,-5.472033 12.03582,-4.338019 5.85017,1.392004 11.16591,8.38809 15.94824,21.000205 2.64563,7.04406 6.83381,17.79015 12.5518,32.2203 z m -67.64968,-36.12632 c 3.3119,-13.872169 1.09771,-27.126301 -6.64828,-39.738413 -7.75203,-12.624154 -18.56368,-20.598219 -32.42386,-23.916256 -14.09368,-3.372018 -27.43756,-1.236002 -40.02593,6.414082 -12.58769,7.626065 -20.68795,18.468177 -24.26992,32.502319 -3.54002,13.81812 -1.25974,27.030278 6.84622,39.618408 8.0996,12.60014 19.07999,20.55622 32.95762,23.87422 14.73009,3.52204 28.18804,1.65003 40.35034,-5.64609 12.15022,-7.28403 19.88984,-18.33015 23.21381,-33.10827 z m -4.88397,-1.164041 c -3.16194,13.218131 -10.21784,23.112231 -21.18011,29.634271 -10.95591,6.54009 -23.05749,8.23813 -36.26415,5.07609 -12.78597,-3.06004 -22.66161,-10.12812 -29.63968,-21.18623 -6.97806,-11.0581 -8.93393,-22.968235 -5.87398,-35.772345 3.01801,-12.570141 10.18797,-22.248214 21.55182,-29.046295 11.37593,-6.77406 23.33426,-8.670067 35.89813,-5.658061 12.56388,3.000029 22.36807,10.158121 29.39411,21.4622 7.0257,11.316124 9.07216,23.124272 6.11386,35.49037 z"
       inkscape:connector-curvature="0"
       id="path175"
       style="fill:#0d0f0f" />
  </g>
</svg>
