<?xml version="1.0" encoding="UTF-8" standalone="no"?>
<!-- Created with Inkscape (http://www.inkscape.org/) -->

<svg
   xmlns:dc="http://purl.org/dc/elements/1.1/"
   xmlns:cc="http://creativecommons.org/ns#"
   xmlns:rdf="http://www.w3.org/1999/02/22-rdf-syntax-ns#"
   xmlns:svg="http://www.w3.org/2000/svg"
   xmlns="http://www.w3.org/2000/svg"
   xmlns:inkscape="http://www.inkscape.org/namespaces/inkscape"
   version="1.1"
   width="600"
   height="600"
   id="svg4570">
  <defs
     id="defs4572" />
  <metadata
     id="metadata4575">
    <rdf:RDF>
      <cc:Work
         rdf:about="">
        <dc:format>image/svg+xml</dc:format>
        <dc:type
           rdf:resource="http://purl.org/dc/dcmitype/StillImage" />
        <dc:title />
      </cc:Work>
    </rdf:RDF>
  </metadata>
  <g
     transform="translate(-227.71982,-101.78433)"
     id="layer1">
    <path
       d="m 739.81382,189.6012 c 54.31201,54.30655 87.906,129.3073 87.906,212.16215 0,165.69764 -134.31602,300.02098 -300.00601,300.02098 -82.836,0 -157.82999,-33.57631 -212.12398,-87.87686"
       inkscape:connector-curvature="0"
       id="path179"
       style="fill:#bab1ab" />
    <path
       d="m 315.5958,613.90747 c -54.294,-54.28256 -87.87598,-129.29528 -87.87598,-212.13812 0,-165.67966 134.31599,-299.98502 299.99399,-299.98502 82.824,0 157.81202,33.56434 212.10001,87.82288"
       inkscape:connector-curvature="0"
       id="path181"
       style="fill:#f8f6d8" />
    <path
       d="m 765.4397,497.72229 c 0,16.20616 -5.89144,27.26426 -17.68202,33.15032 -3.44375,1.72202 -14.24365,4.06805 -32.42353,6.99608 -11.77817,1.98001 -17.67598,6.51604 -17.67598,13.62612 v 29.83828 c 0,1.25402 0.37574,5.05207 1.10945,11.43012 l 1.11011,11.79614 c 0,3.67802 -0.86387,9.7021 -2.58591,18.04818 -4.66188,0.97802 -10.06787,2.08801 -16.20589,3.33002 -1.96795,-7.38005 -2.94622,-12.41411 -2.94622,-15.12015 0,-1.21802 0.30194,-3.07202 0.91822,-5.52605 0.61226,-2.44201 0.92359,-4.29605 0.92359,-5.53205 0,-1.70401 -1.51773,-6.49809 -4.57164,-14.36416 h -5.71766 c -0.75651,1.23003 -1.00242,2.83205 -0.76222,4.78207 0.98431,4.18202 1.34999,7.73406 1.11616,10.68608 -4.18248,2.94605 -9.9424,6.87608 -17.3103,11.79013 -1.73379,-0.49199 -2.33397,-0.738 -1.84819,-0.738 v -26.15426 c -0.48578,-1.21802 -1.70962,-1.71002 -3.68395,-1.47601 h -4.42201 l -4.42168,34.62632 c -3.43837,0.24591 -7.60811,0.24591 -12.51624,0 -1.72204,-8.10605 -4.79373,-20.12418 -9.21004,-36.10233 h -2.95796 c -2.69998,8.59807 -4.16973,13.26611 -4.42202,14.00411 0,0.97801 0.312,2.87405 0.9303,5.70607 0.61192,2.83202 0.91789,4.72205 0.91789,5.70607 0,0.732 -0.25162,2.58003 -0.75015,5.52605 l -1.10374,8.85009 c -0.49853,0.47401 -1.09837,0.71999 -1.8361,0.71999 -7.36824,0 -12.28845,-1.842 -14.7301,-5.51404 -2.47185,-3.69002 -3.45582,-8.85009 -2.95796,-15.48016 l 2.95796,-44.19043 c 0,-0.73804 0.23484,-1.72202 0.72599,-2.95205 0.49182,-1.21799 0.73806,-2.08801 0.73806,-2.56802 0,-1.96801 -2.08805,-5.90404 -6.25812,-11.80812 -0.73806,-0.23987 -4.54211,-1.10999 -11.4239,-2.58604 -4.17006,-0.972 -12.39613,-2.69399 -24.67183,-5.14204 -16.94999,-3.18603 -25.42834,-16.81815 -25.42834,-40.88437 0,-35.86837 14.74217,-65.69467 44.20203,-89.52092 1.22418,6.63608 3.32397,15.46815 6.27019,26.52028 2.20782,0.504 7.00223,1.614 14.36409,3.32404 1.48183,0.48599 8.96379,3.19203 22.46971,8.10605 -6.87004,-4.17001 -15.83988,-10.9081 -26.87999,-20.25019 -4.1818,-4.90804 -6.27589,-13.14013 -6.27589,-24.67825 0,-2.71201 4.66792,-5.89206 14.01014,-9.6001 8.34584,-3.432 14.60362,-5.37605 18.7861,-5.87405 13.25363,-1.71602 23.44765,-2.58604 30.57568,-2.58604 30.69041,0 55.50012,7.86611 74.40599,23.59225 -6.13198,7.12806 -16.69771,14.71816 -31.67372,22.83622 5.89211,0.24591 14.48989,-2.082 25.78765,-7.00806 11.29239,-4.89003 16.08009,-7.36808 14.36442,-7.36808 1.96158,0 5.89781,3.93604 11.78958,11.79014 4.40424,5.89206 7.97378,11.1781 10.68013,15.84017 7.86006,13.99811 13.13991,29.11825 15.84592,45.31243 0,5.65206 0.12077,9.70209 0.36803,12.15011 l 0,2.94004 0,0 z m -141.09586,6.64805 c 0,-10.5661 -4.60217,-20.57419 -13.80583,-30.03628 -9.21642,-9.45608 -19.11588,-14.17813 -29.66417,-14.17813 -9.32981,0 -17.54984,3.96002 -24.67787,11.8681 -7.12199,7.91408 -10.68047,16.69217 -10.68047,26.34025 0,8.4001 4.05064,13.85412 12.1566,16.31415 5.15974,1.48802 12.3958,2.35203 21.72561,2.60405 h 20.26223 c 16.45817,0.21002 24.6839,-4.09204 24.6839,-12.91214 z m 40.15778,45.67245 v -11.4061 c -1.71567,-3.19803 -3.43771,-6.52808 -5.14801,-9.96012 -1.47545,-4.90204 -4.1818,-11.77812 -8.10596,-20.63418 l -4.05567,43.10442 c 0,3.45602 -0.73202,5.16604 -2.21419,5.16604 -0.97794,0 -1.72204,-0.23988 -2.20749,-0.73801 -1.72237,-26.02825 -2.5745,-37.33236 -2.5745,-33.87634 v -12.88811 c -0.49819,-0.75599 -1.11012,-1.12801 -1.84818,-1.12801 -8.34584,8.62209 -12.51557,22.48822 -12.51557,41.62841 0,10.56611 0.97794,17.07017 2.93985,19.54221 1.97399,-0.49203 4.17006,-1.35601 6.63587,-2.58604 0.97827,-0.498 3.79802,-0.73801 8.46628,-0.73801 4.6498,0 10.31982,1.47001 16.93758,4.41005 2.46614,-0.0168 3.68999,-6.63007 3.68999,-19.89621 z m 83.25606,-51.33648 c 0,-9.87611 -3.68395,-18.71419 -11.05185,-26.50826 -7.3679,-7.7821 -15.84022,-11.67013 -25.40419,-11.67013 -10.31983,0 -19.96768,4.72205 -28.92577,14.16615 -8.96984,9.45608 -13.4519,19.34417 -13.4519,29.67027 0,8.5921 4.1818,12.88214 12.52798,12.88214 h 42.35385 c 15.97239,-0.23987 23.95188,-6.40807 23.95188,-18.54017 z"
       inkscape:connector-curvature="0"
       id="path183"
       style="fill:#0d0f0f" />
    <path
       d="m 555.72227,331.36461 c -14.61637,-13.58412 -24.32461,-20.95219 -29.08848,-22.09221 -3.46186,-0.83402 -6.80999,1.18202 -10.03164,6.03008 -3.22199,4.84803 -7.75237,6.57005 -13.60824,5.14805 -2.38194,-0.56402 -7.0502,-2.59204 -13.99807,-6.09607 -5.62774,5.31003 -8.64609,8.8261 -9.06612,10.54809 -0.56965,2.38203 0.53409,5.62807 3.29982,9.73809 2.76036,4.09805 5.36439,6.42009 7.80604,7.0081 1.54256,0.37799 3.7326,0.55201 6.5406,0.54 2.808,0 4.66155,0.0903 5.55561,0.3063 2.66442,0.62998 2.81404,5.82604 0.47438,15.58215 -2.22023,9.31209 -7.81242,23.11823 -16.76447,41.3524 -0.34824,-23.44821 -3.65376,-35.92834 -9.92966,-37.42834 -0.87024,-0.21035 -2.81404,0.0168 -5.83239,0.66597 -3.03009,0.63602 -5.1839,0.82805 -6.47987,0.51602 -6.28764,-1.50003 -10.54762,-8.60408 -12.78597,-21.28221 -10.3319,-0.86999 -16.54204,3.03602 -18.61802,11.69411 -1.03799,4.35007 0.14426,8.29808 3.53399,11.85012 3.38403,3.56405 4.94403,5.88606 4.69778,6.96006 -1.39159,5.86807 -12.1254,12.79813 -32.12964,20.84423 -10.66201,4.33805 -18.04199,7.37408 -22.12819,9.14408 3.95402,-3.17402 8.21433,-7.54807 12.75611,-13.11011 5.17216,-6.32407 8.23211,-11.43012 9.16811,-15.34818 0.51631,-2.14202 -1.24834,-5.79004 -5.2983,-10.87808 -4.056,-5.10605 -5.55595,-9.80411 -4.51796,-14.12415 0.87628,-3.69603 3.25822,-7.92609 7.15822,-12.73815 -2.04008,-3.91803 -5.00408,-6.35403 -8.90442,-7.27807 -8.66354,-2.08804 -13.67365,-0.3063 -15.02364,5.34006 0.936,-3.89404 0.23484,-0.97201 -2.09409,8.7841 -1.49962,7.18805 -7.77585,9.46809 -18.8277,6.83407 -8.45386,-2.01604 -22.17583,-7.36807 -41.18402,-16.0322 23.89217,-0.24625 36.71369,-4.05 38.47197,-11.42408 -0.19458,0.87599 0,-1.84203 0.57569,-8.11809 0.73806,-6.90608 6.96028,-11.85609 18.64787,-14.78416 0.43848,-10.41611 -3.5578,-16.65014 -12.0177,-18.66618 -1.29598,-0.32978 -4.23582,1.37402 -8.77828,5.10005 -4.55956,3.72605 -8.35758,5.22605 -11.38767,4.50002 -5.20201,-1.24197 -10.5721,-8.48404 -16.1039,-21.72619 -2.55639,-6.57606 -6.52248,-16.33817 -11.8919,-29.31029 4.36196,3.78604 8.71755,7.5961 13.08589,11.37614 5.7777,4.59604 10.61974,7.35006 14.51404,8.29207 3.0358,0.71999 6.64795,-1.21205 10.84754,-5.83808 4.18818,-4.60205 8.67629,-6.33605 13.44016,-5.19603 0.66627,0.14996 4.68,2.48402 12.07206,7.01403 5.62238,-5.29201 8.79605,-9.46205 9.52808,-12.50411 0.61226,-2.59201 -0.23819,-5.94605 -2.58625,-10.06808 -2.33396,-4.11002 -4.81184,-6.46806 -7.40983,-7.11008 -1.08596,-0.25799 -2.83182,-0.34207 -5.26207,-0.2221 -2.43595,0.10803 -4.19388,0.0359 -5.27414,-0.23383 -3.89967,-0.93001 -4.68571,-6.27009 -2.35141,-16.02019 0.61125,-2.616 6.66573,-16.85419 18.13157,-42.75042 -0.99605,3.18602 -1.03799,9.60608 -0.12413,19.2302 1.08596,11.71814 4.12209,18.1442 9.10806,19.35618 0.86353,0.20398 2.75365,-0.0302 5.66968,-0.71398 2.90998,-0.67202 5.11814,-0.84003 6.63017,-0.46801 4.97992,1.20001 8.424,4.99806 10.3319,11.4061 l 2.77814,9.9361 c 4.54212,1.09201 8.72996,0.37799 12.53402,-2.14202 3.81579,-2.52602 6.2759,-6.07209 7.36186,-10.62012 1.13393,-4.75805 0,-8.87408 -3.40785,-12.33611 -3.41992,-3.45005 -4.97388,-5.82607 -4.64981,-7.12807 1.08563,-4.54803 10.07962,-10.5241 26.9699,-17.92217 13.55993,-5.92209 22.254,-9.23412 26.09395,-9.91811 -12.32401,10.35012 -19.19405,18.42017 -20.58597,24.28227 -0.72633,3.036 0.33212,6.73803 3.18609,11.0881 3.56988,5.20206 5.47174,8.75407 5.69954,10.62609 0.97189,5.52004 -0.87562,12.29413 -5.54388,20.33419 4.86586,5.52008 8.81417,8.6341 11.86205,9.37211 6.26415,1.50003 10.19401,-1.00204 11.74797,-7.50009 0.16104,-0.64799 0.37977,-2.77203 0.67198,-6.36004 0.2751,-3.61202 0.5881,-5.59807 0.90614,-5.98808 1.6016,-2.82601 7.92011,-2.90401 18.97196,-0.26973 6.93613,1.66201 20.87381,7.05607 41.83217,16.19414 -5.07621,0.15601 -12.69606,0.39001 -22.85384,0.71999 -9.29392,0.52202 -14.32819,2.41806 -15.11423,5.67008 -0.35192,1.51204 -0.44384,4.24203 -0.23819,8.18411 0.20464,3.936 0.0939,6.78604 -0.31536,8.50806 -0.71995,3.04203 -3.34813,5.37605 -7.86609,7.05607 l -12.93559,5.15406 c 1.47546,5.39403 2.51982,8.6281 3.18575,9.69008 1.55397,3.12607 4.15799,5.13004 7.84194,6.01207 2.60403,0.62401 5.53213,-1.08601 8.79002,-5.12407 3.25185,-4.03202 7.27195,-5.46602 12.03582,-4.33802 5.85051,1.39801 11.16625,8.3941 15.94824,21.00021 2.64596,7.05607 6.83381,17.79015 12.55214,32.2203 z m -67.65035,-36.12032 c 3.3119,-13.86619 1.09837,-27.1263 -6.64795,-39.74441 -7.75203,-12.62416 -18.56435,-20.59822 -32.42386,-23.89828 -14.09436,-3.38399 -27.43823,-1.25398 -40.02593,6.3961 -12.58837,7.62607 -20.68796,18.46818 -24.27025,32.50232 -3.54003,13.81812 -1.26008,27.03029 6.84588,39.62441 8.10026,12.57612 19.07998,20.54421 32.95795,23.86221 14.7301,3.51605 28.18837,1.63802 40.35001,-5.63407 12.15022,-7.29004 19.89017,-18.33616 23.21415,-33.10828 z m -4.88398,-1.17004 c -3.16227,13.21813 -10.21817,23.11223 -21.17978,29.63427 -10.95623,6.55207 -23.05815,8.23813 -36.26448,5.07609 -12.78596,-3.06005 -22.66194,-10.12813 -29.64001,-21.18623 -6.97806,-11.0581 -8.93394,-22.96823 -5.87399,-35.77235 3.01835,-12.57014 10.18832,-22.24821 21.5525,-29.04629 11.37559,-6.77406 23.33359,-8.65809 35.89746,-5.65806 12.56388,3.00003 22.36806,10.15812 29.3941,21.4622 7.02638,11.31612 9.07216,23.12427 6.1142,35.49037 z"
       inkscape:connector-curvature="0"
       id="path185"
       style="fill:#0d0f0f" />
  </g>
</svg>
