<?xml version="1.0" encoding="UTF-8" standalone="no"?>
<!-- Created with Inkscape (http://www.inkscape.org/) -->

<svg
   xmlns:dc="http://purl.org/dc/elements/1.1/"
   xmlns:cc="http://creativecommons.org/ns#"
   xmlns:rdf="http://www.w3.org/1999/02/22-rdf-syntax-ns#"
   xmlns:svg="http://www.w3.org/2000/svg"
   xmlns="http://www.w3.org/2000/svg"
   xmlns:inkscape="http://www.inkscape.org/namespaces/inkscape"
   version="1.1"
   width="600"
   height="600"
   id="svg4591">
  <defs
     id="defs4593" />
  <metadata
     id="metadata4596">
    <rdf:RDF>
      <cc:Work
         rdf:about="">
        <dc:format>image/svg+xml</dc:format>
        <dc:type
           rdf:resource="http://purl.org/dc/dcmitype/StillImage" />
        <dc:title />
      </cc:Work>
    </rdf:RDF>
  </metadata>
  <g
     transform="translate(-239.14839,186.7871)"
     id="layer1">
    <path
       d="m 751.24239,-98.970229 c 54.31201,54.306548 87.906,129.307299 87.906,212.162149 0,165.69764 -134.32199,300.02098 -300,300.02098 -82.84201,0 -157.83,-33.57631 -212.12399,-87.87686"
       inkscape:connector-curvature="0"
       id="path189"
       style="fill:#bab1ab" />
    <path
       d="m 327.0244,325.33604 c -54.29399,-54.28256 -87.87601,-129.29528 -87.87601,-212.13812 0,-165.679664 134.32199,-299.98502 300,-299.98502 82.81201,0 157.80601,33.56434 212.094,87.822877"
       inkscape:connector-curvature="0"
       id="path191"
       style="fill:#c1d7e9" />
    <path
       d="m 485.84468,102.14579 c -16.15222,16.41617 -36.04239,24.64225 -59.67623,24.64225 -26.53176,0 -47.57365,-9.07808 -63.14413,-27.246267 -14.71198,-17.310175 -22.06177,-39.360384 -22.06177,-66.162671 0,-28.8303086 12.53972,-61.704615 37.62554,-98.616982 20.46654,-30.264315 44.53819,-56.79056 72.22233,-79.57281 -4.03789,18.46218 -6.05381,31.57232 -6.05381,39.35438 0,17.880205 5.60996,35.334372 16.86579,52.338549 13.83603,20.178223 24.36586,35.178333 31.57173,44.9764428 11.24441,17.0161876 16.87249,33.6003342 16.87249,49.7225152 0,23.958227 -8.08214,44.12444 -24.22194,60.564593 z M 485.41257,9.8288613 c -4.32606,-9.66606203 -9.36637,-16.0861831 -15.13804,-19.2662008 0.86957,1.7340336 1.29564,4.1820513 1.29564,7.3680742 0,6.0600761 -1.72171,14.7001503 -5.18356,25.9382733 l -5.62808,17.310141 c 0,10.086126 5.04601,15.126186 15.1377,15.126186 10.66236,0 16.00796,-7.068081 16.00796,-21.186195 0,-7.212106 -2.17192,-15.642165 -6.49162,-25.2902787 z"
       inkscape:connector-curvature="0"
       id="path193"
       style="fill:#0d0f0f" />
    <path
       d="m 776.86843,209.15086 c 0,16.20616 -5.89197,27.26426 -17.68198,33.15032 -3.44398,1.72202 -14.24408,4.06805 -32.42406,6.99608 -11.77777,1.98001 -17.67585,6.51604 -17.67585,13.62612 v 29.83828 c 0,1.25402 0.3798,5.05207 1.10381,11.43012 l 1.10991,11.79614 c 0,3.67802 -0.8638,9.7021 -2.58597,18.04818 -4.66165,0.97802 -10.06784,2.08801 -16.20589,3.33002 -1.96795,-7.38005 -2.94599,-12.41411 -2.94599,-15.12015 0,-1.21802 0.30194,-3.07202 0.91802,-5.52605 0.61226,-2.44201 0.92379,-4.29605 0.92379,-5.53205 0,-1.70401 -1.51773,-6.49809 -4.57184,-14.36416 h -5.71769 c -0.75635,1.23003 -1.00213,2.83205 -0.76209,4.78207 0.98415,4.18202 1.34992,7.73406 1.10988,10.68608 -4.18197,2.94605 -9.94206,6.87608 -17.3097,11.79013 -1.73438,-0.49199 -2.33443,-0.738 -1.84828,-0.738 v -26.15426 c -0.48615,-1.21802 -1.70996,-1.71002 -3.68388,-1.47601 h -4.42201 l -4.42202,34.62632 c -3.43804,0.24591 -7.60811,0.24591 -12.51624,0 -1.72204,-8.10605 -4.79406,-20.12418 -9.21004,-36.10233 h -2.95796 c -2.69998,8.59807 -4.16973,13.26611 -4.42168,14.00411 0,0.97801 0.312,2.87405 0.92996,5.70607 0.60555,2.83202 0.91788,4.72205 0.91788,5.70607 0,0.732 -0.25161,2.58003 -0.7498,5.52605 l -1.10408,8.85009 c -0.49819,0.47401 -1.09804,0.71999 -1.8361,0.71999 -7.36824,0 -12.28811,-1.842 -14.7301,-5.51404 -2.47185,-3.69002 -3.45616,-8.85009 -2.95763,-15.48016 l 2.95763,-44.19043 c 0,-0.73804 0.23484,-1.72202 0.72599,-2.95205 0.49215,-1.21799 0.73806,-2.08801 0.73806,-2.56802 0,-1.96801 -2.08805,-5.90404 -6.25778,-11.80812 -0.7384,-0.23987 -4.54212,-1.10999 -11.42424,-2.58604 -4.16973,-0.972 -12.40184,-2.69399 -24.67183,-5.14204 -16.95033,-3.18603 -25.42801,-16.81815 -25.42801,-40.88437 0,-35.86837 14.74184,-65.69467 44.2017,-89.52092 1.22418,6.63608 3.32431,15.46815 6.26986,26.52028 2.20815,0.504 7.00222,1.614 14.36408,3.32404 1.48217,0.48599 8.96413,3.19203 22.47038,8.10605 -6.87004,-4.17001 -15.83987,-10.9081 -26.87998,-20.25019 -4.18248,-4.90804 -6.27624,-13.14013 -6.27624,-24.67825 0,-2.71201 4.66793,-5.89206 14.00982,-9.600101 8.34617,-3.432002 14.60429,-5.376051 18.78643,-5.874049 13.25397,-1.716017 23.44765,-2.586037 30.57601,-2.586037 30.68964,0 55.49993,7.866105 74.40569,23.592247 -6.13197,7.12806 -16.69818,14.71816 -31.67418,22.83622 5.8923,0.24591 14.49059,-2.082 25.78835,-7.00806 11.29199,-4.89003 16.07978,-7.36808 14.36375,-7.36808 1.96218,0 5.89804,3.93604 11.79001,11.79014 4.41014,5.89206 7.97412,11.1781 10.68044,15.84017 7.85955,13.99811 13.13994,29.11825 15.84555,45.31243 0,5.65206 0.12211,9.70209 0.36829,12.15011 l 0,2.94004 0,0 z m -141.09561,6.64805 c 0,-10.5661 -4.60217,-20.57419 -13.80651,-30.03628 -9.21608,-9.45608 -19.10984,-14.17813 -29.66417,-14.17813 -9.32981,0 -17.54984,3.96002 -24.67787,11.8681 -7.12165,7.91408 -10.6798,16.69217 -10.6798,26.34025 0,8.4001 4.04997,13.85412 12.15593,16.31415 5.16008,1.48802 12.3958,2.35203 21.72628,2.60405 h 20.26189 c 16.45784,0.21002 24.68425,-4.09204 24.68425,-12.91214 z m 40.15777,45.67245 v -11.4061 c -1.71607,-3.19803 -3.43824,-6.52808 -5.14821,-9.96012 -1.47602,-4.90204 -4.18197,-11.77812 -8.10599,-20.63418 l -4.05577,43.10442 c 0,3.45602 -0.73203,5.16604 -2.21419,5.16604 -0.9776,0 -1.72171,-0.23988 -2.20782,-0.73801 -1.72204,-26.02825 -2.57417,-37.33236 -2.57417,-33.87634 v -12.88811 c -0.4982,-0.75599 -1.11012,-1.12801 -1.84785,-1.12801 -8.34617,8.62209 -12.51624,22.48822 -12.51624,41.62841 0,10.56611 0.97794,17.07017 2.94018,19.54221 1.97399,-0.49203 4.17007,-1.35601 6.64192,-2.58604 0.97793,-0.498 3.79801,-0.73801 8.46594,-0.73801 4.65017,0 10.32009,1.47001 16.93818,4.41005 2.45984,-0.0168 3.68402,-6.63007 3.68402,-19.89621 z m 83.25586,-51.33648 c 0,-9.87611 -3.68399,-18.71419 -11.05199,-26.50826 -7.368,-7.7821 -15.83977,-11.67013 -25.40385,-11.67013 -10.32046,0 -19.96828,4.72205 -28.92584,14.16615 -8.9705,9.45608 -13.45217,19.34417 -13.45217,29.67027 0,8.5921 4.18164,12.88214 12.52768,12.88214 h 42.35429 c 15.97199,-0.23987 23.95188,-6.40807 23.95188,-18.54017 z"
       inkscape:connector-curvature="0"
       id="path195"
       style="fill:#0d0f0f" />
  </g>
</svg>
