<?xml version="1.0" encoding="UTF-8" standalone="no"?>
<!-- Created with Inkscape (http://www.inkscape.org/) -->

<svg
   xmlns:dc="http://purl.org/dc/elements/1.1/"
   xmlns:cc="http://creativecommons.org/ns#"
   xmlns:rdf="http://www.w3.org/1999/02/22-rdf-syntax-ns#"
   xmlns:svg="http://www.w3.org/2000/svg"
   xmlns="http://www.w3.org/2000/svg"
   xmlns:inkscape="http://www.inkscape.org/namespaces/inkscape"
   version="1.1"
   width="600"
   height="600"
   id="svg4644">
  <defs
     id="defs4646" />
  <metadata
     id="metadata4649">
    <rdf:RDF>
      <cc:Work
         rdf:about="">
        <dc:format>image/svg+xml</dc:format>
        <dc:type
           rdf:resource="http://purl.org/dc/dcmitype/StillImage" />
        <dc:title />
      </cc:Work>
    </rdf:RDF>
  </metadata>
  <g
     transform="translate(-24.862674,243.92996)"
     id="layer1">
    <path
       d="m 536.95667,-156.11309 c 54.31198,54.30655 87.906,129.3073 87.906,212.162145 0,165.697645 -134.32203,300.020985 -300,300.020985 -82.842,0 -157.83002,-33.57631 -212.12402,-87.87686"
       inkscape:connector-curvature="0"
       id="path199"
       style="fill:#e49977" />
    <path
       d="M 112.73865,268.19318 C 58.444658,213.91062 24.862674,138.8979 24.862674,56.05506 c 0,-165.67966 134.321996,-299.98502 299.999996,-299.98502 82.81198,0 157.80598,33.56434 212.094,87.82288"
       inkscape:connector-curvature="0"
       id="path201"
       style="fill:#c1d7e9" />
    <path
       d="m 554.66271,202.70249 c -10.30801,24.60025 -30.78002,36.87637 -61.44001,36.87637 -5.622,0 -11.71204,0.69 -18.26405,2.10002 -9.83394,2.11803 -14.74798,5.04006 -14.74798,8.7901 0,1.17002 0.81604,2.50801 2.46001,4.04404 1.63203,1.51801 3.04804,2.28601 4.21804,2.28601 -5.86201,0 -1.88405,0.17411 11.92199,0.51 13.81799,0.36002 22.48203,0.534 25.998,0.534 -20.36398,11.93412 -54.42,17.43618 -102.174,16.50017 -15.68402,-0.22209 -29.14202,-7.12806 -40.37403,-20.70621 -11.01001,-12.87611 -16.50598,-27.27026 -16.50598,-43.18242 0,-16.86016 5.67599,-31.18832 17.034,-43.02042 11.34,-11.80812 25.452,-17.71816 42.30601,-17.71816 3.738,0 8.71802,0.82201 14.91599,2.44802 6.20397,1.63801 10.36203,2.46002 12.46199,2.46002 8.66397,0 19.43402,-3.58203 32.31003,-10.7101 12.87598,-7.13407 18.95998,-10.71013 18.25801,-10.71013 -2.34601,24.58227 -10.53601,41.09442 -24.58205,49.50049 -10.06798,5.86805 -15.09598,11.60411 -15.09598,17.20218 0,3.51601 2.1,6.33005 6.312,8.43607 3.276,1.62604 6.90597,2.44802 10.88998,2.44802 6.084,0 12.04803,-3.73804 17.90401,-11.23209 5.84403,-7.4821 8.418,-14.27415 7.71603,-20.36421 -0.69603,-7.03209 -0.22209,-15.45614 1.40994,-25.27824 0.46206,-2.82004 2.16605,-6.27006 5.08805,-10.3621 2.92797,-4.10405 5.56799,-6.62406 7.90199,-7.57208 0,2.124 -0.76202,5.63404 -2.28002,10.53611 -1.52397,4.92003 -2.28001,8.56208 -2.28001,10.88409 0,5.16006 1.404,9.1381 4.21804,11.94013 4.20596,-1.62601 7.94396,-6.90007 11.232,-15.80414 2.808,-6.7801 4.44,-13.34415 4.92001,-19.64423 -9.84001,-0.46801 -19.26604,-4.92002 -28.266,-13.36213 -9.00601,-8.42408 -13.51199,-17.55015 -13.51199,-27.378249 0,-1.62604 0.22209,-3.282039 0.70196,-4.914051 1.39199,2.117999 3.498,5.394033 6.31804,9.840079 3.97196,5.850061 7.02,8.778091 9.12597,8.778091 2.808,0 4.212,-2.92803 4.212,-8.778091 0,-7.494049 -1.99197,-14.28012 -5.97,-20.370189 -4.45801,-7.266086 -10.19399,-10.884116 -17.20198,-10.884116 -3.28801,0 -8.19604,1.752016 -14.74801,5.268058 -6.55804,3.504031 -12.52801,5.268057 -17.89801,5.268057 -1.63796,0 -8.90401,-2.118032 -21.77398,-6.324071 22.69794,-3.750044 34.05599,-7.140077 34.05599,-10.194085 0,-7.950112 -15.56401,-13.338139 -46.69804,-16.128186 -3.04797,-0.233835 -8.65793,-0.702008 -16.85398,-1.41002 0.93,-1.164007 7.60798,-2.442013 20.01602,-3.86401 10.52997,-1.15203 17.89797,-1.758021 22.10997,-1.758021 55.70998,0 91.05003,27.036256 106.03801,81.126814 2.58602,-2.14802 3.87005,-5.70006 3.87005,-10.68014 0,-6.40804 -1.872,-14.472116 -5.62201,-24.19823 -1.41004,-3.81003 -3.64205,-9.504089 -6.67804,-17.094155 19.188,24.450252 28.80002,47.628475 28.80002,69.498695 0,11.53211 -2.70601,22.0022 -8.08801,31.39229 -3.49799,6.35406 -10.06801,14.46014 -19.65598,24.35423 -9.60004,9.87011 -16.146,17.51419 -19.66204,22.92624 12.87604,-3.51605 21.30601,-6.21004 25.28405,-8.08206 8.88597,-3.98405 16.96798,-9.96012 24.22198,-17.9102 0,3.06002 -1.29,7.63207 -3.858,13.68614 z M 401.57867,64.725128 c 0,4.206038 -2.34597,6.912079 -7.02,8.088063 l -9.12594,1.392038 c -3.28204,1.632012 -8.08205,8.088064 -14.38804,19.314175 -0.71401,-3.504031 -1.758,-8.418082 -3.16801,-14.74212 -2.106,0.222093 -5.60999,2.111994 -10.52997,5.616025 -2.10596,1.638017 -5.50204,4.104051 -10.19401,7.37408 1.41,-8.418083 6.10201,-16.956169 14.05198,-25.626236 8.424,-9.588095 16.62001,-14.376171 24.57601,-14.376171 10.53001,-0.01342 15.79798,4.314066 15.79798,12.960146 z m 61.09201,32.310318 c 0,3.972034 -2.16599,7.320064 -6.49799,10.008094 -4.33201,2.68205 -8.60403,4.03806 -12.80999,4.03806 -5.62798,0 -10.66198,-3.14402 -15.10201,-9.48611 -5.38798,-7.710069 -10.88401,-12.750129 -16.50001,-15.096159 1.16403,-1.170012 2.57403,-1.758021 4.22404,-1.758021 2.09399,0 5.66398,1.626041 10.69795,4.90808 5.02203,3.294016 8.24999,4.920023 9.66003,4.920023 1.17003,0 3.09598,-1.626007 5.78398,-4.920023 2.68803,-3.282039 5.67602,-4.90808 8.95802,-4.90808 7.72801,0 11.58598,4.104051 11.58598,12.294136 z"
       inkscape:connector-curvature="0"
       id="path203"
       style="fill:#0d0f0f" />
    <path
       d="m 271.5587,45.002932 c -16.15802,16.416169 -36.04199,24.642252 -59.676,24.642252 -26.53199,0 -47.57395,-9.078087 -63.144,-27.246271 -14.71194,-17.310175 -22.06199,-39.3603844 -22.06199,-66.162671 0,-28.830309 12.54002,-61.704615 37.63204,-98.616982 20.46597,-30.26432 44.53799,-56.79056 72.22196,-79.57281 -4.03798,18.46218 -6.05401,31.57232 -6.05401,39.35438 0,17.88021 5.61,35.33437 16.86602,52.33855 13.83604,20.178222 24.36597,35.178332 31.57199,44.976442 11.24398,17.016187 16.87196,33.600334 16.87196,49.722515 -0.007,23.9582268 -8.08798,44.12444 -24.22797,60.564595 z m -0.43197,-92.316931 c -4.326,-9.666062 -9.36604,-16.086183 -15.13801,-19.2662 0.86997,1.734033 1.29597,4.182051 1.29597,7.368074 0,6.060076 -1.72194,14.70015 -5.184,25.938273 l -5.62798,17.310141 c 0,10.0861261 5.04599,15.12618632 15.13802,15.12618632 10.66201,0 16.00794,-7.06808142 16.00794,-21.18619532 -0.007,-7.212106 -2.17198,-15.642165 -6.49194,-25.290279 z"
       inkscape:connector-curvature="0"
       id="path205"
       style="fill:#0d0f0f" />
  </g>
</svg>
