<?xml version="1.0" encoding="UTF-8" standalone="no"?>
<!-- Created with Inkscape (http://www.inkscape.org/) -->

<svg
   xmlns:dc="http://purl.org/dc/elements/1.1/"
   xmlns:cc="http://creativecommons.org/ns#"
   xmlns:rdf="http://www.w3.org/1999/02/22-rdf-syntax-ns#"
   xmlns:svg="http://www.w3.org/2000/svg"
   xmlns="http://www.w3.org/2000/svg"
   xmlns:inkscape="http://www.inkscape.org/namespaces/inkscape"
   version="1.1"
   width="600"
   height="600"
   id="svg4681">
  <defs
     id="defs4683" />
  <metadata
     id="metadata4686">
    <rdf:RDF>
      <cc:Work
         rdf:about="">
        <dc:format>image/svg+xml</dc:format>
        <dc:type
           rdf:resource="http://purl.org/dc/dcmitype/StillImage" />
        <dc:title />
      </cc:Work>
    </rdf:RDF>
  </metadata>
  <g
     transform="translate(-230.57696,338.21567)"
     id="layer1">
    <path
       d="m 742.67096,-250.39879 c 54.31201,54.30654 87.906,129.30729 87.906,212.162139 0,165.697641 -134.32199,300.020981 -300,300.020981 -82.84201,0 -157.83,-33.57631 -212.12399,-87.87686"
       inkscape:connector-curvature="0"
       id="path209"
       style="fill:#e49977" />
    <path
       d="M 318.45297,173.90747 C 264.15898,119.62491 230.57696,44.612188 230.57696,-38.230646 c 0,-165.679664 134.32199,-299.985024 300,-299.985024 82.81201,0 157.80601,33.56434 212.094,87.82288"
       inkscape:connector-curvature="0"
       id="path211"
       style="fill:#bab1ab" />
    <path
       d="m 760.377,108.41679 c -10.30798,24.60024 -30.77999,36.87636 -61.44001,36.87636 -5.622,0 -11.71194,0.69 -18.26395,2.10002 -9.83404,2.11803 -14.74808,5.04006 -14.74808,8.7901 0,1.17002 0.81604,2.50801 2.46004,4.04404 1.62599,1.51801 3.04801,2.28601 4.21801,2.28601 -5.86201,0 -1.88401,0.17412 11.92199,0.51001 13.81802,0.36001 22.48203,0.53399 25.998,0.53399 -20.36398,11.93412 -54.42,17.43618 -102.17397,16.50017 -15.68401,-0.22209 -29.14202,-7.12806 -40.37402,-20.70621 -11.01005,-12.8761 -16.50602,-27.27026 -16.50602,-43.18242 0,-16.860154 5.67599,-31.188316 17.034,-43.020419 11.34,-11.808115 25.45203,-17.718161 42.30601,-17.718161 3.738,0 8.71802,0.822011 14.91599,2.448018 6.204,1.638017 10.36203,2.460028 12.46199,2.460028 8.66404,0 19.43402,-3.582032 32.31003,-10.710099 12.87597,-7.134071 18.95998,-10.710132 18.25801,-10.710132 -2.34601,24.582266 -10.53601,41.094418 -24.58202,49.50049 -10.06801,5.868043 -15.09601,11.604105 -15.09601,17.202185 0,3.516 2.1,6.33004 6.312,8.43606 3.276,1.62604 6.906,2.44802 10.89001,2.44802 6.084,0 12.048,-3.73804 17.90401,-11.23208 5.844,-7.482111 8.41797,-14.274153 7.716,-20.364222 -0.69603,-7.032084 -0.22209,-15.456138 1.40997,-25.278235 0.46203,-2.820039 2.16605,-6.270057 5.08802,-10.362097 2.92797,-4.104051 5.56799,-6.624064 7.90199,-7.572084 0,2.124004 -0.76202,5.63404 -2.27998,10.536115 -1.52401,4.920022 -2.28002,8.562073 -2.28002,10.884082 0,5.160064 1.404,9.138105 4.21801,11.940129 4.20599,-1.626006 7.94396,-6.900069 11.232,-15.804138 2.808,-6.780099 4.44,-13.344144 4.92001,-19.644228 -9.83998,-0.468005 -19.26604,-4.920023 -28.26601,-13.362126 -9.006,-8.424088 -13.51198,-17.5501494 -13.51198,-27.3782518 0,-1.6260401 0.22209,-3.2820393 0.70196,-4.9140511 1.39199,2.1179988 3.49799,5.39403291 6.31804,9.8400792 3.972,5.8500609 7.02,8.7780937 9.12597,8.7780937 2.808,0 4.212,-2.9280328 4.212,-8.7780937 0,-7.4940496 -1.99197,-14.2801203 -5.97,-20.3701893 -4.45802,-7.266086 -10.19399,-10.884115 -17.20198,-10.884115 -3.28801,0 -8.19601,1.752015 -14.74801,5.268057 -6.55801,3.504031 -12.52801,5.268057 -17.89801,5.268057 -1.63796,0 -8.90394,-2.118032 -21.77398,-6.324071 22.69794,-3.750044 34.05599,-7.140076 34.05599,-10.194085 0,-7.950111 -15.56401,-13.338139 -46.698,-16.128186 -3.04801,-0.233835 -8.65797,-0.702007 -16.85401,-1.41002 0.92999,-1.164007 7.60804,-2.442012 20.01601,-3.864009 10.53001,-1.15203 17.89797,-1.758021 22.10998,-1.758021 55.71,0 91.05002,27.036256 106.03804,81.126816 2.58597,-2.148025 3.87594,-5.700064 3.87594,-10.680139 0,-6.4080439 -1.87794,-14.47212009 -5.62794,-24.198234 -1.41001,-3.81003 -3.64205,-9.504089 -6.67801,-17.094155 19.18797,24.450252 28.79999,47.62847 28.79999,69.49869 0,11.53211 -2.70605,22.002201 -8.08801,31.392291 -3.498,6.354063 -10.06801,14.460142 -19.65598,24.354235 -9.59997,9.870106 -16.14601,17.514186 -19.66201,22.926236 12.87601,-3.51604 21.30598,-6.21004 25.28402,-8.08206 8.886,-3.98405 16.96797,-9.96012 24.22198,-17.910195 0,3.060014 -1.28997,7.632065 -3.858,13.686145 z M 607.29296,-29.560579 c 0,4.206039 -2.34597,6.91208 -7.01994,8.088063 l -9.126,1.392038 c -3.28204,1.632012 -8.08204,8.088064 -14.38804,19.31417541 -0.71401,-3.50403131 -1.75797,-8.41808251 -3.16797,-14.74212041 -2.106,0.222093 -5.61,2.111994 -10.53001,5.6160254 -2.10596,1.6380171 -5.50197,4.1040505 -10.19401,7.3740793 1.41,-8.4180827 6.10202,-16.9561687 14.05205,-25.6262357 8.42393,-9.588095 16.61998,-14.37617 24.57598,-14.37617 10.52994,-0.01342 15.79794,4.314065 15.79794,12.960145 z M 668.385,2.7497392 c 0,3.9720362 -2.16598,7.3200658 -6.49802,10.0080908 -4.33201,2.682054 -8.60403,4.038061 -12.80999,4.038061 -5.62798,0 -10.66198,-3.14402 -15.10201,-9.4861069 C 628.587,-0.40028588 623.09097,-5.4403461 617.475,-7.7863757 c 1.164,-1.1700122 2.574,-1.7580209 4.22401,-1.7580209 2.09399,0 5.66398,1.6260402 10.69798,4.9080795 5.022,3.2940163 8.25006,4.92002286 9.66,4.92002286 1.17003,0 3.09605,-1.62600656 5.78398,-4.92002286 2.688,-3.2820393 5.67602,-4.9080795 8.95806,-4.9080795 7.72797,0 11.58597,4.1040505 11.58597,12.2941358 z"
       inkscape:connector-curvature="0"
       id="path213"
       style="fill:#0d0f0f" />
    <path
       d="m 550.11897,-169.55399 c 0,16.20616 -5.89197,27.25828 -17.68796,33.15035 -3.44401,1.72202 -14.23801,4.06805 -32.41802,6.99608 -11.78401,1.97398 -17.67598,6.52805 -17.67598,13.62609 v 29.838314 c 0,1.254052 0.37796,5.052037 1.10398,11.436127 l 1.11001,11.790133 c 0,3.678015 -0.864,9.702093 -2.58601,18.048147 -4.66202,0.978012 -10.06797,2.088039 -16.20002,3.330047 -1.97395,-7.374079 -2.94602,-12.414106 -2.94602,-15.120147 0,-1.21802 0.29993,-3.072024 0.91205,-5.526047 0.61202,-2.448018 0.92399,-4.29605 0.92399,-5.526047 0,-1.704041 -1.518,-6.504094 -4.57198,-14.358155 h -5.71802 c -0.75598,1.218021 -1.00199,2.814001 -0.76202,4.770027 0.99002,4.176046 1.35002,7.73409 1.11002,10.686111 -4.18201,2.946049 -9.94197,6.876082 -17.30997,11.790133 -1.73402,-0.491992 -2.334,-0.738005 -1.84801,-0.738005 v -26.15426 c -0.49199,-1.212048 -1.716,-1.710046 -3.68399,-1.470005 h -4.42205 l -4.42198,34.626322 c -3.43797,0.245912 -7.608,0.245912 -12.51597,0 -1.722,-8.100074 -4.794,-20.124209 -9.20403,-36.090355 h -2.958 c -2.69997,8.598072 -4.176,13.260138 -4.42198,13.998143 0,0.978013 0.31233,2.880025 0.92999,5.706036 0.60599,2.826045 0.91202,4.722052 0.91202,5.70607 0,0.726028 -0.25195,2.580032 -0.75004,5.526047 l -1.09798,8.844085 c -0.49799,0.480015 -1.10401,0.726028 -1.842,0.726028 -7.36797,0 -12.28798,-1.836022 -14.73,-5.51407 -2.46598,-3.684021 -3.45599,-8.856062 -2.958,-15.480125 l 2.958,-44.196464 c 0,-0.726 0.23417,-1.71002 0.72602,-2.95202 0.49199,-1.21803 0.73797,-2.08801 0.73797,-2.56803 0,-1.96803 -2.08799,-5.90404 -6.25802,-11.80214 -0.73797,-0.23383 -4.54796,-1.10399 -11.42394,-2.58 -4.17604,-0.97801 -12.40204,-2.7 -24.67203,-5.14805 -16.94402,-3.18002 -25.422,-16.81818 -25.422,-40.89041 0,-35.86236 14.736,-65.68866 44.20196,-89.5089 1.22405,6.63007 3.31804,15.45617 6.26402,26.50827 2.20802,0.51601 7.00206,1.62 14.36399,3.33004 1.48203,0.48599 8.97003,3.19804 22.47001,8.11205 -6.87598,-4.17004 -15.83998,-10.92008 -26.87999,-20.26219 -4.182,-4.90805 -6.276,-13.13413 -6.276,-24.67825 0,-2.7 4.66803,-5.88603 14.00998,-9.59407 8.34601,-3.42603 14.60403,-5.38206 18.78604,-5.87409 13.25396,-1.71601 23.44801,-2.592 30.57597,-2.592 30.69002,0 55.49403,7.87207 74.406,23.59221 -6.13198,7.1281 -16.69795,14.71813 -31.67395,22.84226 5.89197,0.24625 14.48999,-2.088 25.78795,-7.00809 11.29202,-4.89604 16.08001,-7.36207 14.36401,-7.36207 1.96201,0 5.89201,3.92403 11.79002,11.77812 4.41,5.89206 7.97398,11.19011 10.67996,15.84614 7.86006,13.99815 13.14004,29.11232 15.84602,45.31847 0,5.64605 0.1201,9.69609 0.36581,12.14411 v 2.92803 z m -141.09595,6.64809 c 0,-10.56611 -4.60204,-20.5742 -13.80601,-30.03632 -9.21601,-9.45611 -19.104,-14.1781 -29.65799,-14.1781 -9.33001,0 -17.55004,3.95999 -24.68404,11.86807 -7.12199,7.91408 -10.68,16.69217 -10.68,26.33431 0,8.40604 4.05003,13.86013 12.162,16.32012 5.15401,1.48802 12.39003,2.35204 21.72601,2.60405 h 20.25599 c 16.45203,0.21606 24.68404,-4.09204 24.68404,-12.91213 z m 40.15197,45.67244 v -11.4061 c -1.716,-3.19803 -3.43798,-6.52207 -5.14801,-9.96012 -1.47596,-4.90204 -4.18197,-11.77808 -8.10596,-20.63418 l -4.05604,43.1164 c 0,3.44405 -0.72598,5.15406 -2.20798,5.15406 -0.97797,0 -1.72198,-0.23987 -2.214,-0.732 -1.722,-26.03426 -2.574,-37.34437 -2.574,-33.88235 v -12.88811 c -0.49802,-0.75599 -1.11001,-1.12804 -1.84801,-1.12804 -8.34601,8.62212 -12.516,22.48825 -12.516,41.62844 0,10.56608 0.978,17.07017 2.94001,19.542174 1.97399,-0.497997 4.17,-1.356006 6.64201,-2.586004 0.97797,-0.498 3.79802,-0.738 8.47198,-0.738 4.64998,0 10.31399,1.47601 16.93802,4.410044 2.454,-0.0067 3.67798,-6.630074 3.67798,-19.896214 z m 83.25602,-51.33651 c 0,-9.87611 -3.68398,-18.70818 -11.05202,-26.50827 -7.374,-7.78209 -15.83997,-11.67009 -25.41002,-11.67009 -10.31396,0 -19.96794,4.72205 -28.92597,14.1781 -8.964,9.4441 -13.452,19.33823 -13.452,29.65232 0,8.59807 4.182,12.88815 12.52801,12.88815 H 508.479 c 15.97202,-0.24021 23.95201,-6.40808 23.95201,-18.54021 z"
       inkscape:connector-curvature="0"
       id="path215"
       style="fill:#0d0f0f" />
  </g>
</svg>
