<?xml version="1.0" encoding="UTF-8" standalone="no"?>
<!-- Created with Inkscape (http://www.inkscape.org/) -->

<svg
   xmlns:dc="http://purl.org/dc/elements/1.1/"
   xmlns:cc="http://creativecommons.org/ns#"
   xmlns:rdf="http://www.w3.org/1999/02/22-rdf-syntax-ns#"
   xmlns:svg="http://www.w3.org/2000/svg"
   xmlns="http://www.w3.org/2000/svg"
   xmlns:inkscape="http://www.inkscape.org/namespaces/inkscape"
   version="1.1"
   width="600"
   height="600"
   id="svg4718">
  <defs
     id="defs4720" />
  <metadata
     id="metadata4723">
    <rdf:RDF>
      <cc:Work
         rdf:about="">
        <dc:format>image/svg+xml</dc:format>
        <dc:type
           rdf:resource="http://purl.org/dc/dcmitype/StillImage" />
        <dc:title />
      </cc:Work>
    </rdf:RDF>
  </metadata>
  <g
     transform="translate(-293.4341,298.21567)"
     id="layer1">
    <path
       d="m 805.5281,-210.3988 c 54.31801,54.30655 87.906,129.3073 87.906,212.1621453 0,165.6976447 -134.32199,300.0209847 -300,300.0209847 -82.84201,0 -157.83,-33.57631 -212.12399,-87.87686"
       inkscape:connector-curvature="0"
       id="path219"
       style="fill:#a3c095" />
    <path
       d="M 381.31011,213.90747 C 327.01011,159.62491 293.4341,84.612185 293.4341,1.7693505 c 0,-165.6796605 134.32199,-299.9850205 300,-299.9850205 82.81201,0 157.80601,33.56434 212.094,87.82288"
       inkscape:connector-curvature="0"
       id="path221"
       style="fill:#bab1ab" />
    <path
       d="m 612.97611,-129.55399 c 0,16.20615 -5.89197,27.25828 -17.68199,33.150343 -3.44397,1.722023 -14.24401,4.068053 -32.42402,6.996086 -11.77801,1.973974 -17.66998,6.528047 -17.66998,13.626088 v 29.838313 c 0,1.254052 0.37205,5.052038 1.10401,11.436127 l 1.11002,11.790133 c 0,3.678016 -0.86404,9.702094 -2.58605,18.0481473 -4.65598,0.9780127 -10.06801,2.0880398 -16.20002,3.3300476 -1.96798,-7.3740795 -2.94598,-12.4141059 -2.94598,-15.1201469 0,-1.218021 0.29992,-3.072025 0.91201,-5.526048 0.61202,-2.448017 0.91799,-4.29605 0.91799,-5.526047 0,-1.704041 -1.518,-6.504094 -4.57198,-14.358155 h -5.71799 c -0.75001,1.218021 -1.00202,2.814001 -0.76202,4.770027 0.98398,4.176046 1.35002,7.734091 1.11602,10.686111 -4.18201,2.946049 -9.942,6.876082 -17.316,11.790133 -1.72798,-0.491992 -2.34,-0.738005 -1.84798,-0.738005 v -26.154259 c -0.49202,-1.212049 -1.71604,-1.710047 -3.68402,-1.470005 h -4.42202 l -4.41597,34.6263217 c -3.43207,0.2459123 -7.61405,0.2459123 -12.51604,0 -1.722,-8.1000737 -4.79997,-20.1242097 -9.20997,-36.0903557 h -2.95203 c -2.70001,8.598072 -4.16996,13.260138 -4.42198,13.998144 0,0.978012 0.31234,2.880024 0.93,5.706036 0.60601,2.826045 0.91201,4.722052 0.91201,5.70607 0,0.726028 -0.24591,2.580032 -0.744,5.526047 l -1.10401,8.8440843 c -0.498,0.4800153 -1.10401,0.7260282 -1.83601,0.7260282 -7.374,0 -12.28801,-1.8360217 -14.72999,-5.5140704 -2.46605,-3.6840201 -3.45002,-8.8560611 -2.958,-15.4801251 l 2.958,-44.196468 c 0,-0.725995 0.22779,-1.710013 0.72595,-2.952021 0.49205,-1.21802 0.73807,-2.088006 0.73807,-2.568021 0,-1.968036 -2.08802,-5.904041 -6.25802,-11.802144 -0.738,-0.233835 -4.54803,-1.103988 -11.424,-2.579999 -4.16997,-0.978012 -12.40201,-2.700002 -24.672,-5.148053 -16.94399,-3.180018 -25.42201,-16.818184 -25.42201,-40.890404 0,-35.86236 14.736,-65.68867 44.202,-89.50891 1.22401,6.63007 3.318,15.45618 6.26402,26.50827 2.214,0.51601 7.008,1.62 14.37596,3.33005 1.482,0.48598 8.96403,3.19803 22.47002,8.11205 -6.87602,-4.17004 -15.84001,-10.92008 -26.87995,-20.2622 -4.18205,-4.90804 -6.27607,-13.13413 -6.27607,-24.67825 0,-2.7 4.66802,-5.88602 14.01005,-9.59406 8.34597,-3.42603 14.60398,-5.38206 18.78596,-5.87409 13.25403,-1.71601 23.44198,-2.592 30.57598,-2.592 30.69001,0 55.49402,7.87207 74.40005,23.59221 -6.13201,7.1281 -16.69804,14.71813 -31.67402,22.84226 5.89201,0.24624 14.49003,-2.08801 25.79399,-7.0081 11.29199,-4.89603 16.08002,-7.36207 14.36399,-7.36207 1.96201,0 5.892,3.92403 11.79005,11.77812 4.41,5.89207 7.97401,11.19012 10.67999,15.84615 7.86003,13.99814 13.14001,29.11232 15.85199,45.31847 0,5.64605 0.11407,9.69609 0.36582,12.1441 v 2.93404 h -0.0335 z m -141.09599,6.64808 c 0,-10.56611 -4.602,-20.5742 -13.81201,-30.03632 -9.21001,-9.45611 -19.104,-14.17809 -29.65799,-14.17809 -9.33001,0 -17.55004,3.95999 -24.678,11.86806 -7.12203,7.91408 -10.674,16.69218 -10.674,26.33432 0,8.40604 4.04399,13.86012 12.15596,16.32012 5.16005,1.48802 12.39003,2.35203 21.72605,2.60405 h 20.25595 c 16.45204,0.21605 24.68404,-4.09204 24.68404,-12.91214 z m 40.15798,45.672447 v -11.4061 c -1.71597,-3.198034 -3.43798,-6.522076 -5.148,-9.960117 -1.47597,-4.90204 -4.18195,-11.77809 -8.11197,-20.63418 l -4.05601,43.116396 c 0,3.444046 -0.72602,5.154059 -2.20802,5.154059 -0.97797,0 -1.72197,-0.239873 -2.21399,-0.732 -1.71597,-26.034256 -2.574,-37.344375 -2.574,-33.882345 v -12.88812 c -0.49803,-0.75598 -1.11002,-1.12804 -1.84802,-1.12804 -8.346,8.62213 -12.516,22.488256 -12.516,41.628448 0,10.566074 0.97207,17.070167 2.93401,19.542172 1.96802,-0.497997 4.17,-1.356006 6.63601,-2.586003 0.978,-0.497998 3.80402,-0.738006 8.47198,-0.738006 4.65004,0 10.31405,1.476011 16.93801,4.410049 2.46601,-0.0067 3.696,-6.630069 3.696,-19.896213 z m 83.25602,-51.336507 c 0,-9.87611 -3.68398,-18.70819 -11.05799,-26.50827 -7.37403,-7.7821 -15.84001,-11.6701 -25.40402,-11.6701 -10.31999,0 -19.96801,4.72206 -28.91999,14.1781 -8.97001,9.44411 -13.45201,19.33823 -13.45201,29.65232 0,8.59807 4.18198,12.88815 12.52802,12.88815 h 42.35998 c 15.96005,-0.24021 23.94601,-6.40808 23.94601,-18.5402 z"
       inkscape:connector-curvature="0"
       id="path223"
       style="fill:#0d0f0f" />
    <path
       d="m 830.54813,107.49038 c 0,4.54803 -1.75797,8.62209 -5.27398,12.2581 -3.51601,3.62404 -7.54799,5.43007 -12.09604,5.43007 -7.24196,0 -12.58797,-3.39604 -15.97797,-10.2061 l -16.00201,-0.67201 c -3.40198,0 -10.10398,1.47601 -20.07,4.42205 -10.66195,2.94001 -16.78799,5.32805 -18.38399,7.13408 -2.48399,2.72402 -4.52997,9.08409 -6.12,19.06816 -1.368,8.16009 -2.034,14.17816 -2.034,18.0362 0,6.12006 0.95999,10.60811 2.88003,13.44013 1.92598,2.83802 5.90395,5.21404 11.90394,7.13407 6.00003,1.90802 9.69603,3.01204 11.06403,3.23403 0.90601,0 2.376,-0.10802 4.42202,-0.34199 h 4.08596 c 2.94601,0 6.00603,0.45599 9.19202,1.36201 4.53001,1.36201 6.46196,3.16203 5.78999,5.44207 -3.18596,-0.44401 -8.73601,0.22813 -16.66799,2.04 l 9.516,4.77006 c 0,2.72402 -3.85799,4.07403 -11.56799,4.07403 -2.05199,0 -4.836,-0.43201 -8.34,-1.35001 -3.52801,-0.924 -5.856,-1.37402 -6.97803,-1.37402 h -4.42198 c -0.22779,2.27404 -0.9,5.65806 -2.04001,10.2061 -3.87598,-0.22209 -8.39401,-2.49603 -13.61998,-6.79805 -5.22,-4.32004 -8.50801,-6.47407 -9.858,-6.47407 -1.368,0 -3.30599,2.15403 -5.79002,6.47407 -2.502,4.30202 -3.744,7.24207 -3.744,8.85009 -2.94602,-1.60802 -5.43598,-4.54807 -7.49397,-8.85009 -0.90598,-2.96403 -1.92598,-5.91605 -3.05401,-8.87411 -2.27401,0.23417 -6.46203,5.01607 -12.59401,14.31015 h -1.70399 c -0.46199,-0.67799 -2.16001,-5.43604 -5.112,-14.31015 -7.03198,-2.25001 -13.608,-3.37802 -19.728,-3.37802 -2.94602,0 -7.49401,0.67201 -13.62002,2.04603 l -9.52197,-0.67802 c 1.35599,-1.36801 5.32799,-3.97203 11.90401,-7.83007 7.70399,-4.54803 13.61397,-6.82207 17.69396,-6.82207 0.67198,0 1.58399,0.12615 2.724,0.35401 1.12803,0.23417 2.04598,0.34797 2.72403,0.34797 1.57198,0 4.134,-0.85201 7.64997,-2.56202 3.51601,-1.698 5.56203,-3.23403 6.11403,-4.59604 0.588,-1.37403 0.86998,-4.87806 0.86998,-10.5541 0,-12.91814 -3.40802,-22.57823 -10.21804,-28.91428 -5.89794,-5.67007 -15.64795,-9.7501 -29.26199,-12.25814 -3.624,12.92412 -13.84197,19.40419 -30.61795,19.40419 -5.45403,0 -10.89601,-3.29402 -16.33803,-9.87608 -5.44199,-6.58807 -8.16599,-12.59413 -8.16599,-18.04221 0,-8.39406 3.51598,-15.306106 10.54802,-20.754186 -5.66404,-5.886059 -8.50801,-11.898127 -8.50801,-18.03617 0,-5.664067 1.752,-10.656119 5.27398,-14.976156 3.51597,-4.29605 8.11801,-6.798048 13.78202,-7.488078 -0.44401,-7.24807 1.92601,-12.252133 7.13997,-14.970151 -2.48996,-2.484015 -3.73196,-6.900069 -3.73196,-13.26611 0,-7.476101 2.48403,-13.7221375 7.482,-18.7141896 4.97999,-4.98007509 11.22597,-7.488078 18.70199,-7.488078 8.17796,0 14.87399,2.85003228 20.08798,8.5080938 6.58804,-22.4522572 20.75402,-33.6783692 42.53401,-33.6783692 11.33402,0 21.324,4.536058 29.94,13.62015 3.18002,3.390033 4.758,5.2080722 4.758,5.4300642 -2.71199,0 -1.34999,-0.5160131 4.08603,-1.5240182 5.45399,-1.026021 9.40798,-1.542034 11.91599,-1.542034 8.84399,0 16.66798,3.3000546 23.49002,9.8761103 5.89197,5.9040744 9.97796,13.3741367 12.25201,22.4522237 1.57795,0.23417 4.07398,0.906017 7.46995,2.046037 4.99204,2.501997 7.49401,6.810058 7.49401,12.930119 0,1.128009 -0.91201,3.294016 -2.724,6.474067 14.51401,8.166065 21.77999,19.506175 21.77999,34.020332 0,4.086035 -1.59599,9.762112 -4.75796,17.016154 5.91599,3.414054 8.86795,8.406109 8.86795,14.988169 z m -140.20796,14.97015 v -4.41606 c 0,-5.21404 -2.54401,-9.98407 -7.65001,-14.29213 -5.106,-4.320034 -10.26001,-6.462053 -15.48001,-6.462053 -6.36,0 -12.25201,1.47601 -17.69399,4.404043 12.02398,-0.66 25.62598,6.24607 40.82401,20.7662 z m -6.12,-42.180426 c -3.39604,-3.87602 -6.348,-7.836079 -8.84403,-11.910103 -9.53399,2.484015 -14.29796,5.334048 -14.29796,8.496083 2.71795,-0.222093 6.69592,0.282145 11.90394,1.536029 5.22003,1.253985 8.97601,1.877991 11.23805,1.877991 z M 704.99209,69.713997 V 54.743846 c -5.45393,-0.894007 -8.75398,-1.356007 -9.87594,-1.356007 v 5.106051 l 9.87594,11.220107 z m 44.23206,-9.516066 c -2.72399,-1.134014 -7.82999,-3.408048 -15.324,-6.810092 v 29.262282 c 10.66799,-6.132038 15.76795,-13.608106 15.324,-22.45219 z m 18.69595,40.152399 -7.47595,-9.174099 c -4.52998,3.174012 -9.12597,6.396066 -13.78799,9.690079 -4.64998,3.28204 -8.67002,6.97207 -12.06602,11.06411 10.19401,-5.46603 21.32403,-9.30609 33.32996,-11.58009 z"
       inkscape:connector-curvature="0"
       id="path225"
       style="fill:#0d0f0f" />
  </g>
</svg>
