<?xml version="1.0" encoding="UTF-8" standalone="no"?>
<!-- Created with Inkscape (http://www.inkscape.org/) -->

<svg
   xmlns:dc="http://purl.org/dc/elements/1.1/"
   xmlns:cc="http://creativecommons.org/ns#"
   xmlns:rdf="http://www.w3.org/1999/02/22-rdf-syntax-ns#"
   xmlns:svg="http://www.w3.org/2000/svg"
   xmlns="http://www.w3.org/2000/svg"
   xmlns:inkscape="http://www.inkscape.org/namespaces/inkscape"
   version="1.1"
   width="600"
   height="600"
   id="svg4792">
  <defs
     id="defs4794" />
  <metadata
     id="metadata4797">
    <rdf:RDF>
      <cc:Work
         rdf:about="">
        <dc:format>image/svg+xml</dc:format>
        <dc:type
           rdf:resource="http://purl.org/dc/dcmitype/StillImage" />
        <dc:title />
      </cc:Work>
    </rdf:RDF>
  </metadata>
  <g
     transform="translate(-224.86267,209.64424)"
     id="layer1">
    <path
       d="m 736.95667,-121.82737 c 54.31801,54.306549 87.906,129.3072999 87.906,212.162145 0,165.697645 -134.32199,300.020985 -300,300.020985 -82.84201,0 -157.83,-33.57631 -212.12399,-87.87686"
       inkscape:connector-curvature="0"
       id="path239"
       style="fill:#a3c095" />
    <path
       d="m 312.73868,302.4789 c -54.3,-54.28256 -87.87601,-129.29528 -87.87601,-212.13812 0,-165.679664 134.32199,-299.98502 300,-299.98502 82.81201,0 157.80601,33.56434 212.094,87.82288"
       inkscape:connector-curvature="0"
       id="path241"
       style="fill:#e49977" />
    <path
       d="m 536.48467,18.814035 c -10.30798,24.594277 -30.77998,36.876369 -61.43997,36.876369 -5.622,0 -11.71201,0.69003 -18.26401,2.100017 -9.83398,2.118032 -14.74198,5.046065 -14.74198,8.790104 0,1.170012 0.816,2.508037 2.454,4.044032 1.63196,1.518013 3.04801,2.280039 4.21798,2.280039 -5.86198,0 -1.87798,0.179821 11.92199,0.51598 13.81198,0.360011 22.47605,0.534029 25.99203,0.534029 -20.36999,11.928119 -54.42001,17.43615 -102.17397,16.500141 -15.68408,-0.222093 -29.14206,-7.128067 -40.37403,-20.70618 -11.00404,-12.876139 -16.49997,-27.270259 -16.49997,-43.176419 0,-16.8601861 5.66994,-31.19432 17.03396,-43.026456 11.33996,-11.80211 25.452,-17.718195 42.30601,-17.718195 3.738,0 8.71799,0.822011 14.91599,2.448051 6.204,1.637984 10.36199,2.460028 12.46202,2.460028 8.66398,0 19.42798,-3.582065 32.30399,-10.710098 12.87598,-7.140077 18.96599,-10.710099 18.26399,-10.710099 -2.34598,24.576228 -10.53601,41.0883791 -24.58199,49.5064616 C 430.20666,4.6899163 425.1847,10.41994 425.1847,16.018016 c 0,3.516042 2.09399,6.330077 6.31203,8.436065 3.27597,1.62604 6.90597,2.448051 10.88998,2.448051 6.084,0 12.048,-3.738034 17.90401,-11.226112 5.84393,-7.4880776 8.41797,-14.2801535 7.71593,-20.3761939 -0.68995,-7.0260781 -0.22209,-15.4561711 1.41004,-25.2722631 0.46196,-2.826045 2.16599,-6.270058 5.08802,-10.362131 2.928,-4.104017 5.56799,-6.624031 7.90199,-7.566046 0,2.117999 -0.76802,5.628069 -2.28602,10.53011 -1.52397,4.914051 -2.27999,8.568079 -2.27999,10.884116 0,5.154059 1.39797,9.132067 4.21197,11.940096 4.212,-1.626007 7.95,-6.900069 11.23201,-15.804139 2.808,-6.786071 4.44003,-13.344144 4.92004,-19.656205 -9.84002,-0.450022 -19.26601,-4.908046 -28.27204,-13.350149 -9.01198,-8.424088 -13.51199,-17.556155 -13.51199,-27.378252 0,-1.632045 0.22209,-3.282039 0.702,-4.914085 1.39202,2.118066 3.49802,5.3941 6.32404,9.840113 3.96596,5.838084 7.01997,8.766084 9.12594,8.766084 2.808,0 4.20603,-2.928 4.20603,-8.766084 0,-7.488078 -1.986,-14.274111 -5.96404,-20.370191 -4.45197,-7.26608 -10.18798,-10.88411 -17.20197,-10.88411 -3.28798,0 -8.19601,1.75798 -14.74801,5.27406 -6.55798,3.504 -12.52798,5.26205 -17.89197,5.26205 -1.64397,0 -8.90405,-2.12404 -21.78003,-6.33008 22.69805,-3.74403 34.05599,-7.13403 34.05599,-10.1821 0,-7.95609 -15.56401,-13.34411 -46.698,-16.14013 -3.04196,-0.22813 -8.65193,-0.69604 -16.848,-1.41002 0.93003,-1.15804 7.608,-2.44805 20.01605,-3.86405 10.52997,-1.15199 17.89797,-1.76402 22.10997,-1.76402 55.70997,0 91.05002,27.04826 106.03801,81.126815 2.58598,-2.142053 3.87598,-5.694059 3.87598,-10.674101 0,-6.414082 -1.87797,-14.48413 -5.62198,-24.210245 -1.40997,-3.798049 -3.64201,-9.504089 -6.67797,-17.088179 19.18193,24.450248 28.79996,47.628467 28.79996,69.504692 0,11.520099 -2.70598,21.996229 -8.08798,31.380314 -3.498,6.3660743 -10.06805,14.4721536 -19.65598,24.3542359 -9.59404,9.8761111 -16.14604,17.5201901 -19.66201,22.9322391 12.87597,-3.516008 21.31199,-6.216078 25.28996,-8.088097 8.88002,-3.978008 16.962,-9.954078 24.21604,-17.9041559 -0.007,3.0660191 -1.29601,7.6200589 -3.858,13.6981169 z m -153.09,-137.983375 c 0,4.21205 -2.34598,6.90007 -7.02001,8.08807 l -9.12593,1.39801 c -3.28805,1.62604 -8.08205,8.07608 -14.38804,19.308201 -0.70797,-3.504031 -1.758,-8.424088 -3.16801,-14.748121 -2.10597,0.23383 -5.61597,2.11799 -10.52997,5.622026 -2.106,1.632045 -5.50197,4.104084 -10.18801,7.374113 1.41004,-8.424089 6.10198,-16.956199 14.05201,-25.626269 8.42401,-9.5941 16.62602,-14.37614 24.57602,-14.37614 10.52997,-0.0168 15.79194,4.31403 15.79194,12.96011 z m 61.09204,32.310323 c 0,3.966064 -2.16002,7.326105 -6.49803,10.008125 -4.332,2.687992 -8.60402,4.043998 -12.80998,4.043998 -5.62798,0 -10.66202,-3.149991 -15.10202,-9.492045 -5.38801,-7.710103 -10.88401,-12.750164 -16.50601,-15.096193 1.15802,-1.170012 2.57403,-1.757987 4.22404,-1.757987 2.1,0 5.66398,1.626006 10.69795,4.908012 5.02203,3.29405 8.24405,4.92009 9.65406,4.92009 1.16996,0 3.10198,-1.62604 5.78995,-4.92009 2.68803,-3.282006 5.67001,-4.908012 8.95802,-4.908012 7.73402,0 11.59202,4.104016 11.59202,12.294102 z"
       inkscape:connector-curvature="0"
       id="path243"
       style="fill:#0d0f0f" />
    <path
       d="m 761.97666,196.06181 c 0,4.54803 -1.758,8.62209 -5.27397,12.2581 -3.51598,3.62404 -7.54803,5.43007 -12.09605,5.43007 -7.24199,0 -12.58796,-3.39604 -15.97796,-10.2061 l -16.00202,-0.67201 c -3.40197,0 -10.104,1.47601 -20.06999,4.42205 -10.66202,2.94001 -16.78799,5.32805 -18.37798,7.13408 -2.48403,2.72402 -4.53005,9.08409 -6.12601,19.06816 -1.368,8.16009 -2.03401,14.17816 -2.03401,18.0362 0,6.12006 0.95999,10.60811 2.88003,13.44013 1.92602,2.83802 5.90399,5.21404 11.90398,7.13407 6,1.90802 9.69599,3.01204 11.064,3.23403 0.90601,0 2.376,-0.10802 4.42201,-0.34199 h 4.086 c 2.94598,0 6.006,0.45599 9.19199,1.36201 4.53004,1.36201 6.46199,3.16203 5.79002,5.44207 -3.18599,-0.44401 -8.73604,0.22813 -16.66802,2.04 l 9.516,4.77006 c 0,2.72402 -3.858,4.07403 -11.56799,4.07403 -2.05202,0 -4.83597,-0.43201 -8.34,-1.35001 -3.52802,-0.924 -5.85597,-1.37402 -6.97803,-1.37402 h -4.42198 c -0.2278,2.27404 -0.90001,5.65806 -2.04002,10.2061 -3.87598,-0.22209 -8.39397,-2.49603 -13.61997,-6.79805 -5.21997,-4.32004 -8.50801,-6.47407 -9.858,-6.47407 -1.368,0 -3.30603,2.15403 -5.79002,6.47407 -2.50197,4.30202 -3.744,7.24207 -3.744,8.85009 -2.94602,-1.60802 -5.43598,-4.54807 -7.49398,-8.85009 -0.90604,-2.96403 -1.92601,-5.91605 -3.05397,-8.87411 -2.27405,0.23417 -6.46203,5.01607 -12.59404,14.31015 h -1.70399 c -0.462,-0.67799 -2.16001,-5.43604 -5.112,-14.31015 -7.03202,-2.25001 -13.60801,-3.37802 -19.72801,-3.37802 -2.94602,0 -7.49397,0.67201 -13.62001,2.04603 l -9.52198,-0.67802 c 1.356,-1.36801 5.32796,-3.97203 11.90402,-7.83007 7.70398,-4.54803 13.61397,-6.82207 17.69399,-6.82207 0.67198,0 1.58399,0.12615 2.724,0.35401 1.12796,0.23417 2.04602,0.34797 2.72399,0.34797 1.57198,0 4.13401,-0.85201 7.64998,-2.56202 3.51597,-1.698 5.56199,-3.23403 6.11399,-4.59604 0.58797,-1.37403 0.87002,-4.87806 0.87002,-10.5541 0,-12.91814 -3.40802,-22.57823 -10.21801,-28.91428 -5.89798,-5.67007 -15.64798,-9.7501 -29.26199,-12.25814 -3.624,12.92412 -13.84203,19.40419 -30.61798,19.40419 -5.454,0 -10.89598,-3.29402 -16.338,-9.87608 -5.44199,-6.58209 -8.16602,-12.59413 -8.16602,-18.04221 0,-8.39406 3.51601,-15.30611 10.54802,-20.75419 -5.66404,-5.88605 -8.50801,-11.89812 -8.50801,-18.03617 0,-5.66406 1.75197,-10.65611 5.27398,-14.97615 3.516,-4.29605 8.11801,-6.79805 13.78205,-7.48808 -0.44405,-7.24807 1.92595,-12.25213 7.13997,-14.97015 -2.49003,-2.48402 -3.73199,-6.90007 -3.73199,-13.26611 0,-7.4761 2.48396,-13.722139 7.482,-18.714191 4.97999,-4.980075 11.22596,-7.488078 18.70199,-7.488078 8.17796,0 14.87395,2.850033 20.08801,8.508094 6.58797,-22.452257 20.75398,-33.678369 42.53397,-33.678369 11.33403,0 21.324,4.536058 29.94,13.62015 3.17999,3.390033 4.75797,5.208072 4.75797,5.430064 -2.71195,0 -1.34998,-0.516013 4.08603,-1.524018 5.454,-1.026021 9.40801,-1.542034 11.91599,-1.542034 8.84406,0 16.66802,3.300055 23.49002,9.87611 5.89204,5.904075 9.978,13.374137 12.25198,22.452222 1.57801,0.23417 4.07401,0.90602 7.47002,2.04604 4.992,2.502 7.49397,6.81006 7.49397,12.93012 0,1.12801 -0.91198,3.29401 -2.72399,6.47407 14.51401,8.16606 21.78005,19.50617 21.78005,34.02033 0,4.08603 -1.59603,9.76211 -4.75806,17.01615 5.91602,3.41405 8.86801,8.40611 8.86801,14.98817 z M 621.7687,211.03196 v -4.41606 c 0,-5.21404 -2.54404,-9.98407 -7.65001,-14.29213 -5.106,-4.32003 -10.26,-6.46205 -15.48003,-6.46205 -6.35998,0 -12.25198,1.47601 -17.69397,4.40404 12.02402,-0.66 25.62598,6.24607 40.82401,20.7662 z m -6.12,-42.18043 c -3.39604,-3.87602 -6.34799,-7.83607 -8.84406,-11.9101 -9.53392,2.48402 -14.29793,5.33405 -14.29793,8.49608 2.71799,-0.22209 6.69596,0.28215 11.90398,1.53603 5.22,1.25399 8.97598,1.87799 11.23801,1.87799 z m 20.77196,-10.5661 v -14.97015 c -5.45399,-0.89401 -8.75398,-1.35601 -9.87601,-1.35601 v 5.10605 l 9.87601,11.22011 z m 44.23206,-9.51607 c -2.72406,-1.13401 -7.83003,-3.40805 -15.32404,-6.81009 v 29.26228 c 10.66799,-6.13204 15.76799,-13.6081 15.32404,-22.45219 z m 18.69595,40.1524 -7.47599,-9.1741 c -4.53,3.17401 -9.12604,6.39607 -13.78799,9.69008 -4.65001,3.28204 -8.67001,6.97207 -12.06602,11.06411 10.19402,-5.46603 21.32401,-9.30609 33.33,-11.58009 z"
       inkscape:connector-curvature="0"
       id="path245"
       style="fill:#0d0f0f" />
  </g>
</svg>
