<?xml version="1.0" encoding="UTF-8" standalone="no"?>
<!-- Created with Inkscape (http://www.inkscape.org/) -->

<svg
   xmlns:dc="http://purl.org/dc/elements/1.1/"
   xmlns:cc="http://creativecommons.org/ns#"
   xmlns:rdf="http://www.w3.org/1999/02/22-rdf-syntax-ns#"
   xmlns:svg="http://www.w3.org/2000/svg"
   xmlns="http://www.w3.org/2000/svg"
   xmlns:inkscape="http://www.inkscape.org/namespaces/inkscape"
   version="1.1"
   width="600"
   height="600"
   id="svg4755">
  <defs
     id="defs4757" />
  <metadata
     id="metadata4760">
    <rdf:RDF>
      <cc:Work
         rdf:about="">
        <dc:format>image/svg+xml</dc:format>
        <dc:type
           rdf:resource="http://purl.org/dc/dcmitype/StillImage" />
        <dc:title />
      </cc:Work>
    </rdf:RDF>
  </metadata>
  <g
     transform="translate(-127.71982,-90.35576)"
     id="layer1">
    <path
       d="m 639.81382,178.17263 c 54.31798,54.30655 87.906,129.3073 87.906,212.16215 0,165.69764 -134.32199,300.02098 -300,300.02098 -82.84201,0 -157.83,-33.57631 -212.12402,-87.87686"
       inkscape:connector-curvature="0"
       id="path229"
       style="fill:#f8f6d8" />
    <path
       d="m 215.5958,602.4789 c -54.3,-54.28256 -87.87598,-129.29528 -87.87598,-212.13812 0,-165.67966 134.32199,-299.98502 300,-299.98502 82.81198,0 157.80601,33.56434 212.094,87.82288"
       inkscape:connector-curvature="0"
       id="path231"
       style="fill:#e49977" />
    <path
       d="m 655.71985,529.02012 c -14.61603,-13.58412 -24.32403,-20.94619 -29.08804,-22.09221 -3.45595,-0.82802 -6.80995,1.18803 -10.03201,6.03605 -3.22195,4.84806 -7.74596,6.55207 -13.60797,5.14806 -2.376,-0.57 -7.04999,-2.61003 -14.00397,-6.10205 -5.62805,5.31006 -8.64603,8.82607 -9.06602,10.54809 -0.56999,2.38804 0.53402,5.62807 3.30602,9.72612 2.76,4.11002 5.36396,6.43206 7.80598,7.02604 1.54198,0.37202 3.72598,0.54601 6.53999,0.53403 2.808,-0.007 4.66199,0.096 5.56202,0.30597 2.65798,0.624 2.81394,5.82604 0.468,15.58815 -2.22003,9.31209 -7.81204,23.11223 -16.75806,41.35241 -0.3539,-23.45423 -3.66,-35.93436 -9.93596,-37.43439 -0.87001,-0.21001 -2.81398,0.0235 -5.83199,0.66601 -3.03002,0.64202 -5.18403,0.82201 -6.48001,0.51001 -6.28801,-1.50601 -10.54798,-8.59807 -12.786,-21.27621 -10.33797,-0.87002 -16.54198,3.03603 -18.61798,11.69412 -1.04403,4.35603 0.13788,8.29808 3.53398,11.85612 3.37799,3.55204 4.93803,5.87405 4.69202,6.96006 -1.39803,5.86807 -12.12604,12.79813 -32.12998,20.83822 -10.65604,4.33205 -18.04203,7.36808 -22.12802,9.13207 3.95398,-3.16801 8.21399,-7.53605 12.76201,-13.09213 5.17196,-6.34205 8.22597,-11.43609 9.16798,-15.35415 0.51597,-2.15403 -1.25398,-5.79604 -5.30397,-10.88411 -4.05604,-5.09404 -5.55599,-9.80408 -4.51803,-14.13013 0.87598,-3.68405 3.25798,-7.91408 7.16402,-12.72013 -2.04601,-3.91803 -5.01001,-6.36007 -8.91005,-7.29008 -8.66398,-2.082 -13.67396,-0.29992 -15.02398,5.34606 0.92999,-3.90604 0.22779,-0.97801 -2.1,8.77209 -1.49998,7.20006 -7.77601,9.4801 -18.828,6.84606 -8.45399,-2.02802 -22.17596,-7.37405 -41.18401,-16.04415 23.88602,-0.23417 36.70802,-4.04403 38.46602,-11.4061 -0.19189,0.87599 -0.0168,-1.84803 0.582,-8.11809 0.73199,-6.92409 6.96002,-11.86213 18.64798,-14.79013 0.43204,-10.42812 -3.56398,-16.66218 -12.02398,-18.67819 -1.29601,-0.31804 -4.23002,1.386 -8.77801,5.11803 -4.566,3.71404 -8.35798,5.22005 -11.38797,4.48805 -5.20201,-1.23 -10.57804,-8.47807 -16.10404,-21.72023 -2.56195,-6.57005 -6.52798,-16.33813 -11.89797,-29.31029 4.362,3.79205 8.71799,7.59607 13.09196,11.37611 5.77804,4.59608 10.62005,7.3561 14.51401,8.29811 3.03603,0.71399 6.64802,-1.23003 10.84801,-5.84405 4.19399,-4.60806 8.67602,-6.3481 13.43999,-5.19607 0.66601,0.15601 4.68001,2.48402 12.078,7.00807 5.62201,-5.29805 8.79605,-9.45608 9.52801,-12.49211 0.61203,-2.61002 -0.23987,-5.96409 -2.58601,-10.07411 -2.33997,-4.12204 -4.81198,-6.47407 -7.41,-7.10408 -1.08596,-0.26403 -2.83799,-0.348 -5.26801,-0.23384 -2.42997,0.11407 -4.18794,0.0302 -5.27397,-0.22813 -3.89397,-0.93 -4.68601,-6.27006 -2.35198,-16.02616 0.61196,-2.61003 6.66,-16.86016 18.13197,-42.73841 -0.99602,3.18002 -1.03795,9.60608 -0.12614,19.21219 1.08599,11.7181 4.12199,18.16218 9.10799,19.36819 0.864,0.19793 2.75399,-0.0302 5.67598,-0.70802 2.91003,-0.67802 5.11201,-0.83999 6.62404,-0.468 4.98002,1.18202 8.424,4.99205 10.338,11.40013 l 2.77798,9.93009 c 4.54799,1.09801 8.73,0.37799 12.54002,-2.14202 3.816,-2.52602 6.27597,-6.06608 7.36196,-10.61412 1.13404,-4.77006 0,-8.87408 -3.40794,-12.33013 -3.41402,-3.45602 -4.97406,-5.83205 -4.65001,-7.12807 1.08596,-4.54803 10.07995,-10.53011 26.96999,-17.94015 13.55996,-5.91008 22.254,-9.21611 26.09398,-9.9061 -12.324,10.35008 -19.19401,18.42016 -20.59197,24.28224 -0.72602,3.04203 0.33011,6.72605 3.18599,11.08809 3.57002,5.20206 5.47201,8.7541 5.69997,10.62612 0.96599,5.52005 -0.87601,12.28213 -5.54998,20.3402 4.866,5.52004 8.81998,8.62806 11.86198,9.37207 6.26999,1.50004 10.19405,-1.008 11.74801,-7.50005 0.156,-0.654 0.37792,-2.77804 0.67201,-6.37808 0.2761,-3.60002 0.588,-5.59204 0.90601,-5.97004 1.596,-2.83205 7.91396,-2.92202 18.96598,-0.27006 6.936,1.65603 20.87402,7.05006 41.83801,16.18817 -5.08201,0.16204 -12.69602,0.39601 -22.85401,0.72599 -9.29998,0.51602 -14.33399,2.40602 -15.11402,5.65206 -0.35988,1.51801 -0.44398,4.24804 -0.23987,8.18408 0.20397,3.93604 0.10165,6.79208 -0.31804,8.52611 -0.71998,3.03603 -3.354,5.37605 -7.872,7.05006 l -12.92999,5.15403 c 1.47002,5.38806 2.52002,8.6281 3.18599,9.69012 1.55403,3.12603 4.15205,5.12403 7.83604,6.01206 2.60399,0.62401 5.53199,-1.08003 8.78998,-5.12406 3.25198,-4.03206 7.27202,-5.47804 12.04203,-4.33205 5.84997,1.39204 11.16595,8.38809 15.942,20.99423 2.66998,7.05604 6.858,17.80217 12.57599,32.22031 z m -67.64401,-36.11434 c 3.312,-13.87814 1.10401,-27.12026 -6.64802,-39.73838 -7.75199,-12.61815 -18.56397,-20.59822 -32.42399,-23.91626 -14.08798,-3.36601 -27.43799,-1.23 -40.02599,6.42009 -12.59397,7.62006 -20.68799,18.46217 -24.27603,32.49631 -3.53996,13.81812 -1.25997,27.02428 6.84602,39.62438 8.1,12.58813 19.07999,20.55021 32.95802,23.86825 14.72399,3.52201 28.18196,1.64399 40.34997,-5.64008 12.15603,-7.29007 19.89601,-18.33616 23.22002,-33.11431 z m -4.89005,-1.17599 c -3.15596,13.2181 -10.21793,23.10619 -21.17997,29.63427 -10.95597,6.54006 -23.05802,8.23806 -36.26398,5.07606 -12.786,-3.06005 -22.66205,-10.12212 -29.63998,-21.18623 -6.97803,-11.0641 -8.93401,-22.98021 -5.87402,-35.76634 3.01801,-12.57611 10.18798,-22.25422 21.55199,-29.0523 11.37603,-6.78006 23.33402,-8.67007 35.90401,-5.65806 12.56401,3.00006 22.36198,10.15812 29.38796,21.45623 7.02604,11.32213 9.07202,23.14822 6.11399,35.49637 z"
       inkscape:connector-curvature="0"
       id="path233"
       style="fill:#0d0f0f" />
    <path
       d="m 439.34186,318.81404 c -10.30802,24.59427 -30.78002,36.87636 -61.44001,36.87636 -5.622,0 -11.71201,0.69003 -18.26401,2.10002 -9.83405,2.11803 -14.74198,5.04607 -14.74198,8.79011 0,1.17001 0.816,2.50803 2.454,4.04403 1.63196,1.51801 3.04801,2.28004 4.21798,2.28004 -5.86202,0 -1.87798,0.17982 11.92199,0.51598 13.81198,0.36001 22.47599,0.53402 25.99203,0.53402 -20.37002,11.92812 -54.42001,17.43616 -102.17404,16.50015 -15.68401,-0.2221 -29.14202,-7.12807 -40.37403,-20.70618 -11.00397,-12.87614 -16.49997,-27.27026 -16.49997,-43.17642 0,-16.86019 5.67001,-31.19432 17.03403,-43.02646 11.33996,-11.80211 25.452,-17.71819 42.30601,-17.71819 3.73796,0 8.71799,0.82201 14.91596,2.44805 6.20403,1.63798 10.36202,2.46003 12.46202,2.46003 8.66401,0 19.42798,-3.58207 32.30402,-10.7101 12.87598,-7.14008 18.96599,-10.7101 18.26399,-10.7101 -2.34601,24.57623 -10.53601,41.08838 -24.58199,49.50646 -10.07401,5.86808 -15.09601,11.5981 -15.09601,17.19618 0,3.51604 2.09399,6.33007 6.312,8.43606 3.276,1.62604 6.90597,2.44805 10.89001,2.44805 6.084,0 12.04794,-3.73803 17.90401,-11.22611 5.84393,-7.48808 8.41797,-14.28015 7.71593,-20.37619 -0.68995,-7.02608 -0.22209,-15.45618 1.41001,-25.27227 0.46199,-2.82604 2.16605,-6.27005 5.08802,-10.36213 2.928,-4.10402 5.56802,-6.62403 7.90199,-7.56604 0,2.118 -0.76799,5.62807 -2.28599,10.53011 -1.52401,4.91405 -2.28002,8.56807 -2.28002,10.88411 0,5.15406 1.398,9.13207 4.212,11.9401 4.212,-1.62601 7.95,-6.90007 11.23201,-15.80414 2.808,-6.78607 4.44003,-13.34415 4.92,-19.65621 -9.83998,-0.45002 -19.266,-4.90804 -28.272,-13.35015 -9.01198,-8.42408 -13.51199,-17.55615 -13.51199,-27.37825 0,-1.63204 0.22209,-3.28204 0.702,-4.91408 1.39202,2.11806 3.49802,5.3941 6.32401,9.84011 3.96599,5.83809 7.02,8.76608 9.12597,8.76608 2.808,0 4.20603,-2.92799 4.20603,-8.76608 0,-7.48808 -1.986,-14.27411 -5.96404,-20.37019 -4.45197,-7.26608 -10.18798,-10.88411 -17.20197,-10.88411 -3.28798,0 -8.19601,1.75798 -14.74801,5.27406 -6.55798,3.504 -12.52798,5.26205 -17.89197,5.26205 -1.64401,0 -8.90405,-2.12404 -21.78003,-6.33008 22.69801,-3.74403 34.05599,-7.13403 34.05599,-10.1821 0,-7.95609 -15.56401,-13.34411 -46.698,-16.14013 -3.04196,-0.22813 -8.65199,-0.69604 -16.848,-1.41002 0.93003,-1.15804 7.608,-2.44805 20.01601,-3.86405 10.53001,-1.15199 17.89801,-1.76402 22.11001,-1.76402 55.70997,0 91.05002,27.04826 106.03797,81.12681 2.58605,-2.14205 3.87602,-5.69405 3.87602,-10.6741 0,-6.41408 -1.87797,-14.48413 -5.62198,-24.21024 -1.40997,-3.79805 -3.64201,-9.50409 -6.67801,-17.08818 19.18197,24.45025 28.8,47.62847 28.8,69.50469 0,11.5201 -2.70602,21.99623 -8.08798,31.38032 -3.498,6.36607 -10.06805,14.47215 -19.65598,24.35423 -9.59404,9.87611 -16.14604,17.52019 -19.66201,22.93224 12.87597,-3.51601 21.31199,-6.21608 25.28996,-8.0881 8.88006,-3.978 16.96203,-9.95407 24.21604,-17.90415 -0.007,3.06602 -1.29601,7.62006 -3.858,13.69812 z M 286.25182,180.83066 c 0,4.21205 -2.34601,6.90007 -7.02001,8.08807 l -9.12597,1.39801 c -3.28801,1.62604 -8.08201,8.07608 -14.388,19.3082 -0.70801,-3.50403 -1.758,-8.42409 -3.16804,-14.74812 -2.10597,0.23383 -5.61601,2.11799 -10.52997,5.62203 -2.10604,1.63204 -5.50201,4.10408 -10.18798,7.37411 1.40997,-8.42409 6.10198,-16.9562 14.05201,-25.62627 8.42394,-9.5941 16.62599,-14.37614 24.57602,-14.37614 10.52994,-0.0168 15.79194,4.31403 15.79194,12.96011 z m 61.092,32.31032 c 0,3.96607 -2.15998,7.32611 -6.49799,10.00813 -4.332,2.68799 -8.60402,4.044 -12.81002,4.044 -5.62798,0 -10.66195,-3.15 -15.10198,-9.49205 -5.38797,-7.7101 -10.88401,-12.75016 -16.50601,-15.09619 1.15802,-1.17001 2.57403,-1.75799 4.22401,-1.75799 2.1,0 5.66401,1.62601 10.69798,4.90801 5.02203,3.29405 8.24405,4.92009 9.65402,4.92009 1.17,0 3.10202,-1.62604 5.78999,-4.92009 2.68803,-3.282 5.67001,-4.90801 8.95802,-4.90801 7.73402,0 11.59198,4.10402 11.59198,12.2941 z"
       inkscape:connector-curvature="0"
       id="path235"
       style="fill:#0d0f0f" />
  </g>
</svg>
