<?xml version="1.0" encoding="UTF-8" standalone="no"?>
<!-- Created with Inkscape (http://www.inkscape.org/) -->

<svg
   xmlns:dc="http://purl.org/dc/elements/1.1/"
   xmlns:cc="http://creativecommons.org/ns#"
   xmlns:rdf="http://www.w3.org/1999/02/22-rdf-syntax-ns#"
   xmlns:svg="http://www.w3.org/2000/svg"
   xmlns="http://www.w3.org/2000/svg"
   xmlns:inkscape="http://www.inkscape.org/namespaces/inkscape"
   version="1.1"
   width="600"
   height="600"
   id="svg4829">
  <defs
     id="defs4831" />
  <metadata
     id="metadata4834">
    <rdf:RDF>
      <cc:Work
         rdf:about="">
        <dc:format>image/svg+xml</dc:format>
        <dc:type
           rdf:resource="http://purl.org/dc/dcmitype/StillImage" />
        <dc:title />
      </cc:Work>
    </rdf:RDF>
  </metadata>
  <g
     transform="translate(-62.005531,103.92906)"
     id="layer1">
    <path
       d="m 574.09953,-16.107062 c 54.31197,54.306004 87.906,129.306002 87.906,212.160022 0,165.69599 -134.32203,300.01798 -300,300.01798 -82.84201,0 -157.83003,-33.57598 -212.12402,-87.87598"
       inkscape:connector-curvature="0"
       id="path249"
       style="fill:#f8f6d8" />
    <path
       d="M 149.88151,408.19496 C 95.581509,353.91295 62.005531,278.90097 62.005531,196.05896 c 0,-165.684008 134.321989,-299.98802 299.999999,-299.98802 82.81198,0 157.80598,33.558029 212.094,87.821998"
       inkscape:connector-curvature="0"
       id="path251"
       style="fill:#a3c095" />
    <path
       d="m 590.00553,334.73691 c -14.616,-13.58398 -24.324,-20.94597 -29.08801,-22.09199 -3.45599,-0.83398 -6.80999,1.18802 -10.03201,6.02402 -3.22199,4.85399 -7.74599,6.56398 -13.60797,5.15998 -2.37603,-0.56999 -7.05003,-2.61 -14.00401,-6.11399 -5.62801,5.31601 -8.64599,8.83198 -9.06602,10.55399 -0.56998,2.39401 0.53403,5.62801 3.306,9.73202 2.76002,4.09797 5.36402,6.432 7.80601,7.02597 1.54201,0.37202 3.72601,0.546 6.53999,0.53403 2.808,-0.007 4.66202,0.0959 5.56202,0.30596 2.65801,0.624 2.81401,5.82598 0.468,15.57598 -2.22,9.32401 -7.81201,23.12401 -16.758,41.358 -0.354,-23.45399 -3.65999,-35.94 -9.93599,-37.428 -0.87001,-0.21001 -2.81401,0.0235 -5.83199,0.666 -3.03002,0.64202 -5.184,0.822 -6.48004,0.504 -6.28801,-1.49998 -10.54799,-8.60399 -12.786,-21.26999 -10.33797,-0.87602 -16.54198,3.036 -18.61799,11.694 -1.04399,4.35599 0.13789,8.298 3.53402,11.85 3.37799,3.552 4.93796,5.87999 4.69198,6.95998 -1.39799,5.86202 -12.12597,12.80402 -32.13598,20.84403 -10.65604,4.332 -18.04203,7.368 -22.12802,9.13197 3.95398,-3.16797 8.21399,-7.53597 12.76201,-13.09199 5.17199,-6.34199 8.226,-11.43598 9.16801,-15.354 0.51601,-2.15401 -1.25401,-5.80199 -5.304,-10.884 -4.056,-5.09399 -5.55602,-9.80399 -4.51803,-14.12999 0.87601,-3.68401 3.25802,-7.92601 7.16402,-12.72001 -2.04601,-3.91798 -5.01001,-6.36 -8.90998,-7.29 -8.66404,-2.09399 -13.67403,-0.29992 -15.02402,5.34 0.93,-3.9 0.2278,-0.972 -2.10003,8.77801 -1.49998,7.19999 -7.77598,9.474 -18.82796,6.84599 -8.45403,-2.028 -22.17603,-7.37398 -41.18402,-16.04399 23.88596,-0.23417 36.70799,-4.04399 38.46603,-11.418 -0.1919,0.87599 -0.0201,-1.836 0.582,-8.11801 0.73199,-6.91201 6.95998,-11.85 18.64797,-14.77797 0.43201,-10.42801 -3.56401,-16.66201 -12.02401,-18.678 -1.29598,-0.31804 -4.23002,1.38598 -8.77801,5.106 -4.566,3.72598 -8.35801,5.23197 -11.38797,4.49998 -5.20201,-1.22998 -10.57801,-8.47798 -16.10404,-21.72001 -2.56199,-6.56998 -6.52798,-16.33797 -11.89797,-29.316 4.362,3.79802 8.71799,7.602 13.092,11.37603 5.778,4.60797 10.61998,7.362 14.51397,8.298 3.03603,0.72598 6.64805,-1.21801 10.84801,-5.83202 4.19402,-4.61398 8.67606,-6.348 13.44,-5.19598 0.66603,0.156 4.68,2.48399 12.07802,7.00799 5.62198,-5.298 8.79603,-9.45598 9.52802,-12.49201 0.61199,-2.61 -0.24021,-5.964 -2.58601,-10.07399 -2.34,-4.12199 -4.81202,-6.474 -7.41001,-7.11001 -1.08599,-0.27006 -2.83799,-0.34202 -5.268,-0.22813 -2.43001,0.11407 -4.18798,0.0302 -5.27398,-0.22813 -3.89399,-0.942 -4.686,-6.26999 -2.35201,-16.026 0.61199,-2.61 6.66,-16.86002 18.13197,-42.74402 -0.99598,3.18603 -1.03795,9.61202 -0.12614,19.218 1.086,11.71802 4.12203,18.15002 9.10799,19.36803 0.86404,0.1919 2.75402,-0.0419 5.67602,-0.708 2.91002,-0.67802 5.112,-0.84002 6.62403,-0.48002 4.97999,1.19399 8.42397,5.00402 10.33797,11.412 l 2.77801,9.93002 c 4.54799,1.09797 8.72997,0.37799 12.53999,-2.14203 3.816,-2.532 6.276,-6.06599 7.362,-10.61398 1.134,-4.77001 0,-8.87402 -3.40798,-12.34202 -3.41402,-3.44398 -4.97402,-5.83198 -4.65001,-7.12799 1.08599,-4.54799 10.07998,-10.53001 26.96999,-17.93998 13.56,-5.91602 22.254,-9.22202 26.09402,-9.91201 -12.32404,10.35599 -19.19405,18.42599 -20.59201,24.29398 -0.72599,3.03603 0.33011,6.72602 3.18602,11.08201 3.56999,5.20201 5.47198,8.75402 5.69994,10.63199 0.96603,5.49603 -0.87598,12.27003 -5.54994,20.33402 4.86596,5.51999 8.81997,8.62798 11.86197,9.36601 6.27,1.49998 10.19399,-0.99602 11.74802,-7.50001 0.156,-0.654 0.37799,-2.77201 0.67197,-6.37202 0.2761,-3.59397 0.588,-5.58598 0.90601,-5.96997 1.596,-2.82602 7.914,-2.91603 18.96602,-0.27007 6.936,1.65002 20.87398,7.05 41.83797,16.19402 -5.08198,0.14996 -12.69599,0.38399 -22.85401,0.702 -9.29998,0.53999 -14.33399,2.42397 -15.11399,5.66998 -0.35997,1.524 -0.44398,4.248 -0.23987,8.184 0.20398,3.942 0.10199,6.79201 -0.31804,8.51401 -0.71998,3.042 -3.354,5.376 -7.87199,7.05 l -12.92999,5.16598 c 1.46999,5.382 2.51998,8.62201 3.18599,9.69603 1.55403,3.10799 4.15201,5.12398 7.836,5.99999 2.60402,0.624 5.53199,-1.092 8.79001,-5.12401 3.25198,-4.03198 7.27199,-5.47798 12.042,-4.33201 5.85,1.38602 11.16598,8.38201 15.942,20.98802 2.67599,7.07398 6.864,17.80799 12.58199,32.238 z m -67.64401,-36.11398 c 3.312,-13.878 1.10401,-27.12599 -6.64799,-39.74999 -7.75199,-12.62399 -18.564,-20.59801 -32.42402,-23.904 -14.08798,-3.36598 -27.438,-1.22999 -40.026,6.42002 -12.59396,7.61998 -20.68799,18.46199 -24.27599,32.48998 -3.54003,13.81201 -1.26001,27.03001 6.84599,39.62398 8.09999,12.582 19.08002,20.55001 32.95802,23.86801 14.72399,3.52198 28.18199,1.632 40.35,-5.64002 12.15599,-7.28399 19.89598,-18.32997 23.21999,-33.10798 z m -4.88998,-1.17597 c -3.156,13.21797 -10.21804,23.10596 -21.18001,29.63397 -10.95601,6.54 -23.05799,8.23798 -36.26401,5.07601 -12.786,-3.07203 -22.66198,-10.12202 -29.64002,-21.19802 -6.97796,-11.05199 -8.93397,-22.96798 -5.87399,-35.75398 3.01798,-12.57599 10.18802,-22.25399 21.552,-29.05201 11.37603,-6.786 23.33402,-8.66998 35.904,-5.658 12.56405,3.00003 22.36199,10.14601 29.388,21.45601 7.02601,11.32202 9.07202,23.148 6.11403,35.49602 z"
       inkscape:connector-curvature="0"
       id="path253"
       style="fill:#0d0f0f" />
    <path
       d="m 371.84551,101.95496 c 0,4.54799 -1.758,8.62798 -5.27401,12.25798 -3.51597,3.624 -7.54799,5.44799 -12.09601,5.44799 -7.24196,0 -12.588,-3.402 -15.978,-10.20599 l -15.99597,-0.69002 c -3.40802,0 -10.11002,1.47603 -20.07604,4.42802 -10.66198,2.93998 -16.78795,5.34 -18.38399,7.14 -2.48399,2.71202 -4.52997,9.078 -6.11996,19.05003 -1.36804,8.16598 -2.03404,14.18396 -2.03404,18.048 0,6.12597 0.96002,10.61397 2.88003,13.43398 1.92601,2.844 5.90401,5.22 11.90401,7.14598 6.00597,1.914 9.69599,3.006 11.06399,3.21602 0.90601,0 2.376,-0.10803 4.42199,-0.34203 h 4.08602 c 2.94596,0 6.00597,0.462 9.192,1.37401 4.53,1.37397 6.46199,3.17398 5.78998,5.44799 -3.18599,-0.45599 -8.736,0.22209 -16.66798,2.03998 l 9.51597,4.76401 c 0,2.72399 -3.858,4.08599 -11.568,4.08599 -2.05198,0 -4.82996,-0.45599 -8.33996,-1.362 -3.52205,-0.91198 -5.85004,-1.362 -6.97804,-1.362 h -4.416 c -0.23417,2.262 -0.90601,5.65801 -2.04602,10.20003 -3.86998,-0.23384 -8.39395,-2.496 -13.61995,-6.816 -5.21999,-4.30201 -8.50804,-6.46202 -9.85803,-6.46202 -1.368,0 -3.30599,2.16001 -5.78998,6.46202 -2.50201,4.32 -3.744,7.26598 -3.744,8.85597 -2.94602,-1.58999 -5.42998,-4.53597 -7.49401,-8.85597 -0.90601,-2.94602 -1.92602,-5.892 -3.05398,-8.85 -2.27401,0.23383 -6.46199,4.992 -12.59404,14.29799 h -1.70399 c -0.45599,-0.68402 -2.15998,-5.44799 -5.112,-14.29799 -7.03198,-2.262 -13.608,-3.396 -19.72797,-3.396 -2.94602,0 -7.49401,0.68999 -13.62004,2.03997 l -9.51597,-0.666 c 1.34998,-1.37397 5.32798,-3.972 11.898,-7.82999 7.70399,-4.53598 13.61397,-6.80999 17.69403,-6.80999 0.67194,0 1.58399,0.1201 2.72396,0.34202 1.128,0.22813 2.04602,0.34203 2.724,0.34203 1.57801,0 4.134,-0.852 7.65001,-2.56199 3.51597,-1.68001 5.56199,-3.21602 6.11399,-4.58402 0.588,-1.36801 0.87001,-4.87801 0.87001,-10.56597 0,-12.91805 -3.40801,-22.56003 -10.218,-28.91403 -5.89801,-5.66401 -15.64802,-9.74997 -29.26199,-12.24 -3.624,12.92399 -13.84203,19.39199 -30.61801,19.39199 -5.454,0 -10.88998,-3.29399 -16.33797,-9.87598 -5.43005,-6.57599 -8.16605,-12.588 -8.16605,-18.03002 0,-8.394012 3.51604,-15.324004 10.54802,-20.771996 -5.66401,-5.879961 -8.50801,-11.892002 -8.50801,-18.023979 0,-5.681992 1.752,-10.661984 5.27401,-14.988017 3.516,-4.301978 8.11801,-6.798013 13.78202,-7.469987 -0.44405,-7.266013 1.92598,-12.25201 7.14597,-14.976006 -2.496,-2.496001 -3.73799,-6.917983 -3.73799,-13.266011 0,-7.481964 2.48399,-13.7279721 7.482,-18.713969 4.97999,-4.9980408 11.232,-7.5000134 18.70199,-7.5000134 8.17799,0 14.87398,2.8680192 20.08804,8.51998545 6.58797,-22.45797105 20.75398,-33.68397005 42.53394,-33.68397005 11.34003,0 21.32403,4.535979 29.94003,13.614008 3.17999,3.401976 4.75797,5.219964 4.75797,5.441987 -2.71195,0 -1.34999,-0.516008 4.08603,-1.536014 5.45396,-1.020005 9.40801,-1.53598 11.91599,-1.53598 8.84403,0 16.66802,3.29395 23.48998,9.8759787 5.89204,5.892005 9.978,13.374003 12.25201,22.4519993 1.57802,0.233832 4.07399,0.912013 7.476,2.040011 4.98603,2.513983 7.488,6.80999 7.488,12.935995 0,1.127964 -0.91201,3.294017 -2.724,6.455987 14.51402,8.166016 21.78003,19.512018 21.78003,34.044012 0,4.073983 -1.59003,9.750004 -4.758,17.003973 5.91599,3.42603 8.86798,8.430009 8.86798,14.988016 z m -140.20199,14.98198 v -4.404 c 0,-5.22 -2.55001,-9.98998 -7.65601,-14.297994 -5.106,-4.302012 -10.25998,-6.461992 -15.48001,-6.461992 -6.36,0 -12.25197,1.458013 -17.69396,4.409971 12.02398,-0.683985 25.63199,6.246005 40.82998,20.754015 z m -6.126,-42.192014 c -3.39601,-3.869976 -6.348,-7.829995 -8.84403,-11.909984 -9.53396,2.502006 -14.29199,5.340033 -14.29199,8.502003 2.71202,-0.209677 6.69002,0.288181 11.89804,1.547991 5.21996,1.242028 8.97594,1.85999 11.23798,1.85999 z m 20.778,-10.547986 V 49.220934 c -5.46001,-0.893998 -8.75399,-1.368004 -9.87601,-1.368004 v 5.106 l 9.87601,11.23801 z m 44.22602,-9.522009 c -2.72403,-1.13397 -7.83003,-3.401976 -15.32401,-6.80999 V 77.12693 c 10.674,-6.132011 15.76799,-13.620014 15.32401,-22.451999 z m 18.69598,40.152001 -7.47602,-9.191994 c -4.53001,3.179986 -9.12601,6.402008 -13.78799,9.701997 -4.64998,3.294016 -8.67002,6.971995 -12.06602,11.051985 10.19402,-5.44799 21.324,-9.293982 33.33003,-11.561988 z"
       inkscape:connector-curvature="0"
       id="path255"
       style="fill:#0d0f0f" />
  </g>
</svg>
