<?xml version="1.0" encoding="UTF-8" standalone="no"?>
<!-- Created with Inkscape (http://www.inkscape.org/) -->

<svg
   xmlns:dc="http://purl.org/dc/elements/1.1/"
   xmlns:cc="http://creativecommons.org/ns#"
   xmlns:rdf="http://www.w3.org/1999/02/22-rdf-syntax-ns#"
   xmlns:svg="http://www.w3.org/2000/svg"
   xmlns="http://www.w3.org/2000/svg"
   xmlns:inkscape="http://www.inkscape.org/namespaces/inkscape"
   version="1.1"
   width="600"
   height="600"
   id="svg4866">
  <defs
     id="defs4868" />
  <metadata
     id="metadata4871">
    <rdf:RDF>
      <cc:Work
         rdf:about="">
        <dc:format>image/svg+xml</dc:format>
        <dc:type
           rdf:resource="http://purl.org/dc/dcmitype/StillImage" />
        <dc:title />
      </cc:Work>
    </rdf:RDF>
  </metadata>
  <g
     transform="translate(-302.00553,66.78621)"
     id="layer1">
    <path
       d="m 814.10553,21.035788 c 54.31798,54.306004 87.9,129.306002 87.9,212.160022 0,165.69599 -134.32199,300.01798 -300,300.01798 -82.84201,0 -157.83,-33.57598 -212.12399,-87.87598"
       inkscape:connector-curvature="0"
       id="path259"
       style="fill:#c1d7e9" />
    <path
       d="m 389.88154,445.33781 c -54.3,-54.28201 -87.87601,-129.29399 -87.87601,-212.142 0,-165.678008 134.32199,-299.98202 300,-299.98202 82.81799,0 157.80601,33.558029 212.1,87.821998"
       inkscape:connector-curvature="0"
       id="path261"
       style="fill:#a3c095" />
    <path
       d="m 762.3435,435.26377 c -16.15798,16.43401 -36.04795,24.65401 -59.66995,24.65401 -26.544,0 -47.58002,-9.09001 -63.14403,-27.246 -14.71198,-17.30399 -22.06797,-39.34801 -22.06797,-66.16801 0,-28.82398 12.54599,-61.68598 37.63198,-98.60399 20.45999,-30.28199 44.54399,-56.802 72.21602,-79.58398 -4.05,18.45598 -6.05401,31.57199 -6.05401,39.36599 0,17.87999 5.616,35.316 16.86602,52.32601 13.84197,20.19 24.37197,35.18399 31.57196,44.976 11.23801,17.00998 16.878,33.59996 16.878,49.73396 -0.0101,23.94 -8.09399,44.12403 -24.22802,60.54601 z m -0.44995,-92.32799 c -4.31402,-9.65399 -9.36601,-16.07998 -15.12603,-19.24799 0.87601,1.72801 1.30201,4.18801 1.30201,7.35599 0,6.06001 -1.722,14.71798 -5.19,25.94398 l -5.62802,17.31001 c 0,10.08002 5.04005,15.132 15.12604,15.132 10.66198,0 16.00799,-7.062 16.00799,-21.19199 0,-7.20599 -2.16002,-15.64801 -6.49199,-25.302 z"
       inkscape:connector-curvature="0"
       id="path263"
       style="fill:#0d0f0f" />
    <path
       d="m 611.85155,138.92379 c 0,4.54202 -1.75804,8.62802 -5.27401,12.25802 -3.52198,3.62397 -7.55403,5.42397 -12.10202,5.42397 -7.24199,0 -12.58799,-3.38996 -15.97799,-10.19999 l -15.99598,-0.67197 c -3.40801,0 -10.11005,1.46999 -20.076,4.41597 -10.66202,2.94002 -16.78802,5.32803 -18.38402,7.14602 -2.48399,2.71799 -4.53001,9.08396 -6.12,19.05599 -1.368,8.16598 -2.03397,14.17802 -2.03397,18.048 0,6.10799 0.95998,10.602 2.87999,13.43999 1.92595,2.83199 5.90398,5.20202 11.90398,7.128 6.006,1.914 9.69599,3.01201 11.064,3.22799 0.906,0 2.37599,-0.10802 4.42201,-0.34202 h 4.08599 c 2.94602,0 6.00601,0.468 9.192,1.368 4.53,1.35599 6.46199,3.16801 5.79002,5.43601 -3.186,-0.438 -8.73601,0.22813 -16.66799,2.04599 l 9.51597,4.77001 c 0,2.72399 -3.858,4.07999 -11.56799,4.07999 -2.05202,0 -4.83003,-0.44398 -8.34,-1.356 -3.52198,-0.91798 -5.85,-1.374 -6.978,-1.374 h -4.41601 c -0.23383,2.27401 -0.90601,5.66401 -2.04598,10.218 -3.87001,-0.23383 -8.39401,-2.50798 -13.62002,-6.80999 -5.21999,-4.31399 -8.508,-6.468 -9.85799,-6.468 -1.36801,0 -3.30603,2.15401 -5.78999,6.468 -2.502,4.30201 -3.744,7.248 -3.744,8.85 -2.94602,-1.602 -5.43004,-4.54799 -7.49401,-8.85 -0.906,-2.964 -1.92601,-5.90401 -3.05401,-8.86201 -2.27401,0.22209 -6.46199,5.00401 -12.594,14.304 h -1.70399 c -0.45602,-0.68399 -2.15998,-5.44199 -5.11201,-14.304 -7.03201,-2.262 -13.608,-3.39 -19.728,-3.39 -2.94598,0 -7.49401,0.67201 -13.61998,2.04602 l -9.51604,-0.66601 c 1.35002,-1.374 5.32803,-3.984 11.89804,-7.842 7.70399,-4.54799 13.61398,-6.816 17.69397,-6.816 0.67201,0 1.58402,0.12614 2.72403,0.348 1.12796,0.24591 2.04598,0.35397 2.72399,0.35397 1.57799,0 4.13401,-0.858 7.64998,-2.568 3.51601,-1.69798 5.56199,-3.22198 6.11399,-4.58999 0.58801,-1.37401 0.87602,-4.878 0.87602,-10.55402 0,-12.92399 -3.40798,-22.57197 -10.21801,-28.92597 -5.89797,-5.652 -15.64798,-9.74403 -29.26198,-12.25201 -3.624,12.92398 -13.84201,19.40399 -30.61802,19.40399 -5.45396,0 -10.89001,-3.28201 -16.338,-9.87001 -5.42998,-6.59997 -8.16599,-12.6 -8.16599,-18.04799 0,-8.39999 3.51601,-15.30599 10.54799,-20.75999 -5.66398,-5.886 -8.50797,-11.89801 -8.50797,-18.03002 0,-5.66998 1.75199,-10.661982 5.27397,-14.975971 3.51601,-4.296007 8.11801,-6.804018 13.78202,-7.494008 -0.44401,-7.241993 1.92598,-12.25201 7.14601,-14.963996 -2.49603,-2.489996 -3.73803,-6.906005 -3.73803,-13.26601 0,-7.481998 2.48403,-13.715996 7.48203,-18.707998 4.97999,-4.992002 11.23201,-7.49998 18.70199,-7.49998 8.178,0 14.87399,2.849971 20.08802,8.507975 6.58796,-22.451998 20.75398,-33.6779644 42.53397,-33.6779644 11.33999,0 21.324,4.5419838 29.94,13.6259514 3.17998,3.378022 4.758,5.20802 4.758,5.430044 -2.71199,0 -1.34999,-0.516008 4.08599,-1.536014 5.454,-1.020006 9.40802,-1.536014 11.91599,-1.536014 8.844,0 16.66802,3.299989 23.49002,9.876012 5.89201,5.903982 9.97797,13.37397 12.25201,22.451999 1.57799,0.228129 4.07399,0.900003 7.476,2.039978 4.98599,2.508011 7.48797,6.810023 7.48797,12.936028 0,1.13397 -0.91198,3.294017 -2.724,6.467998 14.51401,8.165983 21.78002,19.500008 21.78002,34.01999 0,4.08599 -1.59599,9.76802 -4.758,17.02199 5.90999,3.41402 8.86802,8.41199 8.86802,14.99402 z M 471.64356,153.8998 v -4.42198 c 0,-5.22003 -2.55005,-9.98404 -7.65605,-14.29202 -5.106,-4.326 -10.25997,-6.46203 -15.47997,-6.46203 -6.36001,0 -12.25201,1.47003 -17.69403,4.41004 12.02405,-0.66604 25.63202,6.23396 40.83005,20.76599 z m -6.12601,-42.18601 c -3.39604,-3.87601 -6.34799,-7.84197 -8.84403,-11.916019 -9.53402,2.496039 -14.29199,5.334029 -14.29199,8.496029 2.71202,-0.22209 6.68999,0.29389 11.89801,1.53602 5.22,1.25997 8.97601,1.88397 11.23801,1.88397 z m 20.77797,-10.56003 V 86.177825 c -5.46,-0.900003 -8.75399,-1.362032 -9.87598,-1.362032 v 5.106033 l 9.87598,11.231934 z m 44.22598,-9.527977 c -2.72396,-1.134003 -7.82996,-3.402009 -15.32397,-6.80999 v 29.262027 c 10.674,-6.13201 15.76799,-13.60801 15.32397,-22.452037 z m 18.69602,40.152037 -7.47599,-9.17405 c -4.53001,3.17405 -9.126,6.40204 -13.78799,9.69006 -4.65001,3.28197 -8.66998,6.978 -12.06598,11.06396 10.19398,-5.46598 21.32396,-9.30599 33.32996,-11.57997 z"
       inkscape:connector-curvature="0"
       id="path265"
       style="fill:#0d0f0f" />
  </g>
</svg>
