<?xml version="1.0" encoding="UTF-8" standalone="no"?>
<!-- Created with Inkscape (http://www.inkscape.org/) -->

<svg
   xmlns:dc="http://purl.org/dc/elements/1.1/"
   xmlns:cc="http://creativecommons.org/ns#"
   xmlns:rdf="http://www.w3.org/1999/02/22-rdf-syntax-ns#"
   xmlns:svg="http://www.w3.org/2000/svg"
   xmlns="http://www.w3.org/2000/svg"
   xmlns:inkscape="http://www.inkscape.org/namespaces/inkscape"
   version="1.1"
   width="600"
   height="600"
   id="svg5088">
  <defs
     id="defs5090" />
  <metadata
     id="metadata5093">
    <rdf:RDF>
      <cc:Work
         rdf:about="">
        <dc:format>image/svg+xml</dc:format>
        <dc:type
           rdf:resource="http://purl.org/dc/dcmitype/StillImage" />
        <dc:title />
      </cc:Work>
    </rdf:RDF>
  </metadata>
  <g
     transform="translate(-484.8627,32.5005)"
     id="layer1">
    <g
       transform="matrix(6,0,0,6,3004.8627,-1292.5005)"
       id="g333">
      <circle
         cx="-370"
         cy="260"
         r="50"
         id="circle335"
         style="fill:#f8f6d8" />
    </g>
    <path
       d="m 950.24083,267.0495 c 0.3482,-32.06402 -9.83994,-64.43404 -29.80198,-89.56803 -9.64798,-10.62598 -17.57996,-22.72199 -27.798,-32.76598 -22.524,-22.35602 -56.24997,-23.84403 -83.382,-37.926 -1.57802,-14.142027 -6.74998,-28.290025 -3.618,-42.558026 0.95402,-4.745991 2.35201,-9.557973 -0.17378,-14.093985 -7.11605,-16.392017 -1.00206,-34.188001 -2.26804,-51.2819849 -0.94797,-8.9280011 -0.34169,-19.8540111 -8.84399,-25.3680261 -1.98003,18.5820233 -8.81397,35.8740098 -14.35201,53.508022 -2.55599,13.739983 -2.55599,28.055991 -8.47798,41.015973 3.75598,13.128026 -3.68402,24.18001 -11.73607,33.875997 -17.79595,9.12 -38.97596,11.28602 -54.46194,24.66002 -11.04604,9.37199 -22.96801,17.58601 -35.32804,25.212 -9.26996,11.60399 -19.53597,22.78198 -23.66397,37.44001 -16.572,20.01001 -18.52801,46.86598 -27.92401,70.30202 -0.17378,34.79398 6.87598,72.25795 29.10002,100.14597 15.89996,13.12799 27.01199,30.78599 42.888,43.91999 15.23997,9.09604 31.50598,16.572 47.244,24.76204 10.25997,2.38801 20.84996,3.56398 31.05596,6.35397 8.28004,42.654 13.93201,86.346 30.55206,126.79802 5.51398,-16.60803 4.84798,-34.40402 9.60601,-51.186 6.70797,-24.81606 -7.05603,-50.64601 0.702,-75.00601 11.62798,-10.39802 31.01996,-3.64802 43.91999,-12.57001 24.552,-15.13801 50.53198,-29.87999 68.34001,-53.04002 6.62997,-13.31399 20.55594,-23.262 20.55594,-39.23402 0.11406,-21.50996 12.66003,-41.65195 7.86606,-63.39594 z M 768.0028,398.62948 c -17.78998,-4.326 -34.36195,-12.83401 -49.28394,-23.22603 -16.05603,-10.69798 -22.04402,-30.65998 -37.88403,-41.60398 -14.83198,-17.706 -11.62201,-41.89202 -17.7,-62.85598 2.43601,-14.62801 5.30997,-29.13601 6.828,-43.95005 7.23602,-11.73596 18.40197,-21.09597 21.49799,-35.21995 10.602,-15.19202 26.748,-25.70401 39.71399,-38.874 9.43203,-10.87801 24.444,-6.29402 36.834,-6.71401 -1.22999,11.99999 -2.20799,24.408 0.79801,36.24599 1.46402,7.27202 4.74603,14.43601 3.62403,22.056 -2.48399,16.19401 3.59401,32.436 -0.702,48.44402 -8.658,33.46799 0.78598,67.25398 1.60801,100.99199 -1.23602,14.94602 -1.93205,29.99999 -5.33406,44.706 z m 134.86206,-63.42003 c -11.78401,8.37599 -21.822,18.66599 -32.10599,28.70998 -17.87402,12.36004 -35.53799,25.44002 -56.81405,31.62004 1.92004,-15.17398 3.79204,-30.78599 -1.04396,-45.642 -11.86798,-33.564 2.67599,-68.67002 5.12999,-102.61201 -2.16599,-20.17799 -0.096,-41.70599 -9.34796,-60.29399 -1.21204,-13.962 4.82399,-27.444 8.91595,-40.584 14.05202,5.60999 27.28203,13.182 38.97603,22.92 14.12398,10.58401 35.76002,17.44802 38.92199,37.188 1.61398,12.96602 15.80401,20.80802 15.39002,34.074 -0.88802,31.536 3.46196,64.518 -8.02202,94.61998 z"
       inkscape:connector-curvature="0"
       id="path419"
       style="fill:#111212" />
  </g>
</svg>
