<?xml version="1.0" encoding="UTF-8" standalone="no"?>
<!-- Created with Inkscape (http://www.inkscape.org/) -->

<svg
   xmlns:dc="http://purl.org/dc/elements/1.1/"
   xmlns:cc="http://creativecommons.org/ns#"
   xmlns:rdf="http://www.w3.org/1999/02/22-rdf-syntax-ns#"
   xmlns:svg="http://www.w3.org/2000/svg"
   xmlns="http://www.w3.org/2000/svg"
   xmlns:inkscape="http://www.inkscape.org/namespaces/inkscape"
   version="1.1"
   width="600"
   height="600"
   id="svg5120">
  <defs
     id="defs5122" />
  <metadata
     id="metadata5125">
    <rdf:RDF>
      <cc:Work
         rdf:about="">
        <dc:format>image/svg+xml</dc:format>
        <dc:type
           rdf:resource="http://purl.org/dc/dcmitype/StillImage" />
        <dc:title />
      </cc:Work>
    </rdf:RDF>
  </metadata>
  <g
     transform="translate(-967.7198,215.3576)"
     id="layer1">
    <g
       transform="matrix(6,0,0,6,2857.7198,-1475.3576)"
       id="g329">
      <circle
         cx="-265"
         cy="260"
         r="50"
         id="circle331"
         style="fill:#c1d7e9" />
    </g>
    <path
       d="m 1433.092,84.192356 c 0.3479,-32.064018 -9.84,-64.434031 -29.802,-89.5680236 -9.6482,-10.6259864 -17.5801,-22.7219964 -27.7982,-32.7659854 -22.5241,-22.356017 -56.25,-23.844023 -83.3819,-37.925997 -1.5781,-14.142027 -6.7499,-28.29002 -3.6178,-42.55803 0.9537,-4.74599 2.3517,-9.55797 -0.1745,-14.09398 -7.1163,-16.39202 -1.0021,-34.188 -2.2682,-51.28199 -0.9477,-8.928 -0.3415,-19.85401 -8.844,-25.36802 -1.9801,18.58202 -8.8139,35.87401 -14.352,53.50802 -2.5558,13.73998 -2.5558,28.05599 -8.4781,41.01597 3.7561,13.12803 -3.6839,24.180013 -11.7359,33.876004 -17.796,9.119999 -38.9758,11.286018 -54.4618,24.660021 -11.0461,9.371981 -22.9682,17.586005 -35.3281,25.211992 -9.2701,11.60399 -19.5359,22.7819813 -23.664,37.4400157 -16.5719,20.0100113 -18.5282,46.8659753 -27.9241,70.3020163 -0.1744,34.793981 6.8761,72.257951 29.0999,100.145971 15.9003,13.12799 27.0122,30.78599 42.8883,43.91999 15.24,9.09604 31.506,16.572 47.2439,24.76204 10.2601,2.38801 20.85,3.56398 31.0561,6.35397 8.28,42.654 13.9319,86.346 30.5518,126.79802 5.514,-16.60803 4.8481,-34.40402 9.6059,-51.186 6.708,-24.81606 -7.0559,-50.64601 0.7022,-75.00601 11.6279,-10.39802 31.0199,-3.64802 43.9199,-12.57001 24.552,-15.13801 50.5319,-29.87999 68.3401,-53.04002 6.6298,-13.31399 20.5561,-23.262 20.5561,-39.23402 0.1141,-21.50996 12.6538,-41.65195 7.8658,-63.395944 z M 1250.8481,215.77234 c -17.7901,-4.326 -34.3623,-12.83401 -49.2843,-23.22603 -16.0559,-10.69798 -22.044,-30.65998 -37.8839,-41.60398 -14.8321,-17.706 -11.6218,-41.89202 -17.7001,-62.855977 2.4363,-14.628009 5.31,-29.136015 6.8281,-43.950049 7.236,-11.735969 18.402,-21.095973 21.4981,-35.2199502 10.602,-15.1920244 26.7478,-25.7040128 39.714,-38.8740088 9.4321,-10.878001 24.444,-6.294015 36.8338,-6.714007 -1.2299,11.999994 -2.2079,24.408004 0.7981,36.24599384 1.464,7.27201846 4.7461,14.43601116 3.6182,22.05599316 -2.4843,16.194015 3.5937,32.436004 -0.7022,48.444026 -8.6578,33.467989 0.786,67.253979 1.608,100.991989 -1.2299,14.94602 -1.926,29.99999 -5.3278,44.706 z m 134.8618,-63.42003 c -11.7842,8.37599 -21.8218,18.66599 -32.1061,28.70998 -17.8739,12.36004 -35.5378,25.44002 -56.8139,31.62004 1.92,-15.17398 3.792,-30.78599 -1.044,-45.642 -11.8681,-33.564 2.6761,-68.670017 5.1302,-102.612008 -2.1662,-20.177987 -0.097,-41.705996 -9.3483,-60.2939909 -1.2117,-13.9620057 4.824,-27.4440011 8.9162,-40.5840041 14.0518,5.609997 27.2819,13.182006 38.9759,22.919999 14.1238,10.5840177 35.7599,17.4480205 38.9222,37.188 1.614,12.966021 15.8039,20.808027 15.3899,34.074004 -0.888,31.536 3.4619,64.518 -8.0221,94.61998 z"
       inkscape:connector-curvature="0"
       id="path421"
       style="fill:#111212" />
  </g>
</svg>
