<?xml version="1.0" encoding="UTF-8" standalone="no"?>
<!-- Created with Inkscape (http://www.inkscape.org/) -->

<svg
   xmlns:dc="http://purl.org/dc/elements/1.1/"
   xmlns:cc="http://creativecommons.org/ns#"
   xmlns:rdf="http://www.w3.org/1999/02/22-rdf-syntax-ns#"
   xmlns:svg="http://www.w3.org/2000/svg"
   xmlns="http://www.w3.org/2000/svg"
   xmlns:inkscape="http://www.inkscape.org/namespaces/inkscape"
   version="1.1"
   width="600"
   height="600"
   id="svg3299">
  <defs
     id="defs3301" />
  <metadata
     id="metadata3304">
    <rdf:RDF>
      <cc:Work
         rdf:about="">
        <dc:format>image/svg+xml</dc:format>
        <dc:type
           rdf:resource="http://purl.org/dc/dcmitype/StillImage" />
        <dc:title />
      </cc:Work>
    </rdf:RDF>
  </metadata>
  <g
     transform="translate(-444.8627,-4.642415)"
     id="layer1">
    <g
       transform="matrix(6,0,0,6,1704.8627,-1255.3455)"
       id="g325">
      <circle
         cx="-160"
         cy="259.99799"
         r="50"
         id="circle327"
         style="fill:#bab1ab" />
    </g>
    <path
       d="m 910.23478,304.20444 c 0.34816,-32.06402 -9.83995,-64.43403 -29.80199,-89.56802 -9.64795,-10.62599 -17.57996,-22.722 -27.798,-32.76599 -22.52399,-22.35602 -56.25,-23.84402 -83.382,-37.926 -1.57802,-14.14202 -6.74997,-28.29002 -3.61799,-42.55802 0.95401,-4.745995 2.35201,-9.557976 -0.17379,-14.093988 -7.11598,-16.392017 -1.00199,-34.188001 -2.268,-51.281985 -0.94798,-8.928001 -0.34173,-19.854011 -8.844,-25.368026 -1.97999,18.582023 -8.81397,35.87401 -14.352,53.508022 -2.55599,13.739982 -2.55599,28.055991 -8.47795,41.015977 3.75598,13.12802 -3.68402,24.18001 -11.73604,33.876 -17.79598,9.12 -38.97599,11.28601 -54.46197,24.66002 -11.04601,9.37198 -22.96801,17.586 -35.32801,25.21199 -9.26999,11.60399 -19.53597,22.78198 -23.66397,37.44002 -16.57204,20.01001 -18.52804,46.86597 -27.92404,70.30201 -0.17378,34.79399 6.87598,72.25796 29.10001,100.14597 15.89997,13.12799 27.012,30.78599 42.88801,43.91999 15.24,9.09605 31.50601,16.572 47.244,24.76204 10.25997,2.38801 20.84996,3.56398 31.05599,6.35397 8.27998,42.65401 13.93195,86.346 30.55196,126.79802 5.51401,-16.60803 4.84801,-34.40401 9.60605,-51.186 6.70797,-24.81605 -7.05607,-50.64601 0.70196,-75.006 11.62801,-10.39803 31.02,-3.64802 43.92003,-12.57002 24.55199,-15.13801 50.53197,-29.87998 68.33997,-53.04002 6.62997,-13.31399 20.55598,-23.26199 20.55598,-39.23402 0.11406,-21.50996 12.65405,-41.65195 7.86602,-63.39594 z M 727.99084,435.78442 c -17.79001,-4.326 -34.36202,-12.83401 -49.28401,-23.22603 -16.056,-10.69798 -22.04402,-30.65998 -37.884,-41.60397 -14.83201,-17.70601 -11.622,-41.89202 -17.7,-62.85598 2.43598,-14.62801 5.30998,-29.13602 6.82797,-43.95005 7.23599,-11.73597 18.40204,-21.09598 21.49802,-35.21995 10.602,-15.19203 26.74801,-25.70402 39.71399,-38.87401 9.43204,-10.878 24.44404,-6.29402 36.834,-6.71401 -1.23002,11.99999 -2.20799,24.40801 0.79805,36.24599 1.46399,7.27202 4.74596,14.43602 3.61796,22.056 -2.48402,16.19401 3.59401,32.436 -0.702,48.44402 -8.658,33.46799 0.78601,67.25398 1.60797,100.992 -1.22998,14.94601 -1.92598,29.99998 -5.32795,44.70599 z m 134.86199,-63.42003 c -11.78401,8.376 -21.82203,18.66599 -32.10602,28.70998 -17.87402,12.36004 -35.53799,25.44002 -56.81402,31.62004 1.92001,-15.17397 3.79201,-30.78599 -1.04396,-45.64199 -11.86801,-33.564 2.67599,-68.67002 5.12995,-102.61201 -2.16598,-20.17799 -0.0959,-41.706 -9.34799,-60.294 -1.212,-13.962 4.82403,-27.444 8.91599,-40.584 14.05205,5.61 27.28203,13.18201 38.976,22.92 14.12401,10.58402 35.76004,17.44802 38.92201,37.188 1.61402,12.96602 15.80402,20.80803 15.39003,34.074 -0.88803,31.536 3.46199,64.51801 -8.02199,94.61998 z"
       inkscape:connector-curvature="0"
       id="path423"
       style="fill:#111212" />
  </g>
</svg>
