<?xml version="1.0" encoding="UTF-8" standalone="no"?>
<!-- Created with Inkscape (http://www.inkscape.org/) -->

<svg
   xmlns:dc="http://purl.org/dc/elements/1.1/"
   xmlns:cc="http://creativecommons.org/ns#"
   xmlns:rdf="http://www.w3.org/1999/02/22-rdf-syntax-ns#"
   xmlns:svg="http://www.w3.org/2000/svg"
   xmlns="http://www.w3.org/2000/svg"
   xmlns:inkscape="http://www.inkscape.org/namespaces/inkscape"
   version="1.1"
   width="600"
   height="600"
   id="svg5184">
  <defs
     id="defs5186" />
  <metadata
     id="metadata5189">
    <rdf:RDF>
      <cc:Work
         rdf:about="">
        <dc:format>image/svg+xml</dc:format>
        <dc:type
           rdf:resource="http://purl.org/dc/dcmitype/StillImage" />
        <dc:title />
      </cc:Work>
    </rdf:RDF>
  </metadata>
  <g
     transform="translate(-479.1484,89.6433)"
     id="layer1">
    <g
       transform="matrix(6,0,0,6,1109.1484,-1349.6433)"
       id="g321">
      <circle
         cx="-55"
         cy="260"
         r="50"
         id="circle323"
         style="fill:#e49977" />
    </g>
    <path
       d="m 944.52055,209.90666 c 0.34799,-32.06402 -9.84002,-64.43403 -29.80202,-89.56802 -9.64799,-10.62599 -17.58,-22.721998 -27.79801,-32.765986 -22.52399,-22.356017 -56.25,-23.844023 -83.382,-37.925998 -1.57795,-14.142026 -6.74997,-28.290024 -3.61796,-42.5580252 0.95399,-4.7459916 2.35198,-9.557973 -0.17378,-14.0939852 -7.11598,-16.3920166 -1.00199,-34.1880016 -2.26804,-51.2819846 -0.94797,-8.928002 -0.34189,-19.854011 -8.84396,-25.368026 -1.98003,18.582023 -8.814,35.874009 -14.35201,53.508022 -2.55601,13.739982 -2.55601,28.0559907 -8.47798,41.015973 3.75598,13.128026 -3.68402,24.18001 -11.736,33.876001 -17.79602,9.119998 -38.97603,11.286017 -54.46201,24.66002 -11.04597,9.371981 -22.968,17.586005 -35.328,25.211993 -9.27,11.603986 -19.53601,22.781976 -23.66401,37.440016 -16.572,20.01001 -18.52797,46.86597 -27.92401,70.30202 -0.17378,34.79398 6.87601,72.25792 29.10002,100.14593 15.89996,13.12799 27.012,30.78599 42.88801,43.91999 15.23999,9.09605 31.506,16.572 47.244,24.76204 10.25997,2.38801 20.84996,3.56398 31.05598,6.35397 8.27998,42.65401 13.93198,86.346 30.552,126.79802 5.51401,-16.60803 4.84801,-34.40401 9.60601,-51.186 6.708,-24.81605 -7.056,-50.64601 0.702,-75.006 11.62794,-10.39803 31.01996,-3.64802 43.91996,-12.57002 24.55199,-15.13801 50.53201,-29.87998 68.34,-53.04002 6.63001,-13.31399 20.55601,-23.26199 20.55601,-39.23402 0.11407,-21.50996 12.65399,-41.65191 7.866,-63.39591 z M 762.27654,341.48661 c -17.78998,-4.326 -34.36198,-12.83401 -49.28398,-23.22603 -16.05599,-10.69798 -22.04401,-30.65998 -37.88399,-41.60397 -14.83202,-17.70601 -11.62201,-41.89199 -17.7,-62.85595 2.43598,-14.62801 5.30997,-29.13602 6.82797,-43.95005 7.23602,-11.73597 18.402,-21.09597 21.49801,-35.21995 10.602,-15.19202 26.74798,-25.70401 39.714,-38.874008 9.432,-10.878002 24.444,-6.294016 36.83399,-6.714008 -1.23001,11.999996 -2.20798,24.408006 0.79802,36.245996 1.46402,7.27202 4.74599,14.43601 3.61796,22.05599 -2.48399,16.19402 3.59401,32.43601 -0.702,48.44403 -8.65797,33.46798 0.78601,67.25394 1.60801,100.99196 -1.22999,14.94601 -1.92601,29.99998 -5.32799,44.70599 z m 134.86199,-63.42003 c -11.78401,8.376 -21.822,18.66599 -32.10602,28.70998 -17.87399,12.36004 -35.53796,25.44002 -56.81399,31.62004 1.92001,-15.17397 3.79205,-30.78599 -1.04395,-45.64199 -11.86802,-33.564 2.67598,-68.66999 5.12998,-102.61198 -2.16602,-20.17799 -0.0959,-41.706 -9.34799,-60.29399 -1.212,-13.96201 4.82396,-27.444 8.91599,-40.584006 14.05198,5.609997 27.282,13.182006 38.976,22.919996 14.12397,10.58402 35.75997,17.44802 38.92198,37.188 1.61401,12.96602 15.80401,20.80803 15.38999,34.07401 -0.88796,31.536 3.46199,64.51797 -8.02199,94.61994 z"
       inkscape:connector-curvature="0"
       id="path425"
       style="fill:#111212" />
  </g>
</svg>
