<?xml version="1.0" encoding="UTF-8" standalone="no"?>
<!-- Created with Inkscape (http://www.inkscape.org/) -->

<svg
   xmlns:dc="http://purl.org/dc/elements/1.1/"
   xmlns:cc="http://creativecommons.org/ns#"
   xmlns:rdf="http://www.w3.org/1999/02/22-rdf-syntax-ns#"
   xmlns:svg="http://www.w3.org/2000/svg"
   xmlns="http://www.w3.org/2000/svg"
   xmlns:inkscape="http://www.inkscape.org/namespaces/inkscape"
   version="1.1"
   width="600"
   height="600"
   id="svg5216">
  <defs
     id="defs5218" />
  <metadata
     id="metadata5221">
    <rdf:RDF>
      <cc:Work
         rdf:about="">
        <dc:format>image/svg+xml</dc:format>
        <dc:type
           rdf:resource="http://purl.org/dc/dcmitype/StillImage" />
        <dc:title />
      </cc:Work>
    </rdf:RDF>
  </metadata>
  <g
     transform="translate(-670.57696,-47.4995)"
     id="layer1">
    <g
       transform="matrix(6,0,0,6,670.57696,-1212.5005)"
       id="g317">
      <path
         d="M 100,259.998 C 100,287.613 77.615,310 49.998,310 22.385,310 0,287.613 0,259.998 0,232.385 22.385,210 49.998,210 77.615,210 100,232.385 100,259.998 z"
         inkscape:connector-curvature="0"
         id="path319"
         style="fill:#a3c095" />
    </g>
    <path
       d="m 1135.9551,347.0495 c 0.3482,-32.06402 -9.846,-64.43404 -29.802,-89.56803 -9.654,-10.62598 -17.586,-22.72199 -27.804,-32.76598 -22.524,-22.35602 -56.25,-23.84403 -83.38202,-37.926 -1.57197,-14.14203 -6.74997,-28.29002 -3.61799,-42.55803 0.95398,-4.74599 2.35201,-9.55797 -0.16808,-14.09398 -7.12199,-16.39202 -1.00803,-34.188002 -2.27401,-51.281986 -0.94801,-8.928001 -0.34206,-19.854011 -8.84399,-25.368026 -1.98003,18.582023 -8.81401,35.87401 -14.35201,53.508022 -2.55602,13.73998 -2.55602,28.05599 -8.47798,41.01597 3.75597,13.12803 -3.68402,24.18001 -11.73604,33.876 -17.79595,9.12 -38.97596,11.28602 -54.46197,24.66002 -11.04601,9.37199 -22.96797,17.58601 -35.32801,25.212 -9.26999,11.60399 -19.53601,22.78198 -23.664,37.44001 -16.57197,20.01001 -18.52798,46.86598 -27.92398,70.30202 -0.17378,34.79398 6.87598,72.25795 29.09998,100.14597 15.9,13.12799 27.012,30.78599 42.88798,43.91999 15.24003,9.09604 31.50604,16.572 47.24403,24.76204 10.26001,2.38801 20.85,3.56398 31.05599,6.35397 8.27998,42.654 13.93198,86.346 30.54602,126.79802 5.51999,-16.60803 4.85398,-34.40402 9.61199,-51.186 6.70799,-24.81606 -7.056,-50.64601 0.70203,-75.00601 11.62796,-10.39802 31.01996,-3.64802 43.91996,-12.57001 24.552,-15.13801 50.532,-29.87999 68.34,-53.04002 6.624,-13.31399 20.556,-23.262 20.556,-39.23402 0.114,-21.50996 12.648,-41.65195 7.872,-63.39594 z m -182.25,131.57998 c -17.79001,-4.326 -34.36198,-12.83401 -49.28401,-23.22603 -16.056,-10.69798 -22.04402,-30.65998 -37.88399,-41.60398 -14.83202,-17.706 -11.62201,-41.89202 -17.70001,-62.85598 2.43602,-14.62801 5.31001,-29.13601 6.82801,-43.95005 7.23599,-11.73596 18.402,-21.09597 21.49798,-35.21995 10.60203,-15.19202 26.74801,-25.70401 39.71399,-38.874 9.43204,-10.87801 24.44404,-6.29402 36.83404,-6.71401 -1.22999,11.99999 -2.20799,24.408 0.79798,36.24599 1.46398,7.27202 4.74599,14.43601 3.61802,22.056 -2.48402,16.19401 3.59398,32.436 -0.70203,48.44402 -8.65797,33.46799 0.78601,67.25398 1.60804,100.99199 -1.23005,14.94602 -1.92601,29.99999 -5.32802,44.706 z m 134.862,-63.42003 c -11.784,8.37599 -21.828,18.66599 -32.106,28.70998 -17.874,12.36004 -35.544,25.44002 -56.81401,31.62004 1.91401,-15.17398 3.78601,-30.78599 -1.04997,-45.642 -11.86805,-33.564 2.67598,-68.67002 5.12398,-102.61201 -2.16,-20.17799 -0.096,-41.70599 -9.34199,-60.29399 -1.21804,-13.962 4.81796,-27.444 8.90999,-40.584 14.052,5.60999 27.282,13.182 38.976,22.92 14.124,10.58401 35.76,17.44802 38.922,37.188 1.614,12.96602 15.798,20.80802 15.384,34.074 -0.87,31.536 3.48,64.518 -8.004,94.61998 z"
       inkscape:connector-curvature="0"
       id="path427"
       style="fill:#111212" />
  </g>
</svg>
