<?xml version="1.0" encoding="UTF-8" standalone="no"?>
<!-- Created with Inkscape (http://www.inkscape.org/) -->

<svg
   xmlns:dc="http://purl.org/dc/elements/1.1/"
   xmlns:cc="http://creativecommons.org/ns#"
   xmlns:rdf="http://www.w3.org/1999/02/22-rdf-syntax-ns#"
   xmlns:svg="http://www.w3.org/2000/svg"
   xmlns="http://www.w3.org/2000/svg"
   xmlns:inkscape="http://www.inkscape.org/namespaces/inkscape"
   version="1.1"
   width="600"
   height="600"
   id="svg5152">
  <defs
     id="defs5154" />
  <metadata
     id="metadata5157">
    <rdf:RDF>
      <cc:Work
         rdf:about="">
        <dc:format>image/svg+xml</dc:format>
        <dc:type
           rdf:resource="http://purl.org/dc/dcmitype/StillImage" />
        <dc:title />
      </cc:Work>
    </rdf:RDF>
  </metadata>
  <g
     transform="translate(-827.7198,112.50048)"
     id="layer1">
    <g
       transform="matrix(6,0,0,6,6497.7198,1147.4995)"
       id="g3">
      <circle
         cx="-895"
         cy="-160"
         r="50"
         id="circle5"
         style="fill:#cac5c0" />
    </g>
    <path
       d="m 1293.0919,187.06161 c 0.3482,-32.06402 -9.8399,-64.43404 -29.802,-89.568028 -9.6479,-10.625987 -17.5799,-22.721997 -27.798,-32.765986 -22.524,-22.356017 -56.25,-23.844022 -83.382,-37.925997 -1.578,-14.142027 -6.75,-28.2900247 -3.618,-42.558025 0.954,-4.745992 2.352,-9.557973 -0.1738,-14.093986 -7.116,-16.392017 -1.002,-34.188001 -2.268,-51.281985 -0.948,-8.928001 -0.3417,-19.854013 -8.844,-25.368023 -1.98,18.582021 -8.814,35.874007 -14.352,53.508019 -2.556,13.739983 -2.556,28.055991 -8.4779,41.015974 3.7559,13.1280256 -3.6841,24.180009 -11.7361,33.876001 -17.796,9.119998 -38.976,11.286017 -54.462,24.66002 -11.046,9.371981 -22.968,17.586005 -35.328,25.211992 -9.27,11.60399 -19.53594,22.781981 -23.66393,37.440014 -16.57204,20.01001 -18.52805,46.86598 -27.92405,70.30202 -0.17378,34.79398 6.87598,72.25792 29.10002,100.14593 15.89996,13.128 27.01196,30.786 42.88796,43.91999 15.24,9.09605 31.5061,16.57201 47.244,24.76204 10.26,2.38801 20.85,3.56399 31.056,6.35397 8.28,42.65401 13.932,86.346 30.552,126.79803 5.514,-16.60804 4.848,-34.40402 9.606,-51.18601 6.708,-24.81605 -7.056,-50.646 0.702,-75.006 11.628,-10.39803 31.02,-3.64802 43.9201,-12.57002 24.552,-15.13801 50.5319,-29.87998 68.3399,-53.04002 6.63,-13.31398 20.556,-23.26199 20.556,-39.23401 0.1141,-21.50996 12.6541,-41.65192 7.866,-63.39591 z m -182.244,131.57994 c -17.79,-4.326 -34.362,-12.834 -49.284,-23.22602 -16.056,-10.69798 -22.044,-30.65999 -37.884,-41.60398 -14.832,-17.70601 -11.622,-41.89199 -17.7,-62.85595 2.436,-14.62801 5.31,-29.13601 6.828,-43.95005 7.236,-11.73597 18.402,-21.09597 21.498,-35.21995 10.602,-15.192021 26.748,-25.70401 39.714,-38.874005 9.432,-10.878002 24.444,-6.294016 36.834,-6.714008 -1.23,11.999994 -2.208,24.408005 0.7981,36.245993 1.4639,7.27202 4.7459,14.43601 3.6179,22.05599 -2.484,16.19402 3.594,32.43601 -0.702,48.44403 -8.658,33.46799 0.786,67.25394 1.608,100.99196 -1.23,14.94601 -1.926,29.99999 -5.328,44.70599 z M 1245.71,255.22152 c -11.7841,8.376 -21.8221,18.666 -32.1061,28.70999 -17.874,12.36003 -35.538,25.44002 -56.814,31.62004 1.92,-15.17398 3.792,-30.786 -1.044,-45.642 -11.868,-33.564 2.676,-68.66999 5.13,-102.61198 -2.166,-20.17799 -0.096,-41.70599 -9.348,-60.29399 -1.212,-13.962005 4.824,-27.444001 8.916,-40.584004 14.0521,5.609998 27.282,13.182006 38.976,22.92 14.124,10.584017 35.76,17.448024 38.922,37.188004 1.614,12.96602 15.804,20.80802 15.39,34.074 -0.888,31.536 3.462,64.51797 -8.0219,94.61994 z"
       inkscape:connector-curvature="0"
       id="path423"
       style="fill:#111212" />
  </g>
</svg>
