<?xml version="1.0" encoding="UTF-8" standalone="no"?>
<!-- Created with Inkscape (http://www.inkscape.org/) -->

<svg
   xmlns:dc="http://purl.org/dc/elements/1.1/"
   xmlns:cc="http://creativecommons.org/ns#"
   xmlns:rdf="http://www.w3.org/1999/02/22-rdf-syntax-ns#"
   xmlns:svg="http://www.w3.org/2000/svg"
   xmlns="http://www.w3.org/2000/svg"
   xmlns:sodipodi="http://sodipodi.sourceforge.net/DTD/sodipodi-0.dtd"
   xmlns:inkscape="http://www.inkscape.org/namespaces/inkscape"
   width="599.99994"
   height="712.71405"
   id="svg3815"
   version="1.1"
   inkscape:version="0.48.4 r9939"
   sodipodi:docname="drawing-1.svg">
  <defs
     id="defs3817" />
  <sodipodi:namedview
     id="base"
     pagecolor="#ffffff"
     bordercolor="#666666"
     borderopacity="1.0"
     inkscape:pageopacity="0.0"
     inkscape:pageshadow="2"
     inkscape:zoom="0.24748737"
     inkscape:cx="-256.35278"
     inkscape:cy="506.66455"
     inkscape:document-units="px"
     inkscape:current-layer="layer1"
     showgrid="false"
     fit-margin-top="0"
     fit-margin-left="0"
     fit-margin-right="0"
     fit-margin-bottom="0"
     inkscape:window-width="1440"
     inkscape:window-height="881"
     inkscape:window-x="-8"
     inkscape:window-y="-8"
     inkscape:window-maximized="1" />
  <metadata
     id="metadata3820">
    <rdf:RDF>
      <cc:Work
         rdf:about="">
        <dc:format>image/svg+xml</dc:format>
        <dc:type
           rdf:resource="http://purl.org/dc/dcmitype/StillImage" />
        <dc:title />
      </cc:Work>
    </rdf:RDF>
  </metadata>
  <g
     inkscape:label="Layer 1"
     inkscape:groupmode="layer"
     id="layer1"
     transform="translate(-573.57384,-550.60793)">
    <path
       style="font-size:medium;font-style:normal;font-variant:normal;font-weight:normal;font-stretch:normal;text-indent:0;text-align:start;text-decoration:none;line-height:normal;letter-spacing:normal;word-spacing:normal;text-transform:none;direction:ltr;block-progression:tb;writing-mode:lr-tb;text-anchor:start;baseline-shift:baseline;color:#000000;fill:#ffffff;fill-opacity:1;fill-rule:nonzero;stroke:none;stroke-width:50.79999923999999800;marker:none;visibility:visible;display:inline;overflow:visible;enable-background:accumulate;font-family:Sans;-inkscape-font-specification:Sans"
       d="m 875.00164,550.60793 c -105.4396,55.8946 -203.88209,148.68331 -301.4278,246.20059 5.81483,86.34939 57.04705,163.83683 103.55112,242.24688 -8.68675,13.8865 -21.55349,25.6829 -36.78066,36.2991 13.71946,64.2062 60.65782,97.1477 136.25249,103.1183 53.08234,49.991 74.8945,64.9095 98.40495,84.8492 33.06285,-27.9942 65.44581,-56.7737 98.09105,-85.257 85.26111,-3.8137 119.54591,-54.7821 135.75831,-101.0724 -10.1556,-8.051 -37.9776,-26.4508 -38.8282,-37.9372 49.2048,-71.56903 94.4845,-145.5913 103.5509,-242.24683 C 1082.3149,708.43415 993.05423,618.5347 875.00164,550.60798 z"
       id="path3765"
       inkscape:connector-curvature="0"
       sodipodi:nodetypes="cccccccccccc" />
    <path
       inkscape:connector-curvature="0"
       id="path3809"
       d="m 875.00164,581.45362 -0.78443,0.53344 -84.94335,57.14139 -0.2196,0.12552 0,0.28241 0,515.05702 0,0.2197 0.15684,0.1568 84.94335,74.1175 0.84719,0.7218 0.84728,-0.7218 84.94325,-74.1175 0.15695,-0.1568 0,-0.2197 0,-515.05702 0,-0.28241 -0.21971,-0.12552 -84.94325,-57.14139 -0.78452,-0.53344 z m -123.91613,80.70711 -0.84728,0.81586 -149.61568,142.86916 -0.18828,0.18828 0.0311,0.25103 c 16.17838,97.02394 57.16976,149.81508 82.02504,186.83133 12.42754,18.50811 20.777,33.04701 20.11397,47.13141 -0.66303,14.0845 -10.31083,27.9266 -34.23458,45.1232 l -0.37655,0.2825 0.25104,0.3765 c 26.44311,43.6266 55.99944,57.9886 82.24464,62.5073 l 0.59625,0.094 0,-0.5962 0,-484.71339 0,-1.16103 z m 244.9768,0 0,1.16103 0,484.71344 0,0.5961 0.59625,-0.094 c 26.24514,-4.5187 55.80134,-18.8806 82.24464,-62.5073 l 0.251,-0.3765 -0.3766,-0.2824 c -23.9237,-17.1967 -33.5716,-31.0387 -34.2345,-45.1232 -0.6631,-14.0845 7.6863,-28.6234 20.1139,-47.13147 24.8553,-37.01624 65.8466,-89.80738 82.0251,-186.83132 l 0.031,-0.25103 -0.1883,-0.18828 -149.61561,-142.86916 -0.84698,-0.81591 z"
       style="font-size:medium;font-style:normal;font-variant:normal;font-weight:normal;font-stretch:normal;text-indent:0;text-align:start;text-decoration:none;line-height:normal;letter-spacing:normal;word-spacing:normal;text-transform:none;direction:ltr;block-progression:tb;writing-mode:lr-tb;text-anchor:start;baseline-shift:baseline;color:#000000;fill:#000000;fill-opacity:1;stroke:none;stroke-width:50.79999923999999800;marker:none;visibility:visible;display:inline;overflow:visible;enable-background:accumulate;font-family:Sans;-inkscape-font-specification:Sans" />
  </g>
</svg>
