<?xml version="1.0" encoding="UTF-8" standalone="no"?>
<!-- Created with Inkscape (http://www.inkscape.org/) -->

<svg
   xmlns:dc="http://purl.org/dc/elements/1.1/"
   xmlns:cc="http://creativecommons.org/ns#"
   xmlns:rdf="http://www.w3.org/1999/02/22-rdf-syntax-ns#"
   xmlns:svg="http://www.w3.org/2000/svg"
   xmlns="http://www.w3.org/2000/svg"
   xmlns:inkscape="http://www.inkscape.org/namespaces/inkscape"
   version="1.1"
   width="600"
   height="625.39087"
   id="svg5946">
  <defs
     id="defs5948" />
  <metadata
     id="metadata5951">
    <rdf:RDF>
      <cc:Work
         rdf:about="">
        <dc:format>image/svg+xml</dc:format>
        <dc:type
           rdf:resource="http://purl.org/dc/dcmitype/StillImage" />
        <dc:title />
      </cc:Work>
    </rdf:RDF>
  </metadata>
  <path
     d="m 222.37336,56.67605 c 0,0 -16.05691,134.78737 -18.99625,159.77173 C 180.36273,227.07943 0,310.44403 0,310.44403 c 0,0 180.90994,90.50969 203.14259,101.62601 2.68918,24.29644 23.45216,213.32083 23.45216,213.32083 0,0 136.97623,-143.8868 154.26829,-162.02314 24.48405,5.00313 213.93058,43.85553 213.93058,43.85553 0,0 -91.60413,-171.85741 -103.14259,-193.48029 C 503.56473,292.18261 600,117.63602 600,117.63602 c 0,0 -192.57348,39.02439 -216.995,43.90244 C 365.71295,143.46467 229.15885,0 229.15885,0 l -6.78549,56.67605 z"
     inkscape:connector-curvature="0"
     id="path618"
     style="fill:#ffffff;fill-opacity:1;fill-rule:nonzero;stroke:none" />
  <path
     d="M 249.06191,59.91245 373.78049,190.85366 548.38962,155.50344 461.05378,313.49281 544.23077,469.41839 371.70106,434.05253 246.98249,565.05629 228.2364,394.54347 61.929331,311.41338 228.2364,234.52158 249.06191,59.91245 z"
     inkscape:connector-curvature="0"
     id="path620"
     style="fill:#000000;fill-opacity:1;fill-rule:nonzero;stroke:none" />
</svg>
