<?xml version="1.0" encoding="UTF-8" standalone="no"?>
<!-- Created with Inkscape (http://www.inkscape.org/) -->

<svg
   xmlns:dc="http://purl.org/dc/elements/1.1/"
   xmlns:cc="http://creativecommons.org/ns#"
   xmlns:rdf="http://www.w3.org/1999/02/22-rdf-syntax-ns#"
   xmlns:svg="http://www.w3.org/2000/svg"
   xmlns="http://www.w3.org/2000/svg"
   xmlns:inkscape="http://www.inkscape.org/namespaces/inkscape"
   version="1.1"
   width="600"
   height="1059.6681"
   id="svg3270">
  <defs
     id="defs3272" />
  <metadata
     id="metadata3275">
    <rdf:RDF>
      <cc:Work
         rdf:about="">
        <dc:format>image/svg+xml</dc:format>
        <dc:type
           rdf:resource="http://purl.org/dc/dcmitype/StillImage" />
        <dc:title />
      </cc:Work>
    </rdf:RDF>
  </metadata>
  <g
     transform="translate(-358.95194,511.10097)"
     id="layer1">
    <path
       d="m 956.98403,17.949271 c 0.63785,-57.784754 -17.72255,-116.110626 -53.70841,-161.417201 -17.3766,-19.13913 -31.69307,-40.94903 -50.09695,-59.05012 -40.60296,-40.27859 -101.37232,-42.96024 -150.25814,-68.33849 -2.85468,-25.4863 -12.16469,-50.9836 -6.53114,-76.70774 1.71931,-8.55323 4.24956,-17.21445 -0.31318,-25.38908 -12.83514,-29.54129 -1.795,-61.62361 -4.07659,-92.41921 -1.70842,-16.08982 -0.62685,-35.78035 -15.96001,-45.7284 -3.5683,33.49883 -15.88445,64.66203 -25.8649,96.43086 -4.60634,24.77268 -4.60634,50.56182 -15.27882,73.91805 6.77976,23.66977 -6.62842,43.58733 -21.13951,61.05051 -32.09314,16.43578 -70.2416,20.33926 -98.16087,44.43074 -19.89609,16.9009 -41.39238,31.70396 -63.65652,45.44727 -16.70615,20.91255 -35.20731,41.05725 -42.65751,67.4733 -29.8656,36.051159 -33.39067,84.460968 -50.32391,126.6965899 -0.31319,62.7049981 12.39178,130.2220201 52.44334,180.4807001 28.65459,23.65925 48.68037,55.48182 77.30249,79.13019 27.47598,16.41432 56.79018,29.88725 85.15281,44.62561 18.47951,4.32471 37.57535,6.44445 55.96841,11.47231 14.91116,76.8702 25.10788,155.58927 55.06006,228.51202 9.92634,-29.93017 8.72615,-62.02361 17.30084,-92.26757 12.09982,-44.71207 -12.71615,-91.25124 1.26513,-135.16282 20.95572,-18.72873 55.90348,-6.56355 79.15154,-22.64292 44.24707,-27.28141 91.06756,-53.8488 123.17158,-95.58744 11.94837,-23.9942 37.04548,-41.92183 37.04548,-70.70629 0.20557,-38.743442 22.80471,-75.053368 14.16514,-114.250869 z M 628.55913,255.10104 C 596.4984,247.30532 566.6328,231.97203 539.7515,213.2439 510.81578,193.96438 500.02437,158.00029 471.47789,138.26611 444.73723,106.37823 450.52217,62.790724 439.56855,24.999525 c 4.39013,-26.3733065 9.56957,-52.519283 12.31615,-79.216655 13.0297,-21.139275 33.15276,-37.996763 38.73232,-63.46196 19.12831,-27.38916 48.21537,-46.33361 71.5716,-70.06825 16.99811,-19.60407 44.05238,-11.32128 66.38133,-12.09989 -2.20583,21.6261 -3.95754,44.00916 1.44893,65.32153 2.63842,13.11622 8.55317,26.03776 6.53114,39.748902 -4.47665,29.184702 6.46621,58.477022 -1.26519,87.3261704 -15.60318,60.2938486 1.41652,121.2037876 2.89798,182.0054976 -2.22753,26.90294 -3.49266,54.04348 -9.62368,80.54617 z M 871.60419,140.80725 c -21.22603,15.11684 -39.32713,33.6394 -57.84987,51.74055 -32.21206,22.2856 -64.05652,45.84751 -102.38878,56.98487 3.44931,-27.34672 6.82299,-55.48183 -1.88146,-82.25478 -21.39907,-60.48853 4.80096,-123.755805 9.23432,-184.925116 -3.90355,-36.36434 -0.1838,-75.161595 -16.86837,-108.660124 -2.17342,-25.15141 8.71526,-49.45916 16.06824,-73.13975 25.32408,10.12102 49.16689,23.75623 70.24153,41.30587 25.45395,19.09554 64.45665,31.44452 70.15508,67.030129 2.89797,23.356347 28.47079,37.488898 27.72471,61.396641 -1.57874,56.833112 6.26076,116.261776 -14.4354,170.52171 z"
       inkscape:connector-curvature="0"
       id="path433"
       style="fill:#111212" />
  </g>
</svg>
