<?xml version="1.0" encoding="UTF-8" standalone="no"?>
<!-- Created with Inkscape (http://www.inkscape.org/) -->

<svg
   xmlns:dc="http://purl.org/dc/elements/1.1/"
   xmlns:cc="http://creativecommons.org/ns#"
   xmlns:rdf="http://www.w3.org/1999/02/22-rdf-syntax-ns#"
   xmlns:svg="http://www.w3.org/2000/svg"
   xmlns="http://www.w3.org/2000/svg"
   xmlns:inkscape="http://www.inkscape.org/namespaces/inkscape"
   version="1.1"
   width="600"
   height="600"
   id="svg5248">
  <defs
     id="defs5250" />
  <metadata
     id="metadata5253">
    <rdf:RDF>
      <cc:Work
         rdf:about="">
        <dc:format>image/svg+xml</dc:format>
        <dc:type
           rdf:resource="http://purl.org/dc/dcmitype/StillImage" />
        <dc:title />
      </cc:Work>
    </rdf:RDF>
  </metadata>
  <g
     transform="translate(-1002.0055,349.64338)"
     id="layer1">
    <circle
       cx="-895"
       cy="364.99799"
       r="50"
       transform="matrix(6,0,0,6,6672.0055,-2239.6313)"
       id="circle339"
       style="fill:#cac5c0" />
    <path
       d="m 1513.9976,3.8767166 h -216.0242 l 79.1102,-56.2980076 c -29.3884,-23.321976 -63.3958,-34.968002 -101.9043,-34.968002 -19.2659,0 -32.4839,3.678012 -39.5398,11.015987 -7.1039,7.362029 -10.662,20.670008 -10.662,39.924039 0,53.237958 27.3781,110.039997 82.1459,170.375987 l -62.346,63.12602 c -72.54,-88.23002 -108.774,-167.064028 -108.774,-236.544008 0,-41.568012 12.5159,-74.681992 37.6202,-99.269982 25.0798,-24.58806 58.4759,-36.88801 100.0081,-36.88801 50.7178,0 105.9834,19.28996 165.8459,57.81 l 46.3679,-79.09204 28.1521,200.8080166 z"
       inkscape:connector-curvature="0"
       id="path341"
       style="fill:#0d0f0f" />
  </g>
</svg>
