<?xml version="1.0" encoding="UTF-8" standalone="no"?>
<!-- Created with Inkscape (http://www.inkscape.org/) -->

<svg
   xmlns:dc="http://purl.org/dc/elements/1.1/"
   xmlns:cc="http://creativecommons.org/ns#"
   xmlns:rdf="http://www.w3.org/1999/02/22-rdf-syntax-ns#"
   xmlns:svg="http://www.w3.org/2000/svg"
   xmlns="http://www.w3.org/2000/svg"
   xmlns:inkscape="http://www.inkscape.org/namespaces/inkscape"
   version="1.1"
   width="600"
   height="451.99835"
   id="svg2"
   xml:space="preserve"><metadata
     id="metadata8"><rdf:RDF><cc:Work
         rdf:about=""><dc:format>image/svg+xml</dc:format><dc:type
           rdf:resource="http://purl.org/dc/dcmitype/StillImage" /><dc:title /></cc:Work></rdf:RDF></metadata><defs
     id="defs6"><clipPath
       id="clipPath22"><path
         d="M 0,226 300,226 300,0 0,0 0,226 z"
         inkscape:connector-curvature="0"
         id="path24" /></clipPath><clipPath
       id="clipPath74"><path
         d="M 0,226 300,226 300,0 0,0 0,226 z"
         inkscape:connector-curvature="0"
         id="path76" /></clipPath><clipPath
       id="clipPath82"><path
         d="m 80.1997,239 110.2513,0 0,-117.875 -110.2513,0 0,117.875 z"
         inkscape:connector-curvature="0"
         id="path84" /></clipPath><clipPath
       id="clipPath98"><path
         d="m 55.1538,239 110.2512,0 0,-117.875 -110.2512,0 0,117.875 z"
         inkscape:connector-curvature="0"
         id="path100" /></clipPath><clipPath
       id="clipPath114"><path
         d="m 47.3579,63.3887 122.6671,0 0,-122.667 -122.6671,0 0,122.667 z"
         inkscape:connector-curvature="0"
         id="path116" /></clipPath><clipPath
       id="clipPath130"><path
         d="m 25.3579,85.3892 166.6671,0 0,-166.6675 -166.6671,0 0,166.6675 z"
         inkscape:connector-curvature="0"
         id="path132" /></clipPath><clipPath
       id="clipPath146"><path
         d="m 10.4331,215.419 231.8169,0 0,-231.8145 -231.8169,0 0,231.8145 z"
         inkscape:connector-curvature="0"
         id="path148" /></clipPath><clipPath
       id="clipPath162"><path
         d="m 128.443,170.04 62.742,0 0,-66.464 -62.742,0 0,66.464 z"
         inkscape:connector-curvature="0"
         id="path164" /></clipPath><clipPath
       id="clipPath178"><path
         d="m 42.5,210.402 244.392,0 0,-399.64 -244.392,0 0,399.64 z"
         inkscape:connector-curvature="0"
         id="path180" /></clipPath><clipPath
       id="clipPath194"><path
         d="m -32.833,17.5693 383.333,0 0,-75.3339 -383.333,0 0,75.3339 z"
         inkscape:connector-curvature="0"
         id="path196" /></clipPath><clipPath
       id="clipPath208"><path
         d="m 43.75,181.5 165.181,0 0,-165.1797 -165.181,0 0,165.1797 z"
         inkscape:connector-curvature="0"
         id="path210" /></clipPath><clipPath
       id="clipPath224"><path
         d="m 73.5498,151.3 101.0012,0 0,-101.0012 -101.0012,0 0,101.0012 z"
         inkscape:connector-curvature="0"
         id="path226" /></clipPath><clipPath
       id="clipPath240"><path
         d="M 0,226 300,226 300,0 0,0 0,226 z"
         inkscape:connector-curvature="0"
         id="path242" /></clipPath></defs><g
     transform="matrix(1.9999927,0,0,-1.9999927,735.99791,451.99895)"
     id="g10"><path
       d="m -242.1323,170.3223 c 18.57,0 35.463,-7.159 48.095,-18.856 1.992,-2.067 3.612,-4.61 4.661,-7.543 1.814,-5.082 1.575,-10.357 -0.268,-14.791 -10.352,18.294 -29.972,30.649 -52.488,30.649 -33.294,0 -60.284,-26.993 -60.284,-60.294 0,-13.983 4.772,-26.844 12.759,-37.072 -3.21,-1.524 -6.301,-3.288 -9.251,-5.277 -8.821,11.815 -14.046,26.471 -14.046,42.349 0,39.121 31.708,70.835 70.822,70.835 m 1.031,55.678 c -70.084,0 -126.899,-56.825 -126.899,-126.923 0,-37.541 16.299,-73.638 42.2,-99.077 l 257.667,0 c 4.529,189.939 -106.721,226 -172.968,226"
       inkscape:connector-curvature="0"
       id="path246"
       style="fill:#ffffff;fill-opacity:1;fill-rule:nonzero;stroke:none" /><path
       d="m -241.1001,180.1294 c 12.854,0 25.009,-2.98 35.827,-8.272 0.576,3.375 0.892,6.848 0.892,10.402 0,10.655 -2.718,20.625 -7.439,29.168 -9.353,2.432 -19.166,3.729 -29.28,3.729 -64.098,0 -116.059,-51.97 -116.059,-116.079 0,-25.452 8.196,-48.986 22.083,-68.117 4.921,11.45 12.369,21.55 21.629,29.626 -5.937,11.321 -9.312,24.197 -9.312,37.868 0,45.107 36.56,81.675 81.659,81.675"
       inkscape:connector-curvature="0"
       id="path250"
       style="fill:#000000;fill-opacity:1;fill-rule:nonzero;stroke:none" /><path
       d="m -182.3066,203.4478 c 2.436,-6.556 3.787,-13.701 3.787,-21.188 0,-9.489 -2.161,-18.429 -5.966,-26.308 1.868,-2.488 3.431,-5.3 4.588,-8.395 5.988,-16.015 -1.058,-33.453 -15.737,-38.979 -3.887,22.912 -23.815,40.365 -47.83,40.365 -26.8,0 -48.527,-21.73 -48.527,-48.536 0,-18.432 10.272,-34.463 25.401,-42.684 -25.09,-3.05 -45.854,-21.833 -51.14,-46.882 l 238.748,0 c -1.175,106.67 -33.889,165.49 -103.324,192.607"
       inkscape:connector-curvature="0"
       id="path254"
       style="fill:#000000;fill-opacity:1;fill-rule:nonzero;stroke:none" /></g></svg>