<?xml version="1.0" encoding="UTF-8" standalone="no"?>
<!-- Created with Inkscape (http://www.inkscape.org/) -->

<svg
   xmlns:dc="http://purl.org/dc/elements/1.1/"
   xmlns:cc="http://creativecommons.org/ns#"
   xmlns:rdf="http://www.w3.org/1999/02/22-rdf-syntax-ns#"
   xmlns:svg="http://www.w3.org/2000/svg"
   xmlns="http://www.w3.org/2000/svg"
   xmlns:inkscape="http://www.inkscape.org/namespaces/inkscape"
   version="1.1"
   width="600"
   height="257.13525"
   id="svg5361">
  <defs
     id="defs5363" />
  <metadata
     id="metadata5366">
    <rdf:RDF>
      <cc:Work
         rdf:about="">
        <dc:format>image/svg+xml</dc:format>
        <dc:type
           rdf:resource="http://purl.org/dc/dcmitype/StillImage" />
        <dc:title />
      </cc:Work>
    </rdf:RDF>
  </metadata>
  <path
     d="m 87.319412,257.13526 c -1.846155,0 -3.738464,-0.31108 -5.50385,-1.08462 -6.761543,-2.79231 -10.269238,-10.23462 -8.250005,-17.21539 l 23.353862,-79.73083 -79.419287,18.34617 c -1.084616,0.17261 -2.157694,0.31107 -3.196156,0.31107 -5.9538501,0 -11.4115463,-3.64615 -13.47693237,-9.46154 C -1.6075735,161.44627 1.4962749,153.92319 7.9924333,150.66934 L 85.519411,112.54623 39.815533,72.65774 c -5.273081,-4.60385 -6.450005,-12.40385 -2.711541,-18.34616 2.711541,-4.28077 7.303852,-6.66924 12.126932,-6.66924 1.846155,0 3.738464,0.31108 5.584619,1.11923 L 105.88481,70.48851 100.16173,32.2731 c -1.038463,-6.94616 3.11539,-13.61539 9.83078,-15.73847 1.44231,-0.44954 2.88462,-0.66923 4.32693,-0.66923 5.27308,0 10.26923,2.96538 12.75,7.88077 L 144.96561,59.5385 173.13102,7.47693 C 175.70409,2.74616 180.61948,0 185.70795,0 c 1.71923,0 3.47308,0.31108 5.13462,0.94615 6.71539,2.56155 10.46539,9.77309 8.74616,16.71925 l -9.0577,37.09618 c 29.15771,-11.18078 78.96929,-26.19233 136.43086,-26.19233 118.18855,0 249.79634,63.95774 272.78097,186.24244 1.39615,7.2577 -3.02308,14.33078 -10.09616,16.36155 -1.2577,0.35816 -2.61924,0.58892 -3.96924,0.58892 -5.72308,0 -11.08847,-3.51923 -13.24616,-9.06923 C 570.04284,216.566 511.35818,73.0159 333.31959,73.0159 c -27.7154,0 -51.47311,4.09616 -70.67313,9.41539 l 5.95385,0.13846 c 7.16539,0.18462 13.10771,5.58462 13.88078,12.75001 0.76154,7.16539 -3.92308,13.75386 -10.90385,15.4154 l -69.5539,16.50001 40.11926,42.27695 c 4.86924,5.18077 5.22693,13.07309 0.9,18.65771 -2.79231,3.56538 -6.99231,5.45769 -11.27308,5.45769 -2.38846,0 -4.82308,-0.58892 -7.02693,-1.8 l -45.47311,-25.74233 10.90386,51.61158 c 1.48846,6.93462 -2.38847,13.88078 -9.01155,16.3154 -1.62692,0.63507 -3.33462,0.9 -4.96154,0.9 -5.08847,0 -9.9577,-2.7 -12.57693,-7.43078 L 138.01945,180.50828 99.804037,249.7391 c -2.619233,4.73077 -7.442313,7.39616 -12.484625,7.39616"
     inkscape:connector-curvature="0"
     id="path558"
     style="fill:#ffffff;fill-opacity:1;fill-rule:nonzero;stroke:none" />
  <path
     d="m 169.84255,79.3736 c 0,0 69.81928,-36.50772 157.1655,-36.50772 117.41547,0 238.07324,65.07697 258.71557,174.60012 0,0 -61.92697,-158.73473 -252.40403,-158.73473 -85.68467,0 -134.89625,36.50772 -134.89625,36.50772 l 69.81928,1.61539 -93.62314,22.17694 57.15004,60.31158 -73.01544,-41.25003 17.44617,82.53467 L 138.11176,150.80826 87.319412,242.88525 117.46944,139.71979 14.303976,163.4775 111.11174,115.88131 49.230924,61.88128 l 74.596206,31.77694 -9.50769,-63.50774 30.15002,60.3462 41.23849,-76.21159 -15.8654,65.08851 z"
     inkscape:connector-curvature="0"
     id="path560"
     style="fill:#000000;fill-opacity:1;fill-rule:nonzero;stroke:none" />
  <path
     d="m 87.319412,257.13526 c -1.846155,0 -3.738464,-0.31108 -5.50385,-1.08462 -6.761543,-2.79231 -10.269238,-10.23462 -8.250005,-17.21539 l 23.353862,-79.73083 -79.419287,18.34617 c -1.084616,0.17261 -2.157694,0.31107 -3.196156,0.31107 -5.9538501,0 -11.4115463,-3.64615 -13.47693237,-9.46154 C -1.6075735,161.44627 1.4962749,153.92319 7.9924333,150.66934 L 85.519411,112.54623 39.815533,72.65774 c -5.273081,-4.60385 -6.450005,-12.40385 -2.711541,-18.34616 2.711541,-4.28077 7.303852,-6.66924 12.126932,-6.66924 1.846155,0 3.738464,0.31108 5.584619,1.11923 L 105.88481,70.48851 100.16173,32.2731 c -1.038463,-6.94616 3.11539,-13.61539 9.83078,-15.73847 1.44231,-0.44954 2.88462,-0.66923 4.32693,-0.66923 5.27308,0 10.26923,2.96538 12.75,7.88077 L 144.96561,59.5385 173.13102,7.47693 C 175.70409,2.74616 180.61948,0 185.70795,0 c 1.71923,0 3.47308,0.31108 5.13462,0.94615 6.71539,2.56155 10.46539,9.77309 8.74616,16.71925 l -9.0577,37.09618 c 29.15771,-11.18078 78.96929,-26.19233 136.43086,-26.19233 118.18855,0 249.79634,63.95774 272.78097,186.24244 1.39615,7.2577 -3.02308,14.33078 -10.09616,16.36155 -1.2577,0.35816 -2.61924,0.58892 -3.96924,0.58892 -5.72308,0 -11.08847,-3.51923 -13.24616,-9.06923 C 570.04284,216.566 511.35818,73.0159 333.31959,73.0159 c -27.7154,0 -51.47311,4.09616 -70.67313,9.41539 l 5.95385,0.13846 c 7.16539,0.18462 13.10771,5.58462 13.88078,12.75001 0.76154,7.16539 -3.92308,13.75386 -10.90385,15.4154 l -69.5539,16.50001 40.11926,42.27695 c 4.86924,5.18077 5.22693,13.07309 0.9,18.65771 -2.79231,3.56538 -6.99231,5.45769 -11.27308,5.45769 -2.38846,0 -4.82308,-0.58892 -7.02693,-1.8 l -45.47311,-25.74233 10.90386,51.61158 c 1.48846,6.93462 -2.38847,13.88078 -9.01155,16.3154 -1.62692,0.63507 -3.33462,0.9 -4.96154,0.9 -5.08847,0 -9.9577,-2.7 -12.57693,-7.43078 L 138.01945,180.50828 99.804037,249.7391 c -2.619233,4.73077 -7.442313,7.39616 -12.484625,7.39616"
     inkscape:connector-curvature="0"
     id="path2984"
     style="fill:#ffffff;fill-opacity:1;fill-rule:nonzero;stroke:none" />
  <path
     d="m 169.84255,79.3736 c 0,0 69.81928,-36.50772 157.1655,-36.50772 117.41547,0 238.07324,65.07697 258.71557,174.60012 0,0 -61.92697,-158.73473 -252.40403,-158.73473 -85.68467,0 -134.89625,36.50772 -134.89625,36.50772 l 69.81928,1.61539 -93.62314,22.17694 57.15004,60.31158 -73.01544,-41.25003 17.44617,82.53467 L 138.11176,150.80826 87.319412,242.88525 117.46944,139.71979 14.303976,163.4775 111.11174,115.88131 49.230924,61.88128 l 74.596206,31.77694 -9.50769,-63.50774 30.15002,60.3462 41.23849,-76.21159 -15.8654,65.08851 z"
     inkscape:connector-curvature="0"
     id="path2986"
     style="fill:#000000;fill-opacity:1;fill-rule:nonzero;stroke:none" />
</svg>
