<?xml version="1.0" encoding="UTF-8" standalone="no"?>
<!-- Created with Inkscape (http://www.inkscape.org/) -->

<svg
   xmlns:dc="http://purl.org/dc/elements/1.1/"
   xmlns:cc="http://creativecommons.org/ns#"
   xmlns:rdf="http://www.w3.org/1999/02/22-rdf-syntax-ns#"
   xmlns:svg="http://www.w3.org/2000/svg"
   xmlns="http://www.w3.org/2000/svg"
   xmlns:inkscape="http://www.inkscape.org/namespaces/inkscape"
   version="1.1"
   width="600"
   height="600"
   id="svg3942">
  <defs
     id="defs3944" />
  <metadata
     id="metadata3947">
    <rdf:RDF>
      <cc:Work
         rdf:about="">
        <dc:format>image/svg+xml</dc:format>
        <dc:type
           rdf:resource="http://purl.org/dc/dcmitype/StillImage" />
        <dc:title />
      </cc:Work>
    </rdf:RDF>
  </metadata>
  <path
     d="m 299.9715,599.9994 c -91.10116,0 -177.92774,-42.17996 -234.71223,-113.48988 l -0.645538,0.40439 -0.989904,0.3456 c -5.219493,1.935 -10.663965,2.88 -16.228425,2.88 -14.63858,0 -28.242261,-6.73499 -37.256386,-18.56998 C 3.6296479,463.00454 0,452.17455 0,441.08956 0,430.31957 3.2846814,420.17958 9.839046,411.02959 12.238813,407.7596 14.998545,404.9396 18.163238,402.5996 6.0894093,369.67463 0,335.21967 0,299.9997 0,134.59487 134.58195,0 299.9709,0 c 165.38896,0 299.97091,134.59487 299.97091,299.9997 0,32.27997 -5.09951,63.92994 -15.11854,94.21491 0.88552,0.88559 1.75483,1.77 2.63975,2.7 l 0.64433,0.70559 0.58435,0.7056 3.68964,5.1 0.46435,0.64559 0.41996,0.64441 c 4.39458,7.60499 6.73435,16.16998 6.73435,24.71997 0,10.60499 -3.46466,20.56498 -10.01903,28.94997 -9.19411,11.77499 -23.38273,18.44998 -38.90622,18.44998 -2.80473,0 -5.62446,-0.18 -8.42919,-0.6456 C 486.10105,553.89005 396.10978,600 299.9691,600"
     inkscape:connector-curvature="0"
     id="path228"
     style="fill:#ffffff;fill-opacity:1;fill-rule:nonzero;stroke:none" />
  <path
     d="m 297.9715,532.21447 c -74.81274,0 -141.49627,-35.62497 -183.97215,-90.82491 6.50937,0 13.30371,0.3444 20.45801,1.22999 0.22558,0 0.52435,0 0.74993,0.06 l 0.41996,0 c 0.58434,0.06 1.22988,0 1.87482,-0.06 9.49408,-0.8256 16.39341,-8.50498 17.27832,-18.92997 0,-0.18 0,-0.4656 0,-0.6456 l 0.06,-1.05001 0,-0.46559 c 0,-10.49999 -6.14941,-19.04998 -15.29852,-21.38998 -0.58554,-0.11999 -1.22988,-0.24 -1.87482,-0.3 -1.33487,-0.108 -1.97981,-0.2844 -2.39976,-0.5244 -0.52435,-3.92999 -0.92991,-7.84499 -0.92991,-11.65498 0,-26.24998 11.47388,-58.70995 35.09659,-99.25491 0.74993,-1.23 0.74993,-0.8244 1.0499,-2.175 l 1.34987,-7.37999 c 0.06,-0.4644 0.11999,-0.70439 0.11999,-0.82439 0,-0.2856 -0.11999,-0.22561 -0.29997,-1.17001 l -0.23998,-1.28999 c -0.10799,-0.93 -0.40436,-1.875 -0.74993,-2.745 -1.0055,-2.355 -2.63974,-4.57499 -4.57455,-6.62999 5.15949,-0.93 9.61406,-3.33 12.88375,-7.2 0.29997,-0.36 0.58434,-0.7056 0.82432,-1.06559 0,0 0.40436,-0.64561 0.70553,-1.05 1.22988,-1.11 2.27978,-2.28 2.98471,-3.81 0,0 1.0499,-2.22 1.46986,-3.105 0.46435,-0.7656 1.69483,-2.7 1.69483,-2.7 0.11999,-0.2256 0.23998,-0.4056 0.34557,-0.64559 l 1.93481,-3.57 c 0.23998,-0.4044 0.53995,-1.11 0.70433,-1.575 0,0 0.17998,-0.42 0.23998,-0.52439 39.89613,20.03997 79.97224,156.61483 84.65179,209.05478 0,-0.4056 -0.048,-0.7656 -0.048,-1.10999 0,10.07998 5.32448,18.68997 13.52869,22.09497 3.50966,1.455 7.25929,1.695 11.12892,0.81 1.40986,-0.3444 2.75973,-0.93 3.98961,-1.695 l 3.38967,-2.235 c 2.0548,-1.335 4.33458,-3.44999 12.83876,-11.24999 l 34.49665,-31.75496 c -0.34556,0.35999 -0.58554,0.5256 -0.9899,0.8256 10.259,-7.38 12.3588,-17.05499 13.52869,-22.19998 0,-0.06 0.11998,-0.6456 0.11998,-0.6456 0.17999,-0.8244 0.29998,-1.71 0.29998,-2.64 0,-1.00559 -0.11999,-1.995 -0.41996,-2.94 l -0.06,-0.34559 c -0.10799,-0.5244 -0.34436,-1.29001 -0.52435,-1.81501 -5.32448,-13.48498 -11.3089,-28.00497 -19.33312,-43.06495 -3.56966,-7.21499 -5.44447,-14.17498 -5.44447,-21.08997 0,-8.145 2.39976,-15.945 5.1595,-24.91499 2.92471,-9.53998 6.20939,-20.32498 7.1993,-33.20996 0.06,-0.3 0.06,-0.6456 0.06,-1.0056 0,-0.99 -0.11999,-2.1 -0.28557,-2.985 l 0,0 c -0.11999,-0.70559 -0.41996,-1.35 -0.58434,-1.995 0.28557,0.12 0.58434,0.30001 0.92991,0.42 2.17478,0.63 8.26419,2.16 13.64867,0.63 1.10989,-0.2856 2.1148,-0.86999 3.1047,-1.335 -0.06,0.06 -0.06,0.06 -0.11999,0.108 0.06,-0.048 0.17998,-0.108 0.23998,-0.16559 1.28987,-0.58441 2.51975,-1.17 3.68964,-2.055 1.0499,0.7056 2.23478,1.815 3.50966,4.09499 18.5232,29.77497 33.74673,63.92994 45.4156,101.7899 1.93481,9.43499 2.80472,15.92998 2.80472,20.84998 0,6.32999 -1.39486,8.26499 -2.0398,9.02999 -0.88551,0.7644 -3.0447,2.6844 -3.0447,2.6844 -6.10441,5.39999 -12.31381,10.90499 -17.35332,13.82999 l -0.58434,0.3 c -2.80473,1.69499 -4.91953,4.51499 -5.74445,7.67998 l -0.10799,0.5244 c -0.53994,1.99501 -1.28987,5.04 -1.28987,8.54999 0,6.27 2.39977,10.425 4.39457,12.84 2.92472,3.50999 8.54917,7.60499 18.74818,6.85499 0,0 0.52435,-0.06 0.52435,-0.06 2.45976,-0.18 4.85953,-1.0656 6.79434,-2.64 l 0.40437,-0.36 c 5.50446,-4.33499 13.00373,-7.90498 22.79778,-10.76999 13.34871,-2.39999 25.18256,-3 36.1465,-2.87999 -42.23591,57.77994 -110.55428,95.4599 -187.48182,95.4599 M 114.63829,157.79925 c -0.58435,1.69499 -0.92991,3.33 -0.92991,4.85999 l 0,1.35 c 0,6.20999 4.55955,11.41499 10.66396,12.23999 l 1.34987,0.17999 c 19.37812,2.685 19.6181,8.84999 19.6181,14.82 -0.06,0.4044 -0.11999,1.58999 -0.17998,2.75999 -5.26449,20.03998 -10.88895,30.98997 -16.16844,39.71995 l -0.22557,0.40561 c -1.16989,1.935 -1.76983,4.11 -1.76983,6.39 l 0,0.42 c 0,4.67999 2.11479,8.78998 5.1595,12.17998 -5.2045,1.17 -9.55408,4.15499 -12.01384,8.72999 -0.22558,0.4056 -0.46435,0.8856 -0.58434,1.29 l -0.16559,0.4044 c -0.11998,0.3 -0.23997,0.5856 -0.35996,0.8856 -11.12892,34.85997 -23.907681,70.25993 -40.181103,111.20989 -0.05999,0.12 -0.119988,0.24 -0.179982,0.36 -8.324193,-23.84998 -12.898749,-49.39495 -12.898749,-76.00493 0,-53.54994 18.283227,-102.88489 48.865264,-142.19985 M 530.14238,299.9997 c 0,24.19498 -3.74963,47.51996 -10.60397,69.49494 -16.93336,-64.45494 -47.57538,-131.89487 -71.40807,-174.77983 -1.87482,-8.32499 -2.45976,-17.35499 -2.99971,-26.08497 0,-0.12001 -0.52555,-8.265 -0.58554,-9.435 0.06,-0.98999 0.17998,-4.15499 0.17998,-4.15499 0,-0.18001 0,-0.4044 0,-0.6444 l 0,0 c 0,-8.72999 -2.69974,-15.23998 -8.08422,-19.39498 -6.02941,-4.635 -14.00864,-5.16 -23.6677,-1.575 -4.1096,1.455 -9.14911,0.75 -15.5235,-0.18 0.11999,0 0.22558,0 0.34557,0.06 -13.99364,-2.52001 -23.6677,-3.225 -33.92671,-3.93 -19.33312,-1.695 -19.33312,-1.695 -19.85807,-1.695 -10.01903,0 -17.21833,8.36999 -19.73809,16.16998 -0.17998,0.5856 -0.35996,1.17 -0.41996,1.815 l -0.52435,3.165 c -0.06,0.58439 -0.10799,1.28999 -0.10799,1.93499 l 0,0.18 c 0.048,6.27 2.98471,11.77499 7.96423,15.16498 l 8.20421,5.46 c 0,0 9.77905,6.675 13.76866,9.31499 4.03461,5.265 4.91952,8.95499 5.03951,11.99999 -0.94551,1.53 -1.93481,3.06 -1.93481,3.06 -5.80444,9.01499 -11.24891,17.45998 -17.5783,23.89497 -0.17998,0.12 -0.35996,0.3 -0.41996,0.42 l -2.0398,2.22 c -2.17479,2.27999 -5.68445,6.02999 -6.68935,12.47999 -0.10799,0.64439 -0.16558,1.34999 -0.16558,1.99499 0,1.23 0.28557,2.4 0.46555,3.63 -1.47046,-0.6456 -2.86532,-1.17 -4.33518,-1.47 -7.27429,-1.755 -14.23362,0.54 -18.62819,6.045 -0.88431,1.11 -1.70983,2.46 -2.17479,3.74999 l -0.17998,0.46561 c -0.64554,1.875 -1.22988,3.22499 -1.87482,4.63499 -2.68474,-4.695 -14.4586,-25.07998 -14.4586,-25.07998 -37.03141,-65.50493 -54.02476,-92.1749 -72.65295,-91.5299 -0.35997,0 -0.70433,0.06 -1.0499,0.06 -25.96248,3.04501 -44.99563,1.65 -73.29789,-1.05 -0.23998,-0.06 -0.46435,-0.06 -0.70553,-0.06 l -0.40436,-0.06 c -0.64434,0 -1.18429,0.06 -1.76983,0.11999 -2.45976,0.28561 -4.91952,1.23 -7.31929,2.52001 42.2509,-43.76997 101.48016,-71.12993 166.9788,-71.12993 128.01259,0 232.17748,104.17489 232.17748,232.19977 m 35.27658,116.06988 -0.17998,-0.1656 c -4.91952,-5.1 -10.13902,-9.31499 -15.17853,-13.06499 13.01874,-31.76997 20.15805,-66.44993 20.15805,-102.83989 0,-150.40485 -121.86318,-272.27973 -272.2536,-272.27973 -150.34541,0 -272.253588,121.87488 -272.253588,272.27973 0,40.48495 8.894138,78.92991 24.777597,113.44487 -4.33458,3.75 -9.194108,7.02 -14.878557,9.66 0.05999,0 -0.524349,0.23999 -0.524349,0.23999 -1.934812,0.87001 -3.464664,2.16 -4.754539,3.87001 l -0.345566,0.5256 c -2.819727,3.86999 -4.274586,8.48998 -4.274586,13.34998 0,5.03999 1.574848,9.91499 4.499564,13.66499 5.219494,6.89999 13.828658,9.41999 21.792886,6.49499 1.184285,-0.4656 2.639744,-1.23 3.644646,-1.995 l 0,0 c 4.679546,-3.62999 9.779052,-6.67499 15.16353,-9.19499 48.745272,73.64994 132.302162,122.21989 227.152962,122.21989 97.73052,0 183.37222,-51.55495 231.42756,-128.83488 3.50965,1.11001 7.01931,2.4 10.48398,3.975 0.52555,0.18 1.0499,0.42001 1.57485,0.5856 9.61406,2.82 19.27313,0.18 24.7326,-6.73499 2.68474,-3.45 4.03461,-7.5 4.03461,-11.83499 0,-3.69 -0.98991,-7.44 -2.98472,-10.84499 -0.46435,-0.87 -1.16988,-1.815 -1.81482,-2.51999"
     inkscape:connector-curvature="0"
     id="path230"
     style="fill:#000000;fill-opacity:1;fill-rule:nonzero;stroke:none" />
</svg>
