<?xml version="1.0" encoding="UTF-8" standalone="no"?>
<!-- Created with Inkscape (http://www.inkscape.org/) -->

<svg
   xmlns:dc="http://purl.org/dc/elements/1.1/"
   xmlns:cc="http://creativecommons.org/ns#"
   xmlns:rdf="http://www.w3.org/1999/02/22-rdf-syntax-ns#"
   xmlns:svg="http://www.w3.org/2000/svg"
   xmlns="http://www.w3.org/2000/svg"
   xmlns:inkscape="http://www.inkscape.org/namespaces/inkscape"
   version="1.1"
   width="600"
   height="474.91046"
   id="svg4302">
  <defs
     id="defs4304" />
  <metadata
     id="metadata4307">
    <rdf:RDF>
      <cc:Work
         rdf:about="">
        <dc:format>image/svg+xml</dc:format>
        <dc:type
           rdf:resource="http://purl.org/dc/dcmitype/StillImage" />
        <dc:title />
      </cc:Work>
    </rdf:RDF>
  </metadata>
  <path
     d="m 555.61017,64.74176 c 0,0 -26.07261,40.48616 -104.30231,81.20977 -86.50503,45.03343 -135.43273,39.51259 -151.75779,37.42298 -22.26145,-2.87321 -34.13422,0.28495 -39.22764,2.42205 -3.47873,1.4841 -32.009,14.60351 -38.96645,43.1694 -8.29906,34.13423 -11.0298,60.28994 -11.21977,61.69093 -0.92607,7.50359 -1.53158,14.33044 -1.85215,19.8869 0,0 -0.55754,24.58851 -21.94088,34.32418 C 98.828965,384.57053 51.242889,389.99639 50.554269,390.04388 L 0,394.62677 41.732798,423.47761 c 1.306005,0.92607 33.493093,22.6295 71.616572,9.17765 18.73523,-6.62501 26.89183,-3.7518 28.93394,-2.68325 0,0 16.64563,6.25696 27.46173,44.93845 0,0 4.4048,-41.69718 13.53496,-52.31144 5.10529,-7.27801 15.81453,-14.61538 30.75048,-20.96732 l 0.36758,-0.13012 0.37993,-0.18997 c 10.47179,-4.91533 24.01862,-8.90458 29.07643,-8.6315 26.76123,19.5782 107.50796,56.49065 159.30887,-8.76211 l 12.79885,-16.1351 -17.4886,-10.8992 c -3.24127,-2.04212 -8.85709,-6.07886 -14.50853,-11.31476 36.91245,-3.71618 93.26064,-27.46172 155.49771,-118.35967 l 17.29863,-25.22965 c 0,0 -5.47334,-0.60598 -9.64069,-1.06855 7.56296,-10.66175 52.82197,-77.49359 52.82197,-140.43116 0,0 1.43661,-31.3085 -10.06811,-60.47991 0,0 -9.78317,33.94426 -34.26482,64.74224"
     inkscape:connector-curvature="0"
     id="path300"
     style="fill:#ffffff;fill-opacity:1;fill-rule:nonzero;stroke:none" />
  <path
     d="m 239.21264,233.28765 c -8.1566,33.52871 -10.80423,59.31638 -10.80423,59.31638 -2.2677,17.66668 -2.2677,31.80716 -2.2677,31.80716 92.70262,-48.97519 236.94494,-163.93926 236.94494,-163.93926 -92.01399,49.7588 -146.04699,43.63244 -165.89826,41.09167 -19.56633,-2.50515 -28.05537,0.46351 -29.82441,1.15166 0,0 -23.14003,10.06811 -28.15034,30.57239 M 164.08173,430.1976 c -6.16197,-20.12436 -27.12929,-25.36025 -56.85871,-14.84097 -29.729429,10.48366 -55.101545,-6.99306 -55.101545,-6.99306 0,0 104.907825,-8.77398 292.046475,-131.15853 C 531.3066,154.76113 581.57593,58.16425 581.57593,58.16425 c 1.306,62.51015 -50.26933,133.33124 -50.26933,133.33124 -24.49353,0 -53.33249,16.59814 -53.33249,16.59814 14.84096,5.24776 46.32756,8.77398 46.32756,8.77398 -98.78148,144.27794 -176.60751,106.66499 -176.60751,106.66499 7.00494,27.97226 41.09167,48.97519 41.09167,48.97519 -47.26551,59.45885 -124.15359,13.0838 -135.51583,4.35731 -11.36224,-8.76211 -46.37505,7.88352 -46.37505,7.88352 -22.49891,9.51009 -33.20815,19.5782 -38.77648,27.50922 -4.82035,6.81497 -4.03674,17.93976 -4.03674,17.93976"
     inkscape:connector-curvature="0"
     id="path302"
     style="fill:#000000;fill-opacity:1;fill-rule:nonzero;stroke:none" />
</svg>
