<?xml version="1.0" encoding="UTF-8" standalone="no"?>
<!-- Created with Inkscape (http://www.inkscape.org/) -->

<svg
   xmlns:dc="http://purl.org/dc/elements/1.1/"
   xmlns:cc="http://creativecommons.org/ns#"
   xmlns:rdf="http://www.w3.org/1999/02/22-rdf-syntax-ns#"
   xmlns:svg="http://www.w3.org/2000/svg"
   xmlns="http://www.w3.org/2000/svg"
   xmlns:inkscape="http://www.inkscape.org/namespaces/inkscape"
   version="1.1"
   width="600"
   height="600"
   id="svg4122">
  <defs
     id="defs4124" />
  <metadata
     id="metadata4127">
    <rdf:RDF>
      <cc:Work
         rdf:about="">
        <dc:format>image/svg+xml</dc:format>
        <dc:type
           rdf:resource="http://purl.org/dc/dcmitype/StillImage" />
        <dc:title />
      </cc:Work>
    </rdf:RDF>
  </metadata>
  <path
     d="m 227.85853,108.98907 c 25.43441,7.84497 45.56878,42.35988 80.30385,105.52468 l 1.31406,2.33999 c 2.39451,-1.04999 4.78903,-1.81499 7.30035,-2.33999 2.39451,-4.85998 5.12484,-8.66997 7.06674,-10.72497 l 2.56972,-2.92498 c 3.59177,-3.80999 7.12514,-8.72998 10.54171,-14.00997 l -6.2053,-4.33498 -8.337,-5.68499 c -10.95053,-7.61997 -17.27263,-19.79993 -17.50624,-33.62989 l 0.35042,-4.85999 0.56884,-4.27498 0.96365,-4.22999 c 4.2196,-13.70996 14.6007,-26.89492 29.59561,-31.28991 -11.97257,-2.28 -24.17875,-3.44999 -36.38494,-3.44999 -24.86499,0 -49.27736,4.73999 -72.14206,13.88996 m 145.8902,187.13944 c -1.43087,6.26998 -2.96395,11.77496 -4.39481,16.46995 -2.45292,8.38497 -4.33641,14.65495 -4.33641,19.91994 0,3.80999 1.09447,7.96497 3.25595,12.29996 8.55601,16.58996 14.99492,32.57991 20.7038,47.45986 0.29201,0.7656 1.31406,4.22999 1.43086,4.63499 l 0.1612,0.7656 0.0584,0.70559 0.62841,5.84999 0.11681,1.12439 -0.11681,1.11 -0.27799,2.74499 c 1.98569,-1.87499 4.1612,-3.56999 6.55571,-4.97999 2.90554,-1.69499 7.98658,-6.26997 12.542,-10.36496 -0.16119,-2.28 -0.73003,-6.91498 -2.27771,-14.65496 -8.83342,-29.41491 -20.35337,-57.47983 -34.04883,-83.08475 m -206.5123,156.56953 c 36.66236,33.7499 83.4284,52.19984 132.76416,52.19984 35.24609,0 69.19272,-9.43497 99.35777,-27.47991 -4.73063,-2.74499 -8.3224,-6.20998 -10.89212,-9.37498 -2.0003,-2.51999 -3.47497,-5.20498 -4.33641,-8.14497 l -3.70858,-11.12997 c -0.80362,-2.39999 -1.19726,-5.09998 -1.19726,-7.96497 0,-0.5256 0,-1.0056 0,-1.53 -2.39451,3.10499 -5.35845,6.14998 -8.95023,8.96997 l -34.45765,32.57991 -12.87782,11.59496 c -0.58402,0.5856 -1.54767,1.41 -2.56972,2.115 l -3.70858,2.51999 -1.19725,0.7056 -0.35042,-0.3 -12.20619,4.27498 -2.2193,0.8256 -2.45292,-0.3 c -14.87811,-1.81499 -14.87811,-1.81499 -16.30898,-2.39999 -15.79796,-6.73498 -26.57328,-23.36993 -26.86529,-41.47488 -4.27801,-46.76986 -34.50145,-147.89956 -61.48355,-187.27443 -0.78844,0.88559 -1.53307,1.64999 -2.33611,2.35499 0.29201,2.68499 0.39363,6.08998 -0.0584,8.72997 l -1.19726,6.73498 -0.23361,1.05 -0.39364,1.0056 c 0,0.048 -1.76668,4.43999 -2.1025,5.56498 l -0.35041,0.92999 -0.57002,1.05 c -21.44842,37.73989 -32.28214,67.5598 -33.08518,90.94473 12.89242,7.78498 20.9374,22.55993 20.9374,39.37488 0,0.4656 -0.17521,3.40499 -0.23361,3.74999 -0.56884,7.15498 -2.90554,14.11496 -6.71632,20.09994 M 300.00058,600 c -90.68494,0 -176.74147,-43.94987 -231.946717,-118.00465 -1.211858,0.8256 -2.409116,1.635 -3.54797,2.58 l -0.686817,0.52439 -0.730035,0.4056 -6.511912,3.68999 -0.685649,0.42 -0.730035,0.2244 c -4.511617,1.71 -9.242243,2.63999 -14.031273,2.63999 -12.71721,0 -24.470773,-6.02998 -32.223745,-16.63495 C 3.1975533,468.16479 0,458.44482 0,448.52985 0,438.92988 2.92014,429.67491 8.3954025,421.81493 l 0.7884378,-1.16999 1.0944687,-0.93 9.79707,-8.20497 1.037233,-0.88561 1.25566,-0.58559 c 1.708282,-0.8256 3.358161,-1.695 4.949638,-2.76 C 14.498495,372.94388 7.9865829,336.97398 7.9865829,299.9991 7.9865829,134.5946 138.99866,0 300.00058,0 461.0171,0 592.01459,134.5946 592.01459,299.9991 c 0,32.7599 -5.18325,64.91981 -15.22854,95.68471 3.88379,3.22499 7.86978,6.73498 11.63676,10.84497 l 0.62725,0.74999 0.56884,0.82561 c 5.76728,9.08997 6.90613,10.96496 7.12514,12.94496 l 2.29231,8.38497 c 0.62725,2.17499 0.96365,4.51498 0.96365,6.91498 0,2.75999 -0.45204,5.56498 -1.47467,8.26497 l -5.02264,13.64996 -0.57001,1.515 -1.70828,2.23499 c -7.98659,10.42497 -20.30958,16.46995 -33.71302,16.46995 -4.57002,0 -9.18384,-0.70559 -13.73926,-2.05499 l -3.54797,-1.35 c -0.90524,-0.3456 -1.70828,-0.76559 -2.51132,-1.10999 -54.91323,79.09476 -143.20367,126.02962 -237.714,126.02962"
     inkscape:connector-curvature="0"
     id="path264"
     style="fill:#ffffff;fill-opacity:1;fill-rule:nonzero;stroke:none" />
  <path
     d="m 571.3692,424.45312 c -6.94994,-7.49997 -14.36709,-12.94495 -21.49224,-18.22494 -11.30094,-8.36998 -20.9958,-15.52495 -25.157,-28.24492 -16.82001,-68.48979 -49.27736,-141.73457 -74.14236,-187.72444 -2.0587,-9.14997 -2.68653,-18.86994 -3.19755,-28.30491 -0.0584,-0.24 -0.62841,-9.25497 -0.68682,-10.19997 0.0584,-0.87 0.29202,-4.61998 0.29202,-4.67998 0,-8.50498 -2.39452,-14.35496 -7.02294,-17.98495 -7.81137,-6.16498 -17.68145,-2.415 -20.8644,-1.18439 -5.08104,1.87498 -10.90672,1.00559 -17.68145,0 0.27683,0 -34.04883,-4.03499 -34.04883,-4.03499 0.0467,0 -20.25117,-1.755 -20.25117,-1.755 -8.49761,0 -14.71751,7.49997 -16.83461,14.51995 -0.16119,0.48 -0.278,0.9456 -0.3364,1.41 l -0.51044,3.34499 c -0.1168,0.5244 -0.1168,1.05 -0.1168,1.575 0.0584,5.39998 2.45291,10.13997 6.67252,13.06496 l 8.3808,5.74499 c -0.0584,-0.06 11.30094,7.91997 14.54229,10.13996 4.33641,5.62498 6.33671,10.48497 6.33671,16.04996 l 0,0.23999 c -1.02205,1.53 -2.62813,4.15499 -2.62813,4.15499 -6.04469,9.61497 -11.68056,18.64494 -18.46988,25.66492 -0.29202,0.36 -2.45292,2.81999 -2.45292,2.81999 -1.88349,1.995 -5.02264,5.32499 -5.94249,11.24997 -0.10512,0.4656 -0.16119,0.98999 -0.16119,1.455 0,5.51998 2.78874,10.66496 6.94994,15.76495 -4.67223,-4.91999 -10.08909,-8.78998 -15.11173,-10.01997 -6.16149,-1.45499 -12.03098,0.4656 -15.68115,5.21999 -0.62725,0.82439 -1.37247,2.15999 -1.70828,3.10498 -1.9419,5.62498 -3.65018,9.01497 -4.90584,11.24997 -0.1168,-0.06 -0.29201,-0.06 -0.40882,-0.12 -3.75238,-6.79498 -17.78365,-31.8149 -17.78365,-31.8149 -36.38494,-66.2098 -54.1832,-95.21972 -71.35362,-94.63472 -27.66833,3.28499 -47.39387,1.81499 -76.65368,-1.05 -0.62841,-0.06 -1.59147,-0.06 -2.2193,0 -10.26429,1.17 -22.13466,15.58496 -22.13466,24.08994 l 0,1.45498 c 0,4.69499 3.35816,8.72998 7.92818,9.37498 l 1.43086,0.18 c 21.33163,2.98499 23.09831,10.54496 23.09831,19.33494 0,0 -0.1168,1.99499 -0.23361,3.22499 -5.53366,21.73494 -11.46155,33.6299 -17.05362,43.12487 -0.86085,1.46999 -1.53307,3.97499 -1.53307,5.68498 0,7.13998 5.86948,12.88496 12.4252,16.93495 -1.64988,-0.36 -3.41657,-0.94439 -4.90584,-1.00559 -9.57806,-0.4644 -13.62245,5.33998 -14.93652,7.79997 -0.29201,0.5244 -0.68681,1.575 -0.86202,2.1 -11.46155,36.85488 -24.631382,74.30977 -41.407586,117.65964 -0.685649,1.17 -3.474967,5.68499 -3.474967,5.68499 -11.184136,18.62994 -21.667439,36.14989 -42.54644,45.88486 -1.489271,0.7056 -3.372762,2.28 -4.336408,3.62999 -2.452918,3.56999 -3.766981,7.72498 -3.766981,12.11996 0,4.45499 1.372466,8.78998 3.883787,12.19497 4.453213,5.96998 11.69516,8.20497 18.426083,5.62498 0.905243,-0.3 2.102501,-0.99 2.847137,-1.59 20.922803,-16.57495 48.138508,-22.54493 83.209385,-18.20994 0.68682,0.06 1.76669,0.108 2.39452,0.06 7.98658,-0.7656 13.85606,-7.49998 14.5423,-16.76996 0.0584,-0.10799 0.1168,-1.63499 0.1168,-1.63499 0,-9.67497 -5.24165,-17.33994 -13.05302,-19.33494 -0.46723,-0.12 -0.92043,-0.24 -1.43087,-0.3 -3.59177,-0.3456 -4.61382,-1.395 -5.47527,-2.86499 -0.1752,-1.995 -1.08045,-13.46996 -1.08045,-13.46996 0,-28.24492 11.91417,-63.05982 36.44335,-106.28968 0.56884,-0.8856 0.56884,-0.6456 0.78844,-1.65 l 1.21186,-6.61498 c 0.0467,-0.36 0.0467,-0.5256 0.0467,-0.64559 0,-0.18 -0.0467,-0.18 -0.16119,-0.88561 l -0.23245,-1.34999 c -0.1168,-0.68999 -0.3364,-1.455 -0.62841,-2.09999 -1.82509,-4.57499 -6.3221,-8.72998 -11.51995,-12.07496 8.55601,1.63498 16.08997,-0.5856 20.64539,-6.14999 l 3.47496,-5.15998 2.45292,-4.21499 1.60608,-2.52 2.2193,-4.27498 c 0.23362,-0.3 0.45204,-0.8856 0.56885,-1.22999 0,0 1.48927,-3.86999 1.59147,-4.04999 1.43087,0.58559 2.80334,1.10999 2.80334,1.10999 44.25472,21.62994 85.09288,175.13947 89.31248,223.42433 l 0,0.12 c 0,8.20498 4.62842,15.98995 11.69516,18.97495 0,0 9.34445,0.64559 9.34445,0.64559 1.94189,0.18 1.21186,-0.108 2.86174,-1.22999 l 3.53337,-2.4 12.71721,-11.47496 35.36289,-33.4049 c 8.73122,-6.38998 10.71692,-15.70495 11.75357,-20.68494 0.16119,-0.70559 0.27799,-1.755 0.27799,-2.69999 0,-0.93 -0.1168,-1.875 -0.21842,-2.51999 l -0.11681,-0.3456 c -0.0584,-0.4644 -0.23361,-0.7656 -0.35042,-1.16999 -5.41686,-14.06997 -11.51995,-29.23492 -19.60874,-44.93987 -4.00059,-8.20497 -6.00088,-16.10995 -6.00088,-23.90994 0,-9.13496 2.51132,-17.51995 5.43146,-27.23991 3.06614,-10.37997 6.2637,-21.04494 7.24194,-34.2749 0,-0.18 0,-0.42 0,-0.7056 0,-0.8256 -0.0584,-1.81499 -0.1752,-2.51999 -1.19726,-5.33998 -4.39482,-10.90496 -8.43921,-15.82495 0.84684,0.8844 1.19726,1.81499 2.21931,2.63999 0.1168,0.12 1.43087,1.34999 1.43087,1.34999 0.1168,0.06 9.51965,6.08999 9.51965,6.08999 1.43087,0.46559 7.18355,2.05499 12.03098,0.64559 0,0 0.0584,-0.06 0.0584,-0.06 0,0 0,0.06 -0.0584,0.06 1.19726,-0.35999 2.23391,-0.9456 3.25595,-1.69499 1.13886,-0.8256 2.27771,-1.76999 3.35817,-2.69999 2.1755,0.3456 4.96423,1.40999 8.04498,6.73498 19.11232,31.63491 34.91028,68.0848 46.99966,108.40467 1.94189,9.71998 2.90553,16.93495 2.90553,22.49994 0,7.66498 -1.82508,10.60497 -3.24135,12.17996 l -3.19755,2.81999 c -6.33671,5.78998 -12.83402,11.71497 -18.30928,14.99996 -2.1171,1.28999 -4.27801,3.68998 -4.84743,6.14998 l -0.17521,0.7044 c 0,-0.12 -1.19726,8.02497 -1.19726,8.02497 l 3.70858,11.24997 c 3.59177,4.45499 9.12543,6.44998 16.36738,5.90998 1.82509,-0.1644 4.45322,-1.22999 5.92789,-2.39999 6.16149,-5.03999 14.38169,-9.01497 25.21541,-12.23996 20.41177,-3.75 38.15162,-3.40499 54.18319,-2.39999 11.79737,1.81499 26.39807,4.43997 40.42934,10.94996 0.35042,0.18 0.74522,0.36 1.19726,0.4644 8.55601,2.57999 16.83461,0.36 21.56523,-5.84998 0.0584,0 3.41657,-10.25998 3.41657,-10.25998 l -2.55513,-9.65997 c -0.46722,-1.52999 -0.52562,-1.00559 -1.60607,-2.11498 M 63.36879,379.33086 c 0,0 1.883491,-3.04499 2.744932,-4.51498 4.78903,-12.47996 9.242243,-24.31494 13.520248,-35.9099 -2.175504,-12.65996 -3.489567,-25.60492 -3.489567,-38.90988 0,-45.40486 13.067626,-87.71974 35.304497,-123.38963 -6.43891,-4.22999 -10.65852,-11.60996 -10.65852,-19.81495 l 0,-1.45498 c 0,-16.28996 17.95887,-36.2699 34.32625,-38.2049 0,0 5.08104,-0.06 5.13945,-0.06 8.04498,0.81 15.22853,1.45499 22.07626,1.99499 37.97642,-30.5849 85.72071,-49.04986 137.67,-49.04986 47.56908,0 91.66319,15.46496 127.98973,41.59488 9.30065,-0.4656 16.03157,2.75999 20.41178,6.16498 4.68683,3.74999 10.10369,10.42497 11.75357,21.97494 39.34888,41.41487 63.64445,97.90471 63.64445,160.24452 0,7.43997 -0.39364,14.81996 -1.08046,22.09493 5.76728,17.03995 10.89213,34.3949 15.11173,51.43485 2.1755,6.50998 7.02294,11.14497 14.77591,17.11495 9.69486,-28.40992 15.05332,-58.88983 15.05332,-90.64473 0,-151.63455 -120.10536,-274.97918 -267.66003,-274.97918 -147.54008,0 -267.660037,123.34463 -267.660037,274.97918 0,35.03989 6.511912,68.44479 18.134069,99.3147 4.511616,-6.02998 8.55601,-12.76496 12.892418,-19.97994 m 444.06569,75.70477 c 3.82539,0.6456 7.86978,1.35 11.92877,2.22 -48.43052,71.08478 -128.67597,117.71964 -219.36091,117.71964 -88.29044,0 -166.7108,-44.17486 -215.477135,-112.09466 13.35964,-3.68999 28.748775,-4.43999 46.663835,-2.27999 -0.1168,0 5.30006,0.12 5.30006,0.12 1.08045,-0.12 2.1171,-0.4044 3.13915,-0.6444 40.72135,43.06487 97.53267,69.89979 160.37409,69.89979 64.56429,0 122.68968,-28.46992 163.57164,-73.58978 16.14837,-2.27999 30.63227,-2.11499 43.8605,-1.35"
     inkscape:connector-curvature="0"
     id="path266"
     style="fill:#000000;fill-opacity:1;fill-rule:nonzero;stroke:none" />
</svg>
