<?xml version="1.0" encoding="UTF-8" standalone="no"?>
<!-- Created with Inkscape (http://www.inkscape.org/) -->

<svg
   xmlns:dc="http://purl.org/dc/elements/1.1/"
   xmlns:cc="http://creativecommons.org/ns#"
   xmlns:rdf="http://www.w3.org/1999/02/22-rdf-syntax-ns#"
   xmlns:svg="http://www.w3.org/2000/svg"
   xmlns="http://www.w3.org/2000/svg"
   xmlns:inkscape="http://www.inkscape.org/namespaces/inkscape"
   version="1.1"
   width="600"
   height="555.99988"
   id="svg2"
   xml:space="preserve"><metadata
     id="metadata8"><rdf:RDF><cc:Work
         rdf:about=""><dc:format>image/svg+xml</dc:format><dc:type
           rdf:resource="http://purl.org/dc/dcmitype/StillImage" /><dc:title /></cc:Work></rdf:RDF></metadata><defs
     id="defs6"><clipPath
       id="clipPath16"><path
         d="m 0,278.001 299.999,0 L 299.999,0 0,0 0,278.001 z"
         inkscape:connector-curvature="0"
         id="path18" /></clipPath><clipPath
       id="clipPath30"><path
         d="M 0,278 300,278 300,0 0,0 0,278 z"
         inkscape:connector-curvature="0"
         id="path32" /></clipPath><clipPath
       id="clipPath38"><path
         d="m 2.31982,213.096 249.66118,0 0,-227.889 -249.66118,0 0,227.889 z"
         inkscape:connector-curvature="0"
         id="path40" /></clipPath><radialGradient
       cx="0"
       cy="0"
       r="1"
       fx="0"
       fy="0"
       id="radialGradient62"
       gradientUnits="userSpaceOnUse"
       gradientTransform="matrix(-168.58464,-69.620178,-69.620178,168.58464,220.88281,190.83301)"
       spreadMethod="pad"><stop
         id="stop64"
         style="stop-color:#b3d9ff;stop-opacity:1"
         offset="0" /><stop
         id="stop66"
         style="stop-color:#000000;stop-opacity:1"
         offset="1" /></radialGradient><clipPath
       id="clipPath74"><path
         d="M 0,278 300,278 300,0 0,0 0,278 z"
         inkscape:connector-curvature="0"
         id="path76" /></clipPath><radialGradient
       cx="0"
       cy="0"
       r="1"
       fx="0"
       fy="0"
       id="radialGradient98"
       gradientUnits="userSpaceOnUse"
       gradientTransform="matrix(-137.255,-112.36751,-112.36751,137.255,164.66309,138.59961)"
       spreadMethod="pad"><stop
         id="stop100"
         style="stop-color:#a1c3e6;stop-opacity:1"
         offset="0" /><stop
         id="stop102"
         style="stop-color:#000000;stop-opacity:1"
         offset="1" /></radialGradient><clipPath
       id="clipPath110"><path
         d="M 0,278 300,278 300,0 0,0 0,278 z"
         inkscape:connector-curvature="0"
         id="path112" /></clipPath><clipPath
       id="clipPath122"><path
         d="M 0,278 300,278 300,0 0,0 0,278 z"
         inkscape:connector-curvature="0"
         id="path124" /></clipPath><clipPath
       id="clipPath130"><path
         d="m -56.5,334.5 413,0 0,-413 -413,0 0,413 z"
         inkscape:connector-curvature="0"
         id="path132" /></clipPath><clipPath
       id="clipPath164"><path
         d="M 0,278 300,278 300,0 0,0 0,278 z"
         inkscape:connector-curvature="0"
         id="path166" /></clipPath></defs><g
     transform="matrix(1.9999996,0,0,-1.9999996,-831.99962,555.99989)"
     id="g10"><path
       d="m 655.0752,69.3066 c -0.676,0 -1.361,0.146 -2.012,0.45 l -155.549,72.909 c -1.646,0.771 -2.706,2.414 -2.73,4.231 -0.405,30.256 7.72,58.628 22.88,79.889 17.943,25.166 44.956,39.357 78.118,41.038 1.639,0.084 3.332,0.125 5.034,0.125 6.365,0 26.263,-0.722 39.693,-9.115 1.063,2.869 1.867,6.407 2.279,10.192 0.205,1.879 1.505,3.457 3.31,4.017 0.464,0.144 0.938,0.213 1.407,0.213 1.36,0 2.682,-0.585 3.598,-1.65 5.388,-6.261 11.029,-19.248 11.82,-34.486 8.339,-11.708 17.075,-25.955 18.507,-46.524 1.33,-19.075 14.759,-38.847 24.566,-53.284 1.596,-2.35 3.102,-4.568 4.46,-6.635 0.445,-0.678 0.709,-1.461 0.766,-2.27 0.275,-3.917 -1.14,-7.661 -4.091,-10.827 -4.113,-4.41 -10.753,-7.149 -17.33,-7.149 -1.866,0 -3.667,0.227 -5.355,0.672 -0.786,0.208 -1.505,0.612 -2.088,1.179 -0.879,0.851 -1.837,1.804 -2.877,2.838 -4.973,4.949 -11.863,11.802 -20.969,18.115 13.978,-18.979 13.628,-37.046 0.762,-61.398 -0.847,-1.604 -2.492,-2.53 -4.199,-2.53"
       inkscape:connector-curvature="0"
       id="path170"
       style="fill:#000000;fill-opacity:1;fill-rule:nonzero;stroke:none" /><path
       d="m 647.5049,278 c -0.938,0 -1.886,-0.14 -2.813,-0.426 -3.612,-1.121 -6.213,-4.278 -6.622,-8.035 -0.141,-1.294 -0.332,-2.558 -0.565,-3.762 -13.899,6.309 -30.788,6.915 -36.688,6.915 -1.783,0 -3.557,-0.044 -5.276,-0.131 -34.661,-1.757 -62.927,-16.634 -81.742,-43.022 -15.74,-22.077 -24.178,-51.449 -23.76,-82.706 0.049,-3.633 2.169,-6.92 5.461,-8.463 l 155.548,-72.908 c 1.301,-0.609 2.673,-0.899 4.024,-0.899 3.416,0 6.704,1.85 8.399,5.058 9.463,17.909 12.257,32.083 8.988,45.761 1.327,-1.288 2.552,-2.506 3.675,-3.623 1.057,-1.051 2.029,-2.019 2.923,-2.884 1.167,-1.13 2.604,-1.941 4.176,-2.357 2.083,-0.553 4.292,-0.831 6.568,-0.831 7.85,0 15.82,3.319 20.801,8.659 3.817,4.092 5.718,9.204 5.354,14.393 -0.113,1.619 -0.64,3.182 -1.532,4.54 -1.386,2.11 -2.898,4.338 -4.502,6.697 -9.503,13.99 -22.517,33.15 -23.757,50.949 -1.407,20.209 -9.591,34.993 -18.59,47.828 -0.995,13.997 -5.914,27.858 -12.874,35.946 -1.833,2.13 -4.476,3.301 -7.196,3.301 m 10e-4,-9.487 c 5.139,-5.973 10.289,-18.648 10.733,-33.005 7.989,-11.102 17.054,-25.082 18.457,-45.242 1.639,-23.52 19.816,-46.994 29.792,-62.192 0.518,-7.37 -8.471,-12.9 -16.687,-12.9 -1.422,0 -2.818,0.164 -4.141,0.514 -8.436,8.169 -24.243,25.861 -49.993,34.294 30.522,-25.904 35.933,-44.66 19.411,-75.93 l -155.549,72.908 c -0.725,54.205 27.226,112.615 96.494,116.126 1.549,0.079 3.153,0.12 4.794,0.12 14.669,0 32.332,-3.244 41.342,-11.539 3.168,4.478 4.746,11.332 5.347,16.846"
       inkscape:connector-curvature="0"
       id="path174"
       style="fill:#ffffff;fill-opacity:1;fill-rule:nonzero;stroke:none" /><path
       d="m 590.2197,4.7441 c -1.823,0 -3.517,1.054 -4.304,2.749 -0.895,1.933 -0.393,4.223 1.228,5.605 10.654,9.078 14.239,16.095 11.985,23.465 -4.747,15.533 -27.636,23.275 -74.213,25.107 -48.474,1.905 -77.385,18.776 -83.816,48.836 -11.358,6.454 -19.582,20.676 -20.306,35.559 -0.615,12.643 4.56,24.485 12.841,30.088 0.365,25.535 26.281,50.676 56.236,53.705 0.161,0.016 0.32,0.025 0.479,0.025 1.448,0 2.828,-0.663 3.733,-1.816 1.004,-1.278 1.283,-2.982 0.739,-4.514 -5.115,-14.411 0.381,-33.746 13.069,-45.974 20.172,-19.44 52.652,-36.24 96.536,-49.931 48.837,-15.237 59.088,-44.578 59.088,-66.509 0,-28.252 -26.435,-48.786 -72.525,-56.332 -0.258,-0.042 -0.515,-0.063 -0.77,-0.063"
       inkscape:connector-curvature="0"
       id="path178"
       style="fill:#000000;fill-opacity:1;fill-rule:nonzero;stroke:none" /><path
       d="m 490.3501,234.626 c -0.317,0 -0.636,-0.016 -0.957,-0.048 -15.824,-1.6 -31.536,-9.169 -43.107,-20.764 -10.313,-10.333 -16.426,-22.901 -17.293,-35.228 -8.442,-6.957 -13.583,-19.509 -12.939,-32.752 0.76,-15.633 9.114,-30.664 20.868,-38.329 3.964,-15.948 13.917,-28.394 29.64,-37.037 14.625,-8.041 34.195,-12.596 58.168,-13.538 43.65,-1.717 65.848,-8.628 69.861,-21.753 1.139,-3.728 0.779,-8.836 -10.526,-18.468 -3.243,-2.764 -4.246,-7.348 -2.454,-11.211 1.573,-3.391 4.96,-5.498 8.607,-5.498 0.509,0 1.023,0.041 1.539,0.125 22.545,3.692 40.652,10.424 53.815,20.01 14.843,10.806 22.688,24.985 22.688,41.004 0,23.522 -10.828,54.941 -62.419,71.037 -43.174,13.47 -75.021,29.894 -94.657,48.818 -11.412,10.999 -16.413,28.23 -11.89,40.973 1.087,3.064 0.53,6.471 -1.479,9.029 -1.808,2.305 -4.569,3.63 -7.465,3.63 m -10e-4,-9.486 c -6.111,-17.218 1.095,-38.3 14.248,-50.975 23.572,-22.718 59.842,-39.01 98.416,-51.046 39.587,-12.35 55.755,-34.838 55.755,-61.98 0,-26.791 -27.242,-44.887 -68.546,-51.651 10.722,9.135 16.619,18.081 13.446,28.461 -5.8,18.974 -31.637,26.616 -78.566,28.461 -42.969,1.689 -74.347,15.548 -79.778,47.254 -10.474,4.835 -19.087,18.187 -19.79,32.632 -0.59,12.115 4.921,23.405 12.912,27.158 -1.558,23.763 23.08,48.77 51.903,51.686"
       inkscape:connector-curvature="0"
       id="path182"
       style="fill:#ffffff;fill-opacity:1;fill-rule:nonzero;stroke:none" /><path
       d="m 667.3857,117.3369 c -1.625,0 -3.193,0.883 -3.996,2.424 -6.581,12.647 -21.066,21.126 -35.073,29.326 -17.392,10.18 -35.374,20.707 -36.088,39.515 -0.628,16.584 14.21,23.179 14.843,23.452 2.279,0.984 4.928,-0.067 5.914,-2.349 0.981,-2.275 -0.061,-4.912 -2.327,-5.905 -0.435,-0.195 -9.828,-4.531 -9.436,-14.857 0.526,-13.876 14.944,-22.316 31.64,-32.089 15.109,-8.845 30.732,-17.99 38.511,-32.939 1.147,-2.204 0.29,-4.922 -1.915,-6.069 -0.663,-0.345 -1.374,-0.509 -2.073,-0.509"
       inkscape:connector-curvature="0"
       id="path186"
       style="fill:#ffffff;fill-opacity:1;fill-rule:nonzero;stroke:none" /></g></svg>