<?xml version="1.0" encoding="UTF-8" standalone="no"?>
<!-- Created with Inkscape (http://www.inkscape.org/) -->

<svg
   xmlns:dc="http://purl.org/dc/elements/1.1/"
   xmlns:cc="http://creativecommons.org/ns#"
   xmlns:rdf="http://www.w3.org/1999/02/22-rdf-syntax-ns#"
   xmlns:svg="http://www.w3.org/2000/svg"
   xmlns="http://www.w3.org/2000/svg"
   xmlns:inkscape="http://www.inkscape.org/namespaces/inkscape"
   version="1.1"
   width="600"
   height="607.92615"
   id="svg5625">
  <defs
     id="defs5627" />
  <metadata
     id="metadata5630">
    <rdf:RDF>
      <cc:Work
         rdf:about="">
        <dc:format>image/svg+xml</dc:format>
        <dc:type
           rdf:resource="http://purl.org/dc/dcmitype/StillImage" />
        <dc:title />
      </cc:Work>
    </rdf:RDF>
  </metadata>
  <path
     d="M 465.72006,607.92614 455.35298,596.6529 c -31.62343,-34.31119 -39.54849,-61.08129 -48.65616,-92.09038 l -1.44371,-4.80725 c -4.25434,-14.16067 -15.35864,-19.13686 -36.23102,-27.4766 -6.91139,-2.7492 -14.05315,-5.57519 -21.17956,-9.16911 -14.82109,-7.57181 -33.6047,-12.1794 -33.85044,-12.24083 l -9.95239,-2.41131 -4.37721,-9.35341 c -0.36861,-0.72247 -8.33974,-17.75458 -12.65552,-31.73094 -0.59837,-1.91983 -0.84411,-2.45738 -0.90554,-2.64168 -0.24574,0 -6.95747,-4.68439 -43.67996,-6.48135 -51.05211,-2.45738 -83.15166,-28.32132 -108.93881,-49.13227 -1.25941,-0.96821 -2.58025,-2.0427 -3.79358,-3.07173 0.6598,4.68438 0.78267,9.30733 0.1843,13.50024 -1.48979,10.09062 -6.83459,18.06176 -15.17433,22.37753 -4.86869,2.58025 -10.1367,3.9011 -15.604373,3.9011 -18.706818,0 -33.527902,-14.63678 -47.089578,-29.68825 -13.438806,-14.75965 -39.057011,-52.55725 -39.717432,-89.87873 -0.906774,-46.19878 7.018896,-71.81699 25.679639,-82.90592 4.853329,-2.88742 10.382438,-4.37721 16.372306,-4.37721 8.877292,0 18.12319,3.53248 26.524364,8.15543 2.457382,-3.42497 5.037633,-6.29704 7.556449,-8.58547 -0.538166,-10.1367 -0.661036,-19.07543 -0.661036,-26.34006 -4.192907,-2.51882 -8.401173,-6.23561 -12.240832,-11.74936 -0.06144,-0.12287 -0.184304,-0.30717 -0.292429,-0.43004 -0.845339,0.30717 -1.812319,0.66103 -2.948858,1.15128 -7.372145,3.1178 -15.358636,4.79189 -23.222257,4.79189 -26.032888,0 -46.0759085,-17.09416 -48.7636698,-41.45295 C -2.2889076,81.35469 12.639687,64.85952 30.409629,58.79286 55.121674,36.59963 81.999287,29.5193 98.079778,27.18478 105.16011,15.18969 118.82929,0.53755 149.07045,0 c 19.98158,0 29.93398,8.33974 34.98697,15.42007 4.73046,6.54278 6.46599,13.68454 6.83459,19.98158 16.01906,11.15037 27.89129,25.08066 36.66107,39.90174 1.30548,-2.34987 2.74919,-4.56151 4.31577,-6.66565 7.31071,-9.78345 21.30243,-21.83998 46.19878,-23.5755 23.69838,-1.68945 51.46679,-5.1605 83.56634,-9.12303 14.09923,-1.79696 29.27356,-3.65536 45.66122,-5.63662 24.95779,-2.94886 47.33532,-5.03763 67.1326,-6.89603 22.91509,-2.16557 42.65093,-4.02396 58.13244,-6.48134 17.40133,-2.82599 25.4339,-3.71679 31.73094,-3.71679 10.44387,0 16.4491,2.9335 21.4253,6.11273 L 600,28.44419 594.47089,44.46325 c -1.61266,4.66903 -10.38244,28.67457 -23.99019,42.35912 -13.02412,13.00876 -25.74107,29.74968 -31.02444,40.79254 -9.12303,19.01399 -27.2923,34.84874 -44.21752,38.62696 -14.75965,3.24068 -43.01954,8.89265 -57.28771,11.70328 -15.78868,22.50041 -34.20368,43.61853 -49.31658,59.63759 5.75949,3.48641 9.82953,7.43358 13.00877,10.44387 1.21394,1.19797 2.82598,2.7492 3.48641,3.17924 0.96698,0 2.70312,0.0614 4.43864,0.0614 l 2.76456,-0.0614 3.17923,0 c 14.09923,0 29.93399,2.81063 49.43945,23.16082 29.99542,31.31626 19.73585,77.62255 19.25973,79.60381 l -1.38228,6.1281 c 27.35374,7.43358 33.58934,28.01415 33.89651,44.44789 0.29243,15.00539 -3.83965,26.93905 -12.30226,35.58596 -5.09907,5.26801 -14.34497,11.51898 -28.98175,11.93366 0.59837,2.81063 1.09108,5.45231 1.38228,7.9097 17.5242,12.548 24.83491,32.34528 26.93905,48.90189 l 0,0 14.34496,5.88236 -0.96821,15.48151 c -3.59392,55.18357 -33.89651,70.00466 -37.38292,71.5098 l -14.03779,6.17418 z"
     inkscape:connector-curvature="0"
     id="path676"
     style="fill:#ffffff;fill-opacity:1;fill-rule:nonzero;stroke:none" />
  <path
     d="m 344.89367,251.08359 c 0,0 48.36434,-44.57076 80.34102,-92.52042 0,0 45.29262,-8.93873 65.33564,-13.37737 8.93873,-1.91983 22.42361,-12.11796 29.45787,-26.87761 7.01889,-14.69822 21.94749,-33.40504 35.20199,-46.6749 10.87391,-10.91999 18.96791,-34.18832 18.96791,-34.18832 -5.57518,-3.54785 -8.64691,-4.02396 -38.27372,0.72247 -29.58073,4.66902 -71.57124,7.08033 -126.10976,13.54631 -54.53851,6.41991 -95.63822,12.30227 -130.19515,14.75965 -34.55693,2.47274 -43.12705,31.7463 -37.19862,58.97717 6.00523,27.24622 6.41991,49.0862 -0.4755,71.03369 0,0 -9.35341,-14.39104 -11.70328,-39.8403 -2.21165,-25.49534 -12.40978,-83.56634 -62.09497,-109.96784 0,0 8.70835,-25.67964 -18.64538,-25.18816 -27.30766,0.53817 -32.52959,15.17433 -37.73617,26.21719 0,0 -38.289078,-1.15128 -70.496137,30.4101 0,0 -21.778546,4.02396 -19.628337,24.06698 2.227002,19.96623 24.189852,26.87762 42.236249,19.25973 18.12319,-7.63324 21.778546,-4.02396 29.288919,6.71173 7.495016,10.79712 16.556606,6.95746 16.556606,6.95746 0,0 -1.44371,23.75981 0.95224,54.66138 0,0 -16.310873,3.96253 -19.49011,31.31626 0,0 -29.580733,-26.75474 -42.236249,-19.25973 -12.60944,7.49502 -15.727243,34.84875 -15.189691,64.0148 0.552911,29.08925 21.118124,61.55741 34.203682,75.88702 12.962689,14.34496 25.910019,26.81618 36.768568,21.17956 10.81248,-5.69806 -2.51881,-38.21229 -11.74935,-47.15102 -9.307333,-8.93872 -17.048086,-32.45279 -17.217031,-45.1851 0,0 24.113059,26.83153 53.693791,48.18004 29.5193,21.30243 59.20754,55.38324 113.93036,58.00957 54.70746,2.64168 60.298,11.64184 64.1991,24.31272 3.88573,12.71695 11.51897,28.90495 11.51897,28.90495 0,0 21.10277,5.09907 38.44267,13.93028 26.17112,13.2545 58.56248,17.1556 68.2845,49.73127 9.72201,32.6371 15.58901,56.15117 45.35405,88.43502 0,0 21.65567,-9.49164 24.48166,-53.27911 l -12.83982,-5.22193 c 0,0 2.9335,-38.33516 -26.40149,-50.51456 0,0 -0.41407,-20.04302 -7.92506,-32.6371 -7.49501,-12.59408 -13.00876,-18.00032 -24.11306,-25.08065 -11.04286,-7.08033 -20.4577,-23.26833 -18.95255,-39.71743 1.55122,-16.43374 14.39104,-13.00877 17.3399,-49.48553 0,0 9.35341,10.79712 -2.94886,36.47676 -12.30227,25.72572 18.90648,39.76351 18.90648,39.76351 0,0 2.21164,21.77855 24.17449,26.87761 21.94749,5.05299 32.69854,-4.25434 32.32993,-24.29736 -0.35386,-20.02766 -13.13163,-23.45264 -22.3161,-25.06529 0,0 -16.55661,-10.62818 -20.51913,-26.93905 l 10.85855,-3.83966 c 0,0 8.46261,-36.59963 -13.79205,-59.88332 -22.3161,-23.26833 -33.06715,-13.97636 -49.56232,-17.27847 -16.37231,-3.34818 -14.99003,-25.24959 -55.01464,-20.87238"
     inkscape:connector-curvature="0"
     id="path678"
     style="fill:#000000;fill-opacity:1;fill-rule:nonzero;stroke:none" />
</svg>
