<?xml version="1.0" encoding="UTF-8" standalone="no"?>
<!-- Created with Inkscape (http://www.inkscape.org/) -->

<svg
   xmlns:dc="http://purl.org/dc/elements/1.1/"
   xmlns:cc="http://creativecommons.org/ns#"
   xmlns:rdf="http://www.w3.org/1999/02/22-rdf-syntax-ns#"
   xmlns:svg="http://www.w3.org/2000/svg"
   xmlns="http://www.w3.org/2000/svg"
   xmlns:inkscape="http://www.inkscape.org/namespaces/inkscape"
   version="1.1"
   width="600"
   height="427.2738"
   id="svg5811">
  <defs
     id="defs5813" />
  <metadata
     id="metadata5816">
    <rdf:RDF>
      <cc:Work
         rdf:about="">
        <dc:format>image/svg+xml</dc:format>
        <dc:type
           rdf:resource="http://purl.org/dc/dcmitype/StillImage" />
        <dc:title />
      </cc:Work>
    </rdf:RDF>
  </metadata>
  <path
     d="m 475.32421,61.23368 c -5.94178,0 -10.74861,4.79348 -10.74861,10.6952 0,5.88836 4.80683,10.68184 10.74861,10.68184 5.88837,0 10.6952,-4.79348 10.6952,-10.68184 0,-5.90172 -4.80683,-10.6952 -10.6952,-10.6952 m -46.47938,45.01062 c -5.83496,0 -10.68184,4.84689 -10.68184,10.74861 0,5.83496 4.84688,10.68185 10.68184,10.68185 5.95513,0 10.74861,-4.84689 10.74861,-10.68185 0,-5.90172 -4.79348,-10.74861 -10.74861,-10.74861 m 92.83859,1.402 c -5.88837,0 -10.68185,4.80683 -10.68185,10.69519 0,5.90172 4.79348,10.6952 10.68185,10.6952 5.95513,0 10.74861,-4.79348 10.74861,-10.6952 0,-5.88836 -4.79348,-10.69519 -10.74861,-10.69519 M 121.74178,80.99509 c -19.86823,0 -35.984461,16.16964 -35.984461,35.99782 0,19.81482 16.116231,35.93106 35.984461,35.93106 19.82818,0 35.94441,-16.11624 35.94441,-35.93106 0,-19.82818 -16.11623,-35.99782 -35.94441,-35.99782 m 353.58243,73.07718 c -5.94178,0 -10.74861,4.79347 -10.74861,10.69519 0,5.88837 4.80683,10.6952 10.74861,10.6952 5.88837,0 10.6952,-4.80683 10.6952,-10.6952 0,-5.90172 -4.80683,-10.69519 -10.6952,-10.69519 m -92.83859,29.30831 c -21.33698,0 -38.70833,17.37135 -38.70833,38.70833 0,21.32364 17.37135,38.69499 38.70833,38.69499 21.27023,0 38.64158,-17.37135 38.64158,-38.69499 0,-21.33698 -17.37135,-38.70833 -38.64158,-38.70833 m -174.78169,-8.18497 c -26.59779,0 -48.20183,21.6975 -48.20183,48.24189 0,26.6512 21.60404,48.25523 48.20183,48.25523 26.5978,0 48.24188,-21.60403 48.24188,-48.25523 0,-26.54439 -21.64408,-48.24189 -48.24188,-48.24189 m 328.96078,252.0782 c -37.45322,0 -100.62298,-44.38307 -137.64893,-85.58828 -0.16023,-0.16023 -25.71654,-26.2907 -98.47326,-26.2907 -72.86354,0 -99.56815,26.3441 -99.8352,26.5978 -36.91913,41.0984 -101.076955,85.28118 -137.328467,85.28118 -3.484952,0 -6.782972,-0.35998 -9.747184,-1.1483 C -9.6849683,409.74223 -1.2863675,320.14825 2.7727337,277.06036 9.5557054,205.02467 24.002901,102.22526 70.896201,40.68448 92.326653,12.56452 119.92587,0 160.39671,0 c 27.58586,0 58.46975,4.01904 80.00702,32.49951 l 119.18269,0 C 381.1771,4.01904 412.00757,0 439.59344,0 c 40.47084,0 68.12347,12.56452 89.55392,40.68448 46.94671,61.59419 61.3405,164.3936 68.07006,236.37588 4.0591,43.08789 12.51111,132.68187 -50.85894,149.06515 -2.97756,0.78832 -6.20882,1.1483 -9.69377,1.1483"
     inkscape:connector-curvature="0"
     id="path616"
     style="fill:#ffffff;fill-opacity:1;fill-rule:nonzero;stroke:none" />
  <path
     d="m 475.32421,41.88619 c -16.58356,0 -30.04269,13.49918 -30.04269,30.04269 0,16.58356 13.45913,30.04269 30.04269,30.04269 16.53016,0 30.04269,-13.45913 30.04269,-30.04269 0,-16.54351 -13.51253,-30.04269 -30.04269,-30.04269 m -46.42597,45.06403 c -16.58356,0 -30.04269,13.44577 -30.04269,30.04269 0,16.53016 13.45913,30.04269 30.04269,30.04269 16.54351,0 29.98928,-13.51253 29.98928,-30.04269 0,-16.59692 -13.44577,-30.04269 -29.98928,-30.04269 M 121.74178,61.70101 c -30.510016,0 -55.278544,24.78188 -55.278544,55.2919 0,30.45661 24.768528,55.27855 55.278544,55.27855 30.46996,0 55.2919,-24.82194 55.2919,-55.27855 0,-30.51002 -24.82194,-55.2919 -55.2919,-55.2919 m 353.58243,73.02376 c -16.58356,0 -30.04269,13.51254 -30.04269,30.04269 0,16.53016 13.45913,30.04269 30.04269,30.04269 16.53016,0 30.04269,-13.51253 30.04269,-30.04269 0,-16.53015 -13.51253,-30.04269 -30.04269,-30.04269 m -92.83859,29.36173 c -32.03218,0 -58.05583,26.02364 -58.05583,58.00241 0,32.01884 26.02365,58.04248 58.05583,58.04248 31.96543,0 57.98907,-26.02364 57.98907,-58.04248 0,-31.97877 -26.02364,-58.00241 -57.98907,-58.00241 m -174.72828,-8.18497 c -37.29299,0 -67.60273,30.29638 -67.60273,67.58938 0,37.23958 30.30974,67.54932 67.60273,67.54932 37.23958,0 67.53597,-30.30974 67.53597,-67.54932 0,-37.293 -30.29639,-67.58938 -67.53597,-67.58938 m 328.90737,252.0782 c -27.27876,0 -86.01556,-37.76033 -123.25514,-79.23259 -1.25512,-1.36193 -30.72366,-32.6998 -112.86705,-32.6998 -81.99652,0 -112.55995,31.2444 -113.80171,32.59298 l -0.10682,0.10682 -0.10682,0.10682 c -37.23958,41.4055 -95.922964,79.12577 -123.148317,79.12577 -1.869323,0 -3.484952,-0.21364 -4.900297,-0.57469 C 16.806007,396.65644 16.338677,339.28158 22.026759,278.88909 28.596094,209.25681 42.362322,109.99577 86.278059,52.36721 104.11674,28.94727 125.6006,19.34696 160.39671,19.34696 c 34.47565,0 53.14218,7.77104 66.65471,27.69268 l 3.23126,4.80683 5.7949,0 127.83498,0 5.84832,0 3.23125,-4.80683 c 13.45913,-19.92164 32.17906,-27.69268 66.60131,-27.69268 34.83617,0 56.27997,9.60031 74.17206,33.02025 9.02616,11.88355 16.7972,25.50291 23.47336,40.25721 -4.53979,-2.71052 -9.86736,-4.32615 -15.55544,-4.32615 -16.53016,0 -29.98928,13.45912 -29.98928,30.04269 0,16.58356 13.45912,30.04269 29.98928,30.04269 13.51253,0 24.99552,-8.91934 28.74752,-21.23017 16.16964,50.23138 23.36653,107.03209 27.58586,151.73561 5.63467,60.39249 5.16734,117.76735 -36.4518,128.51595 -1.41534,0.35998 -3.08438,0.57469 -4.90029,0.57469"
     inkscape:connector-curvature="0"
     id="path618"
     style="fill:#000000;fill-opacity:1;fill-rule:nonzero;stroke:none" />
</svg>
