<?xml version="1.0" encoding="UTF-8" standalone="no"?>
<!-- Created with Inkscape (http://www.inkscape.org/) -->

<svg
   xmlns:dc="http://purl.org/dc/elements/1.1/"
   xmlns:cc="http://creativecommons.org/ns#"
   xmlns:rdf="http://www.w3.org/1999/02/22-rdf-syntax-ns#"
   xmlns:svg="http://www.w3.org/2000/svg"
   xmlns="http://www.w3.org/2000/svg"
   xmlns:inkscape="http://www.inkscape.org/namespaces/inkscape"
   version="1.1"
   width="600"
   height="507.63568"
   id="svg6008">
  <defs
     id="defs6010" />
  <metadata
     id="metadata6013">
    <rdf:RDF>
      <cc:Work
         rdf:about="">
        <dc:format>image/svg+xml</dc:format>
        <dc:type
           rdf:resource="http://purl.org/dc/dcmitype/StillImage" />
        <dc:title />
      </cc:Work>
    </rdf:RDF>
  </metadata>
  <path
     d="M 355.64956,253.81785 C 506.25238,202.01362 600,0 600,0 L 0,0 C 0,0 93.74762,202.01362 244.4012,253.81785 93.74762,305.62207 0,507.63569 0,507.63569 l 600,0 c 0,0 -93.74762,-202.01362 -244.35044,-253.81784"
     inkscape:connector-curvature="0"
     id="path656"
     style="fill:#ffffff;fill-opacity:1;fill-rule:nonzero;stroke:none" />
  <path
     d="m 317.2723,274.09789 0,199.72926 222.29367,0 c 0,0 -79.60997,-156.16142 -222.29367,-199.72926 m -256.787508,199.72926 222.242908,0 0,-199.72926 C 140.05669,317.66573 60.484792,473.82715 60.484792,473.82715 M 539.56597,33.80854 l -222.29367,0 0,199.72926 C 459.956,190.02073 539.56597,33.80854 539.56597,33.80854 m -479.081178,0 222.242908,0 0,199.72926 C 140.05669,190.02073 60.484792,33.80854 60.484792,33.80854"
     inkscape:connector-curvature="0"
     id="path658"
     style="fill:#000000;fill-opacity:1;fill-rule:nonzero;stroke:none" />
</svg>
